<?xml version="1.0" encoding="UTF-8" standalone="no"?><svg xmlns="http://www.w3.org/2000/svg" xmlns:xlink="http://www.w3.org/1999/xlink" contentScriptType="application/ecmascript" contentStyleType="text/css" height="379px" preserveAspectRatio="none" style="width:768px;height:379px;" version="1.1" viewBox="0 0 768 379" width="768px" zoomAndPan="magnify"><defs><filter height="300%" id="f1706mmux1848z" width="300%" x="-1" y="-1"><feGaussianBlur result="blurOut" stdDeviation="2.0"/><feColorMatrix in="blurOut" result="blurOut2" type="matrix" values="0 0 0 0 0 0 0 0 0 0 0 0 0 0 0 0 0 0 .4 0"/><feOffset dx="4.0" dy="4.0" in="blurOut2" result="blurOut3"/><feBlend in="SourceGraphic" in2="blurOut3" mode="normal"/></filter></defs><g><!--class rtbapp--><rect fill="#FEFECE" filter="url(#f1706mmux1848z)" height="78.4141" id="rtbapp" style="stroke: #A80036; stroke-width: 1.5;" width="148" x="6" y="14.5"/><ellipse cx="54.75" cy="30.5" fill="#FFAAAA" rx="11" ry="11" style="stroke: #A80036; stroke-width: 1.0;"/><path d="M55.5938,37.25 L53.1406,37.25 L53.1406,27 L50,27 L50,24.8594 L58.7344,24.8594 L58.7344,27 L55.5938,27 L55.5938,37.25 Z "/><text fill="#000000" font-family="sans-serif" font-size="12" lengthAdjust="spacingAndGlyphs" textLength="42" x="75.25" y="34.6543">rtbapp</text><line style="stroke: #A80036; stroke-width: 1.5;" x1="7" x2="153" y1="46.5" y2="46.5"/><text fill="#000000" font-family="sans-serif" font-size="11" font-weight="bold" lengthAdjust="spacingAndGlyphs" textLength="66" x="12" y="60.7104">rtbapp_ref</text><text fill="#000000" font-family="sans-serif" font-size="11" lengthAdjust="spacingAndGlyphs" textLength="0" x="82" y="60.7104"/><text fill="#000000" font-family="sans-serif" font-size="11" font-style="italic" lengthAdjust="spacingAndGlyphs" textLength="66" x="82" y="60.7104">varchar[15]</text><text fill="#000000" font-family="sans-serif" font-size="11" lengthAdjust="spacingAndGlyphs" textLength="0" x="16" y="73.5151"/><text fill="#000000" font-family="sans-serif" font-size="11" font-style="italic" lengthAdjust="spacingAndGlyphs" textLength="85" x="12" y="86.3198">+ 105 columns</text><!--class rtbdelay--><rect fill="#FEFECE" filter="url(#f1706mmux1848z)" height="52.8047" id="rtbdelay" style="stroke: #A80036; stroke-width: 1.5;" width="90" x="189" y="27"/><ellipse cx="207.15" cy="43" fill="#FFAAAA" rx="11" ry="11" style="stroke: #A80036; stroke-width: 1.0;"/><path d="M207.9938,49.75 L205.5406,49.75 L205.5406,39.5 L202.4,39.5 L202.4,37.3594 L211.1344,37.3594 L211.1344,39.5 L207.9938,39.5 L207.9938,49.75 Z "/><text fill="#000000" font-family="sans-serif" font-size="12" lengthAdjust="spacingAndGlyphs" textLength="51" x="221.85" y="47.1543">rtbdelay</text><line style="stroke: #A80036; stroke-width: 1.5;" x1="190" x2="278" y1="59" y2="59"/><text fill="#000000" font-family="sans-serif" font-size="11" font-style="italic" lengthAdjust="spacingAndGlyphs" textLength="78" x="195" y="73.2104">+ 13 columns</text><!--class rtbevent--><rect fill="#FEFECE" filter="url(#f1706mmux1848z)" height="78.4141" id="rtbevent" style="stroke: #A80036; stroke-width: 1.5;" width="159" x="314.5" y="14.5"/><ellipse cx="363.25" cy="30.5" fill="#FFAAAA" rx="11" ry="11" style="stroke: #A80036; stroke-width: 1.0;"/><path d="M364.0938,37.25 L361.6406,37.25 L361.6406,27 L358.5,27 L358.5,24.8594 L367.2344,24.8594 L367.2344,27 L364.0938,27 L364.0938,37.25 Z "/><text fill="#000000" font-family="sans-serif" font-size="12" lengthAdjust="spacingAndGlyphs" textLength="53" x="383.75" y="34.6543">rtbevent</text><line style="stroke: #A80036; stroke-width: 1.5;" x1="315.5" x2="472.5" y1="46.5" y2="46.5"/><text fill="#000000" font-family="sans-serif" font-size="11" font-weight="bold" lengthAdjust="spacingAndGlyphs" textLength="84" x="320.5" y="60.7104">rtb_event_ref</text><text fill="#000000" font-family="sans-serif" font-size="11" lengthAdjust="spacingAndGlyphs" textLength="0" x="408.5" y="60.7104"/><text fill="#000000" font-family="sans-serif" font-size="11" font-style="italic" lengthAdjust="spacingAndGlyphs" textLength="59" x="408.5" y="60.7104">varchar[3]</text><text fill="#000000" font-family="sans-serif" font-size="11" lengthAdjust="spacingAndGlyphs" textLength="0" x="324.5" y="73.5151"/><text fill="#000000" font-family="sans-serif" font-size="11" font-style="italic" lengthAdjust="spacingAndGlyphs" textLength="78" x="320.5" y="86.3198">+ 12 columns</text><!--class rtbeventh--><rect fill="#FEFECE" filter="url(#f1706mmux1848z)" height="52.8047" id="rtbeventh" style="stroke: #A80036; stroke-width: 1.5;" width="93" x="508.5" y="27"/><ellipse cx="523.5" cy="43" fill="#FFAAAA" rx="11" ry="11" style="stroke: #A80036; stroke-width: 1.0;"/><path d="M524.3438,49.75 L521.8906,49.75 L521.8906,39.5 L518.75,39.5 L518.75,37.3594 L527.4844,37.3594 L527.4844,39.5 L524.3438,39.5 L524.3438,49.75 Z "/><text fill="#000000" font-family="sans-serif" font-size="12" lengthAdjust="spacingAndGlyphs" textLength="61" x="537.5" y="47.1543">rtbeventh</text><line style="stroke: #A80036; stroke-width: 1.5;" x1="509.5" x2="600.5" y1="59" y2="59"/><text fill="#000000" font-family="sans-serif" font-size="11" font-style="italic" lengthAdjust="spacingAndGlyphs" textLength="78" x="514.5" y="73.2104">+ 14 columns</text><!--class rtblval--><rect fill="#FEFECE" filter="url(#f1706mmux1848z)" height="52.8047" id="rtblval" style="stroke: #A80036; stroke-width: 1.5;" width="90" x="35" y="176"/><ellipse cx="59" cy="192" fill="#FFAAAA" rx="11" ry="11" style="stroke: #A80036; stroke-width: 1.0;"/><path d="M59.8438,198.75 L57.3906,198.75 L57.3906,188.5 L54.25,188.5 L54.25,186.3594 L62.9844,186.3594 L62.9844,188.5 L59.8438,188.5 L59.8438,198.75 Z "/><text fill="#000000" font-family="sans-serif" font-size="12" lengthAdjust="spacingAndGlyphs" textLength="38" x="75" y="196.1543">rtblval</text><line style="stroke: #A80036; stroke-width: 1.5;" x1="36" x2="124" y1="208" y2="208"/><text fill="#000000" font-family="sans-serif" font-size="11" font-style="italic" lengthAdjust="spacingAndGlyphs" textLength="78" x="41" y="222.2104">+ 14 columns</text><!--class rtbmember--><rect fill="#FEFECE" filter="url(#f1706mmux1848z)" height="52.8047" id="rtbmember" style="stroke: #A80036; stroke-width: 1.5;" width="101" x="160.5" y="176"/><ellipse cx="175.5" cy="192" fill="#FFAAAA" rx="11" ry="11" style="stroke: #A80036; stroke-width: 1.0;"/><path d="M176.3438,198.75 L173.8906,198.75 L173.8906,188.5 L170.75,188.5 L170.75,186.3594 L179.4844,186.3594 L179.4844,188.5 L176.3438,188.5 L176.3438,198.75 Z "/><text fill="#000000" font-family="sans-serif" font-size="12" lengthAdjust="spacingAndGlyphs" textLength="69" x="189.5" y="196.1543">rtbmember</text><line style="stroke: #A80036; stroke-width: 1.5;" x1="161.5" x2="260.5" y1="208" y2="208"/><text fill="#000000" font-family="sans-serif" font-size="11" font-style="italic" lengthAdjust="spacingAndGlyphs" textLength="78" x="166.5" y="222.2104">+ 16 columns</text><!--class rtbpdisc--><rect fill="#FEFECE" filter="url(#f1706mmux1848z)" height="52.8047" id="rtbpdisc" style="stroke: #A80036; stroke-width: 1.5;" width="90" x="297" y="176"/><ellipse cx="315.15" cy="192" fill="#FFAAAA" rx="11" ry="11" style="stroke: #A80036; stroke-width: 1.0;"/><path d="M315.9938,198.75 L313.5406,198.75 L313.5406,188.5 L310.4,188.5 L310.4,186.3594 L319.1344,186.3594 L319.1344,188.5 L315.9938,188.5 L315.9938,198.75 Z "/><text fill="#000000" font-family="sans-serif" font-size="12" lengthAdjust="spacingAndGlyphs" textLength="51" x="329.85" y="196.1543">rtbpdisc</text><line style="stroke: #A80036; stroke-width: 1.5;" x1="298" x2="386" y1="208" y2="208"/><text fill="#000000" font-family="sans-serif" font-size="11" font-style="italic" lengthAdjust="spacingAndGlyphs" textLength="78" x="303" y="222.2104">+ 14 columns</text><!--class rtbpolicy--><rect fill="#FEFECE" filter="url(#f1706mmux1848z)" height="52.8047" id="rtbpolicy" style="stroke: #A80036; stroke-width: 1.5;" width="85" x="422.5" y="176"/><ellipse cx="437.5" cy="192" fill="#FFAAAA" rx="11" ry="11" style="stroke: #A80036; stroke-width: 1.0;"/><path d="M438.3438,198.75 L435.8906,198.75 L435.8906,188.5 L432.75,188.5 L432.75,186.3594 L441.4844,186.3594 L441.4844,188.5 L438.3438,188.5 L438.3438,198.75 Z "/><text fill="#000000" font-family="sans-serif" font-size="12" lengthAdjust="spacingAndGlyphs" textLength="53" x="451.5" y="196.1543">rtbpolicy</text><line style="stroke: #A80036; stroke-width: 1.5;" x1="423.5" x2="506.5" y1="208" y2="208"/><text fill="#000000" font-family="sans-serif" font-size="11" font-style="italic" lengthAdjust="spacingAndGlyphs" textLength="71" x="428.5" y="222.2104">+ 9 columns</text><!--class rtbpolicylst--><rect fill="#FEFECE" filter="url(#f1706mmux1848z)" height="52.8047" id="rtbpolicylst" style="stroke: #A80036; stroke-width: 1.5;" width="100" x="30" y="302.5"/><ellipse cx="45" cy="318.5" fill="#FFAAAA" rx="11" ry="11" style="stroke: #A80036; stroke-width: 1.0;"/><path d="M45.8438,325.25 L43.3906,325.25 L43.3906,315 L40.25,315 L40.25,312.8594 L48.9844,312.8594 L48.9844,315 L45.8438,315 L45.8438,325.25 Z "/><text fill="#000000" font-family="sans-serif" font-size="12" lengthAdjust="spacingAndGlyphs" textLength="68" x="59" y="322.6543">rtbpolicylst</text><line style="stroke: #A80036; stroke-width: 1.5;" x1="31" x2="129" y1="334.5" y2="334.5"/><text fill="#000000" font-family="sans-serif" font-size="11" font-style="italic" lengthAdjust="spacingAndGlyphs" textLength="78" x="36" y="348.7104">+ 10 columns</text><!--class rtbs125--><rect fill="#FEFECE" filter="url(#f1706mmux1848z)" height="91.2188" id="rtbs125" style="stroke: #A80036; stroke-width: 1.5;" width="120" x="637" y="8"/><ellipse cx="669.55" cy="24" fill="#FFAAAA" rx="11" ry="11" style="stroke: #A80036; stroke-width: 1.0;"/><path d="M670.3938,30.75 L667.9406,30.75 L667.9406,20.5 L664.8,20.5 L664.8,18.3594 L673.5344,18.3594 L673.5344,20.5 L670.3938,20.5 L670.3938,30.75 Z "/><text fill="#000000" font-family="sans-serif" font-size="12" lengthAdjust="spacingAndGlyphs" textLength="49" x="687.45" y="28.1543">rtbs125</text><line style="stroke: #A80036; stroke-width: 1.5;" x1="638" x2="756" y1="40" y2="40"/><text fill="#000000" font-family="sans-serif" font-size="11" font-weight="bold" lengthAdjust="spacingAndGlyphs" textLength="44" x="643" y="54.2104">tstamp</text><text fill="#000000" font-family="sans-serif" font-size="11" lengthAdjust="spacingAndGlyphs" textLength="0" x="691" y="54.2104"/><text fill="#000000" font-family="sans-serif" font-size="11" font-style="italic" lengthAdjust="spacingAndGlyphs" textLength="60" x="691" y="54.2104">timestamp</text><text fill="#000000" font-family="sans-serif" font-size="11" lengthAdjust="spacingAndGlyphs" text-decoration="underline" textLength="40" x="643" y="67.0151">tag_ref</text><text fill="#000000" font-family="sans-serif" font-size="11" lengthAdjust="spacingAndGlyphs" textLength="0" x="687" y="67.0151"/><text fill="#000000" font-family="sans-serif" font-size="11" font-style="italic" lengthAdjust="spacingAndGlyphs" textLength="47" x="687" y="67.0151">char[11]</text><text fill="#000000" font-family="sans-serif" font-size="11" lengthAdjust="spacingAndGlyphs" textLength="0" x="647" y="79.8198"/><text fill="#000000" font-family="sans-serif" font-size="11" font-style="italic" lengthAdjust="spacingAndGlyphs" textLength="71" x="643" y="92.6245">+ 7 columns</text><!--class rtbsol--><rect fill="#FEFECE" filter="url(#f1706mmux1848z)" height="78.4141" id="rtbsol" style="stroke: #A80036; stroke-width: 1.5;" width="125" x="165.5" y="290"/><ellipse cx="206.15" cy="306" fill="#FFAAAA" rx="11" ry="11" style="stroke: #A80036; stroke-width: 1.0;"/><path d="M206.9938,312.75 L204.5406,312.75 L204.5406,302.5 L201.4,302.5 L201.4,300.3594 L210.1344,300.3594 L210.1344,302.5 L206.9938,302.5 L206.9938,312.75 Z "/><text fill="#000000" font-family="sans-serif" font-size="12" lengthAdjust="spacingAndGlyphs" textLength="36" x="225.85" y="310.1543">rtbsol</text><line style="stroke: #A80036; stroke-width: 1.5;" x1="166.5" x2="289.5" y1="322" y2="322"/><text fill="#000000" font-family="sans-serif" font-size="11" font-weight="bold" lengthAdjust="spacingAndGlyphs" textLength="43" x="171.5" y="336.2104">sol_ref</text><text fill="#000000" font-family="sans-serif" font-size="11" lengthAdjust="spacingAndGlyphs" textLength="0" x="218.5" y="336.2104"/><text fill="#000000" font-family="sans-serif" font-size="11" font-style="italic" lengthAdjust="spacingAndGlyphs" textLength="66" x="218.5" y="336.2104">varchar[10]</text><text fill="#000000" font-family="sans-serif" font-size="11" lengthAdjust="spacingAndGlyphs" textLength="0" x="175.5" y="349.0151"/><text fill="#000000" font-family="sans-serif" font-size="11" font-style="italic" lengthAdjust="spacingAndGlyphs" textLength="78" x="171.5" y="361.8198">+ 12 columns</text><!--class rtbtens--><rect fill="#FEFECE" filter="url(#f1706mmux1848z)" height="52.8047" id="rtbtens" style="stroke: #A80036; stroke-width: 1.5;" width="90" x="326" y="302.5"/><ellipse cx="346.4" cy="318.5" fill="#FFAAAA" rx="11" ry="11" style="stroke: #A80036; stroke-width: 1.0;"/><path d="M347.2438,325.25 L344.7906,325.25 L344.7906,315 L341.65,315 L341.65,312.8594 L350.3844,312.8594 L350.3844,315 L347.2438,315 L347.2438,325.25 Z "/><text fill="#000000" font-family="sans-serif" font-size="12" lengthAdjust="spacingAndGlyphs" textLength="46" x="361.6" y="322.6543">rtbtens</text><line style="stroke: #A80036; stroke-width: 1.5;" x1="327" x2="415" y1="334.5" y2="334.5"/><text fill="#000000" font-family="sans-serif" font-size="11" font-style="italic" lengthAdjust="spacingAndGlyphs" textLength="78" x="332" y="348.7104">+ 14 columns</text><!--class rtbvaluer--><rect fill="#FEFECE" filter="url(#f1706mmux1848z)" height="78.4141" id="rtbvaluer" style="stroke: #A80036; stroke-width: 1.5;" width="146" x="451" y="290"/><ellipse cx="492.1" cy="306" fill="#FFAAAA" rx="11" ry="11" style="stroke: #A80036; stroke-width: 1.0;"/><path d="M492.9438,312.75 L490.4906,312.75 L490.4906,302.5 L487.35,302.5 L487.35,300.3594 L496.0844,300.3594 L496.0844,302.5 L492.9438,302.5 L492.9438,312.75 Z "/><text fill="#000000" font-family="sans-serif" font-size="12" lengthAdjust="spacingAndGlyphs" textLength="56" x="511.9" y="310.1543">rtbvaluer</text><line style="stroke: #A80036; stroke-width: 1.5;" x1="452" x2="596" y1="322" y2="322"/><text fill="#000000" font-family="sans-serif" font-size="11" font-weight="bold" lengthAdjust="spacingAndGlyphs" textLength="64" x="457" y="336.2104">valuer_ref</text><text fill="#000000" font-family="sans-serif" font-size="11" lengthAdjust="spacingAndGlyphs" textLength="0" x="525" y="336.2104"/><text fill="#000000" font-family="sans-serif" font-size="11" font-style="italic" lengthAdjust="spacingAndGlyphs" textLength="66" x="525" y="336.2104">varchar[10]</text><text fill="#000000" font-family="sans-serif" font-size="11" lengthAdjust="spacingAndGlyphs" textLength="0" x="461" y="349.0151"/><text fill="#000000" font-family="sans-serif" font-size="11" font-style="italic" lengthAdjust="spacingAndGlyphs" textLength="78" x="457" y="361.8198">+ 13 columns</text><!--class tenagree--><rect fill="#FEFECE" filter="url(#f1706mmux1848z)" height="40" id="tenagree" style="stroke: #A80036; stroke-width: 1.5;" width="90" x="652" y="182.5"/><ellipse cx="667" cy="198.5" fill="#ADD1B2" rx="11" ry="11" style="stroke: #A80036; stroke-width: 1.0;"/><path d="M669.9688,204.1406 Q669.3906,204.4375 668.75,204.5859 Q668.1094,204.7344 667.4063,204.7344 Q664.9063,204.7344 663.5859,203.0859 Q662.2656,201.4375 662.2656,198.3125 Q662.2656,195.1875 663.5859,193.5313 Q664.9063,191.875 667.4063,191.875 Q668.1094,191.875 668.7578,192.0313 Q669.4063,192.1875 669.9688,192.4844 L669.9688,195.2031 Q669.3438,194.625 668.75,194.3516 Q668.1563,194.0781 667.5313,194.0781 Q666.1875,194.0781 665.5,195.1484 Q664.8125,196.2188 664.8125,198.3125 Q664.8125,200.4063 665.5,201.4766 Q666.1875,202.5469 667.5313,202.5469 Q668.1563,202.5469 668.75,202.2734 Q669.3438,202 669.9688,201.4219 L669.9688,204.1406 Z "/><text fill="#000000" font-family="sans-serif" font-size="12" lengthAdjust="spacingAndGlyphs" textLength="58" x="681" y="202.6543">tenagree</text><line style="stroke: #A80036; stroke-width: 1.5;" x1="653" x2="741" y1="214.5" y2="214.5"/><!--link rtbs125 to tenagree--><path d="M697,99.004 C697,124.711 697,156.055 697,177.261 " fill="none" id="rtbs125-tenagree" style="stroke: #A80036; stroke-width: 1.0;"/><polygon fill="#A80036" points="697,182.425,701,173.425,697,177.425,693,173.425,697,182.425" style="stroke: #A80036; stroke-width: 1.0;"/><text fill="#000000" font-family="sans-serif" font-size="13" lengthAdjust="spacingAndGlyphs" textLength="45" x="698" y="142.0669">tag_ref</text><!--link rtbapp to rtbdelay--><!--link rtbdelay to rtbevent--><!--link rtbevent to rtbeventh--><!--link rtbapp to rtblval--><!--link rtblval to rtbmember--><!--link rtbmember to rtbpdisc--><!--link rtbpdisc to rtbpolicy--><!--link rtblval to rtbpolicylst--><!--link rtbpolicylst to rtbsol--><!--link rtbsol to rtbtens--><!--link rtbtens to rtbvaluer--><!--
@startuml
hide methods
hide stereotypes

class rtbapp as "rtbapp" << (T,#FFAAAA) >> {
<b>rtbapp_ref</b> <i>varchar[15]</i>

<i>+ 105 columns</i>
}


class rtbdelay as "rtbdelay" << (T,#FFAAAA) >> {

<i>+ 13 columns</i>
}


class rtbevent as "rtbevent" << (T,#FFAAAA) >> {
<b>rtb_event_ref</b> <i>varchar[3]</i>

<i>+ 12 columns</i>
}


class rtbeventh as "rtbeventh" << (T,#FFAAAA) >> {

<i>+ 14 columns</i>
}


class rtblval as "rtblval" << (T,#FFAAAA) >> {

<i>+ 14 columns</i>
}


class rtbmember as "rtbmember" << (T,#FFAAAA) >> {

<i>+ 16 columns</i>
}


class rtbpdisc as "rtbpdisc" << (T,#FFAAAA) >> {

<i>+ 14 columns</i>
}


class rtbpolicy as "rtbpolicy" << (T,#FFAAAA) >> {

<i>+ 9 columns</i>
}


class rtbpolicylst as "rtbpolicylst" << (T,#FFAAAA) >> {

<i>+ 10 columns</i>
}


class rtbs125 as "rtbs125" << (T,#FFAAAA) >> {
<b>tstamp</b> <i>timestamp</i>
<u>tag_ref</u> <i>char[11]</i>

<i>+ 7 columns</i>
}


class rtbsol as "rtbsol" << (T,#FFAAAA) >> {
<b>sol_ref</b> <i>varchar[10]</i>

<i>+ 12 columns</i>
}


class rtbtens as "rtbtens" << (T,#FFAAAA) >> {

<i>+ 14 columns</i>
}


class rtbvaluer as "rtbvaluer" << (T,#FFAAAA) >> {
<b>valuer_ref</b> <i>varchar[10]</i>

<i>+ 13 columns</i>
}











rtbs125 - -> tenagree : "tag_ref"



@enduml

PlantUML version 1.2019.08(Sat Jul 13 19:25:14 UTC 2019)
(GPL source distribution)
Java Runtime: OpenJDK Runtime Environment
JVM: OpenJDK 64-Bit Server VM
Java Version: 1.8.0_131-8u131-b11-1~bpo8+1-b11
Operating System: Linux
OS Version: 4.15.0-1043-aws
Default Encoding: UTF-8
Language: en
Country: null
--></g></svg>