<?xml version="1.0" encoding="UTF-8" standalone="no"?><svg xmlns="http://www.w3.org/2000/svg" xmlns:xlink="http://www.w3.org/1999/xlink" contentScriptType="application/ecmascript" contentStyleType="text/css" height="446px" preserveAspectRatio="none" style="width:736px;height:446px;" version="1.1" viewBox="0 0 736 446" width="736px" zoomAndPan="magnify"><defs><filter height="300%" id="f18vejmw8ryuez" width="300%" x="-1" y="-1"><feGaussianBlur result="blurOut" stdDeviation="2.0"/><feColorMatrix in="blurOut" result="blurOut2" type="matrix" values="0 0 0 0 0 0 0 0 0 0 0 0 0 0 0 0 0 0 .4 0"/><feOffset dx="4.0" dy="4.0" in="blurOut2" result="blurOut3"/><feBlend in="SourceGraphic" in2="blurOut3" mode="normal"/></filter></defs><g><!--class tenagree--><rect fill="#FEFECE" filter="url(#f18vejmw8ryuez)" height="142.4375" id="tenagree" style="stroke: #A80036; stroke-width: 1.5;" width="120" x="216" y="176"/><ellipse cx="244.5" cy="192" fill="#FFAAAA" rx="11" ry="11" style="stroke: #A80036; stroke-width: 1.0;"/><path d="M245.3438,198.75 L242.8906,198.75 L242.8906,188.5 L239.75,188.5 L239.75,186.3594 L248.4844,186.3594 L248.4844,188.5 L245.3438,188.5 L245.3438,198.75 Z "/><text fill="#000000" font-family="sans-serif" font-size="12" lengthAdjust="spacingAndGlyphs" textLength="58" x="261.5" y="196.1543">tenagree</text><line style="stroke: #A80036; stroke-width: 1.5;" x1="217" x2="335" y1="208" y2="208"/><text fill="#000000" font-family="sans-serif" font-size="11" font-weight="bold" lengthAdjust="spacingAndGlyphs" textLength="45" x="222" y="222.2104">tag_ref</text><text fill="#000000" font-family="sans-serif" font-size="11" lengthAdjust="spacingAndGlyphs" textLength="0" x="271" y="222.2104"/><text fill="#000000" font-family="sans-serif" font-size="11" font-style="italic" lengthAdjust="spacingAndGlyphs" textLength="47" x="271" y="222.2104">char[11]</text><text fill="#000000" font-family="sans-serif" font-size="11" font-weight="bold" lengthAdjust="spacingAndGlyphs" textLength="44" x="222" y="235.0151">tstamp</text><text fill="#000000" font-family="sans-serif" font-size="11" lengthAdjust="spacingAndGlyphs" textLength="0" x="270" y="235.0151"/><text fill="#000000" font-family="sans-serif" font-size="11" font-style="italic" lengthAdjust="spacingAndGlyphs" textLength="60" x="270" y="235.0151">timestamp</text><text fill="#000000" font-family="sans-serif" font-size="11" lengthAdjust="spacingAndGlyphs" text-decoration="underline" textLength="57" x="222" y="247.8198">house_ref</text><text fill="#000000" font-family="sans-serif" font-size="11" lengthAdjust="spacingAndGlyphs" textLength="0" x="283" y="247.8198"/><text fill="#000000" font-family="sans-serif" font-size="11" font-style="italic" lengthAdjust="spacingAndGlyphs" textLength="47" x="283" y="247.8198">char[10]</text><text fill="#000000" font-family="sans-serif" font-size="11" lengthAdjust="spacingAndGlyphs" text-decoration="underline" textLength="48" x="222" y="260.6245">prop_ref</text><text fill="#000000" font-family="sans-serif" font-size="11" lengthAdjust="spacingAndGlyphs" textLength="0" x="274" y="260.6245"/><text fill="#000000" font-family="sans-serif" font-size="11" font-style="italic" lengthAdjust="spacingAndGlyphs" textLength="47" x="274" y="260.6245">char[12]</text><text fill="#000000" font-family="sans-serif" font-size="11" lengthAdjust="spacingAndGlyphs" text-decoration="underline" textLength="64" x="222" y="273.4292">rentgrp_ref</text><text fill="#000000" font-family="sans-serif" font-size="11" lengthAdjust="spacingAndGlyphs" textLength="0" x="290" y="273.4292"/><text fill="#000000" font-family="sans-serif" font-size="11" font-style="italic" lengthAdjust="spacingAndGlyphs" textLength="40" x="290" y="273.4292">char[3]</text><text fill="#000000" font-family="sans-serif" font-size="11" lengthAdjust="spacingAndGlyphs" text-decoration="underline" textLength="43" x="222" y="286.2339">sup_ref</text><text fill="#000000" font-family="sans-serif" font-size="11" lengthAdjust="spacingAndGlyphs" textLength="0" x="269" y="286.2339"/><text fill="#000000" font-family="sans-serif" font-size="11" font-style="italic" lengthAdjust="spacingAndGlyphs" textLength="47" x="269" y="286.2339">char[12]</text><text fill="#000000" font-family="sans-serif" font-size="11" lengthAdjust="spacingAndGlyphs" textLength="0" x="226" y="299.0386"/><text fill="#000000" font-family="sans-serif" font-size="11" font-style="italic" lengthAdjust="spacingAndGlyphs" textLength="85" x="222" y="311.8433">+ 163 columns</text><!--class tenambr--><rect fill="#FEFECE" filter="url(#f18vejmw8ryuez)" height="91.2188" id="tenambr" style="stroke: #A80036; stroke-width: 1.5;" width="120" x="6" y="8"/><ellipse cx="36.75" cy="24" fill="#FFAAAA" rx="11" ry="11" style="stroke: #A80036; stroke-width: 1.0;"/><path d="M37.5938,30.75 L35.1406,30.75 L35.1406,20.5 L32,20.5 L32,18.3594 L40.7344,18.3594 L40.7344,20.5 L37.5938,20.5 L37.5938,30.75 Z "/><text fill="#000000" font-family="sans-serif" font-size="12" lengthAdjust="spacingAndGlyphs" textLength="53" x="54.25" y="28.1543">tenambr</text><line style="stroke: #A80036; stroke-width: 1.5;" x1="7" x2="125" y1="40" y2="40"/><text fill="#000000" font-family="sans-serif" font-size="11" lengthAdjust="spacingAndGlyphs" text-decoration="underline" textLength="57" x="12" y="54.2104">house_ref</text><text fill="#000000" font-family="sans-serif" font-size="11" lengthAdjust="spacingAndGlyphs" textLength="0" x="73" y="54.2104"/><text fill="#000000" font-family="sans-serif" font-size="11" font-style="italic" lengthAdjust="spacingAndGlyphs" textLength="47" x="73" y="54.2104">char[10]</text><text fill="#000000" font-family="sans-serif" font-size="11" lengthAdjust="spacingAndGlyphs" text-decoration="underline" textLength="40" x="12" y="67.0151">tag_ref</text><text fill="#000000" font-family="sans-serif" font-size="11" lengthAdjust="spacingAndGlyphs" textLength="0" x="56" y="67.0151"/><text fill="#000000" font-family="sans-serif" font-size="11" font-style="italic" lengthAdjust="spacingAndGlyphs" textLength="47" x="56" y="67.0151">char[11]</text><text fill="#000000" font-family="sans-serif" font-size="11" lengthAdjust="spacingAndGlyphs" textLength="0" x="16" y="79.8198"/><text fill="#000000" font-family="sans-serif" font-size="11" font-style="italic" lengthAdjust="spacingAndGlyphs" textLength="71" x="12" y="92.6245">+ 6 columns</text><!--class tenexppmt--><rect fill="#FEFECE" filter="url(#f18vejmw8ryuez)" height="52.8047" id="tenexppmt" style="stroke: #A80036; stroke-width: 1.5;" width="99" x="626.5" y="27"/><ellipse cx="641.5" cy="43" fill="#FFAAAA" rx="11" ry="11" style="stroke: #A80036; stroke-width: 1.0;"/><path d="M642.3438,49.75 L639.8906,49.75 L639.8906,39.5 L636.75,39.5 L636.75,37.3594 L645.4844,37.3594 L645.4844,39.5 L642.3438,39.5 L642.3438,49.75 Z "/><text fill="#000000" font-family="sans-serif" font-size="12" lengthAdjust="spacingAndGlyphs" textLength="67" x="655.5" y="47.1543">tenexppmt</text><line style="stroke: #A80036; stroke-width: 1.5;" x1="627.5" x2="724.5" y1="59" y2="59"/><text fill="#000000" font-family="sans-serif" font-size="11" font-style="italic" lengthAdjust="spacingAndGlyphs" textLength="71" x="632.5" y="73.2104">+ 7 columns</text><!--class tenproj--><rect fill="#FEFECE" filter="url(#f18vejmw8ryuez)" height="91.2188" id="tenproj" style="stroke: #A80036; stroke-width: 1.5;" width="120" x="161" y="8"/><ellipse cx="195.35" cy="24" fill="#FFAAAA" rx="11" ry="11" style="stroke: #A80036; stroke-width: 1.0;"/><path d="M196.1938,30.75 L193.7406,30.75 L193.7406,20.5 L190.6,20.5 L190.6,18.3594 L199.3344,18.3594 L199.3344,20.5 L196.1938,20.5 L196.1938,30.75 Z "/><text fill="#000000" font-family="sans-serif" font-size="12" lengthAdjust="spacingAndGlyphs" textLength="45" x="213.65" y="28.1543">tenproj</text><line style="stroke: #A80036; stroke-width: 1.5;" x1="162" x2="280" y1="40" y2="40"/><text fill="#000000" font-family="sans-serif" font-size="11" font-weight="bold" lengthAdjust="spacingAndGlyphs" textLength="44" x="167" y="54.2104">tstamp</text><text fill="#000000" font-family="sans-serif" font-size="11" lengthAdjust="spacingAndGlyphs" textLength="0" x="215" y="54.2104"/><text fill="#000000" font-family="sans-serif" font-size="11" font-style="italic" lengthAdjust="spacingAndGlyphs" textLength="60" x="215" y="54.2104">timestamp</text><text fill="#000000" font-family="sans-serif" font-size="11" lengthAdjust="spacingAndGlyphs" text-decoration="underline" textLength="40" x="167" y="67.0151">tag_ref</text><text fill="#000000" font-family="sans-serif" font-size="11" lengthAdjust="spacingAndGlyphs" textLength="0" x="211" y="67.0151"/><text fill="#000000" font-family="sans-serif" font-size="11" font-style="italic" lengthAdjust="spacingAndGlyphs" textLength="47" x="211" y="67.0151">char[11]</text><text fill="#000000" font-family="sans-serif" font-size="11" lengthAdjust="spacingAndGlyphs" textLength="0" x="171" y="79.8198"/><text fill="#000000" font-family="sans-serif" font-size="11" font-style="italic" lengthAdjust="spacingAndGlyphs" textLength="71" x="167" y="92.6245">+ 4 columns</text><!--class tens125--><rect fill="#FEFECE" filter="url(#f18vejmw8ryuez)" height="91.2188" id="tens125" style="stroke: #A80036; stroke-width: 1.5;" width="120" x="316" y="8"/><ellipse cx="347.2" cy="24" fill="#FFAAAA" rx="11" ry="11" style="stroke: #A80036; stroke-width: 1.0;"/><path d="M348.0438,30.75 L345.5906,30.75 L345.5906,20.5 L342.45,20.5 L342.45,18.3594 L351.1844,18.3594 L351.1844,20.5 L348.0438,20.5 L348.0438,30.75 Z "/><text fill="#000000" font-family="sans-serif" font-size="12" lengthAdjust="spacingAndGlyphs" textLength="52" x="364.8" y="28.1543">tens125</text><line style="stroke: #A80036; stroke-width: 1.5;" x1="317" x2="435" y1="40" y2="40"/><text fill="#000000" font-family="sans-serif" font-size="11" font-weight="bold" lengthAdjust="spacingAndGlyphs" textLength="44" x="322" y="54.2104">tstamp</text><text fill="#000000" font-family="sans-serif" font-size="11" lengthAdjust="spacingAndGlyphs" textLength="0" x="370" y="54.2104"/><text fill="#000000" font-family="sans-serif" font-size="11" font-style="italic" lengthAdjust="spacingAndGlyphs" textLength="60" x="370" y="54.2104">timestamp</text><text fill="#000000" font-family="sans-serif" font-size="11" lengthAdjust="spacingAndGlyphs" text-decoration="underline" textLength="40" x="322" y="67.0151">tag_ref</text><text fill="#000000" font-family="sans-serif" font-size="11" lengthAdjust="spacingAndGlyphs" textLength="0" x="366" y="67.0151"/><text fill="#000000" font-family="sans-serif" font-size="11" font-style="italic" lengthAdjust="spacingAndGlyphs" textLength="47" x="366" y="67.0151">char[11]</text><text fill="#000000" font-family="sans-serif" font-size="11" lengthAdjust="spacingAndGlyphs" textLength="0" x="326" y="79.8198"/><text fill="#000000" font-family="sans-serif" font-size="11" font-style="italic" lengthAdjust="spacingAndGlyphs" textLength="71" x="322" y="92.6245">+ 7 columns</text><!--class tenserv--><rect fill="#FEFECE" filter="url(#f18vejmw8ryuez)" height="91.2188" id="tenserv" style="stroke: #A80036; stroke-width: 1.5;" width="120" x="471" y="8"/><ellipse cx="504.45" cy="24" fill="#FFAAAA" rx="11" ry="11" style="stroke: #A80036; stroke-width: 1.0;"/><path d="M505.2938,30.75 L502.8406,30.75 L502.8406,20.5 L499.7,20.5 L499.7,18.3594 L508.4344,18.3594 L508.4344,20.5 L505.2938,20.5 L505.2938,30.75 Z "/><text fill="#000000" font-family="sans-serif" font-size="12" lengthAdjust="spacingAndGlyphs" textLength="47" x="522.55" y="28.1543">tenserv</text><line style="stroke: #A80036; stroke-width: 1.5;" x1="472" x2="590" y1="40" y2="40"/><text fill="#000000" font-family="sans-serif" font-size="11" font-weight="bold" lengthAdjust="spacingAndGlyphs" textLength="44" x="477" y="54.2104">tstamp</text><text fill="#000000" font-family="sans-serif" font-size="11" lengthAdjust="spacingAndGlyphs" textLength="0" x="525" y="54.2104"/><text fill="#000000" font-family="sans-serif" font-size="11" font-style="italic" lengthAdjust="spacingAndGlyphs" textLength="60" x="525" y="54.2104">timestamp</text><text fill="#000000" font-family="sans-serif" font-size="11" lengthAdjust="spacingAndGlyphs" text-decoration="underline" textLength="40" x="477" y="67.0151">tag_ref</text><text fill="#000000" font-family="sans-serif" font-size="11" lengthAdjust="spacingAndGlyphs" textLength="0" x="521" y="67.0151"/><text fill="#000000" font-family="sans-serif" font-size="11" font-style="italic" lengthAdjust="spacingAndGlyphs" textLength="47" x="521" y="67.0151">char[11]</text><text fill="#000000" font-family="sans-serif" font-size="11" lengthAdjust="spacingAndGlyphs" textLength="0" x="481" y="79.8198"/><text fill="#000000" font-family="sans-serif" font-size="11" font-style="italic" lengthAdjust="spacingAndGlyphs" textLength="71" x="477" y="92.6245">+ 4 columns</text><!--class househ--><rect fill="#FEFECE" filter="url(#f18vejmw8ryuez)" height="40" id="househ" style="stroke: #A80036; stroke-width: 1.5;" width="79" x="44.5" y="395"/><ellipse cx="59.5" cy="411" fill="#ADD1B2" rx="11" ry="11" style="stroke: #A80036; stroke-width: 1.0;"/><path d="M62.4688,416.6406 Q61.8906,416.9375 61.25,417.0859 Q60.6094,417.2344 59.9063,417.2344 Q57.4063,417.2344 56.0859,415.5859 Q54.7656,413.9375 54.7656,410.8125 Q54.7656,407.6875 56.0859,406.0313 Q57.4063,404.375 59.9063,404.375 Q60.6094,404.375 61.2578,404.5313 Q61.9063,404.6875 62.4688,404.9844 L62.4688,407.7031 Q61.8438,407.125 61.25,406.8516 Q60.6563,406.5781 60.0313,406.5781 Q58.6875,406.5781 58,407.6484 Q57.3125,408.7188 57.3125,410.8125 Q57.3125,412.9063 58,413.9766 Q58.6875,415.0469 60.0313,415.0469 Q60.6563,415.0469 61.25,414.7734 Q61.8438,414.5 62.4688,413.9219 L62.4688,416.6406 Z "/><text fill="#000000" font-family="sans-serif" font-size="12" lengthAdjust="spacingAndGlyphs" textLength="47" x="73.5" y="415.1543">househ</text><line style="stroke: #A80036; stroke-width: 1.5;" x1="45.5" x2="122.5" y1="427" y2="427"/><!--class property--><rect fill="#FEFECE" filter="url(#f18vejmw8ryuez)" height="40" id="property" style="stroke: #A80036; stroke-width: 1.5;" width="85" x="175.5" y="395"/><ellipse cx="190.5" cy="411" fill="#ADD1B2" rx="11" ry="11" style="stroke: #A80036; stroke-width: 1.0;"/><path d="M193.4688,416.6406 Q192.8906,416.9375 192.25,417.0859 Q191.6094,417.2344 190.9063,417.2344 Q188.4063,417.2344 187.0859,415.5859 Q185.7656,413.9375 185.7656,410.8125 Q185.7656,407.6875 187.0859,406.0313 Q188.4063,404.375 190.9063,404.375 Q191.6094,404.375 192.2578,404.5313 Q192.9063,404.6875 193.4688,404.9844 L193.4688,407.7031 Q192.8438,407.125 192.25,406.8516 Q191.6563,406.5781 191.0313,406.5781 Q189.6875,406.5781 189,407.6484 Q188.3125,408.7188 188.3125,410.8125 Q188.3125,412.9063 189,413.9766 Q189.6875,415.0469 191.0313,415.0469 Q191.6563,415.0469 192.25,414.7734 Q192.8438,414.5 193.4688,413.9219 L193.4688,416.6406 Z "/><text fill="#000000" font-family="sans-serif" font-size="12" lengthAdjust="spacingAndGlyphs" textLength="53" x="204.5" y="415.1543">property</text><line style="stroke: #A80036; stroke-width: 1.5;" x1="176.5" x2="259.5" y1="427" y2="427"/><!--class rentgrp--><rect fill="#FEFECE" filter="url(#f18vejmw8ryuez)" height="40" id="rentgrp" style="stroke: #A80036; stroke-width: 1.5;" width="79" x="295.5" y="395"/><ellipse cx="310.5" cy="411" fill="#ADD1B2" rx="11" ry="11" style="stroke: #A80036; stroke-width: 1.0;"/><path d="M313.4688,416.6406 Q312.8906,416.9375 312.25,417.0859 Q311.6094,417.2344 310.9063,417.2344 Q308.4063,417.2344 307.0859,415.5859 Q305.7656,413.9375 305.7656,410.8125 Q305.7656,407.6875 307.0859,406.0313 Q308.4063,404.375 310.9063,404.375 Q311.6094,404.375 312.2578,404.5313 Q312.9063,404.6875 313.4688,404.9844 L313.4688,407.7031 Q312.8438,407.125 312.25,406.8516 Q311.6563,406.5781 311.0313,406.5781 Q309.6875,406.5781 309,407.6484 Q308.3125,408.7188 308.3125,410.8125 Q308.3125,412.9063 309,413.9766 Q309.6875,415.0469 311.0313,415.0469 Q311.6563,415.0469 312.25,414.7734 Q312.8438,414.5 313.4688,413.9219 L313.4688,416.6406 Z "/><text fill="#000000" font-family="sans-serif" font-size="12" lengthAdjust="spacingAndGlyphs" textLength="47" x="324.5" y="415.1543">rentgrp</text><line style="stroke: #A80036; stroke-width: 1.5;" x1="296.5" x2="373.5" y1="427" y2="427"/><!--class supplier--><rect fill="#FEFECE" filter="url(#f18vejmw8ryuez)" height="40" id="supplier" style="stroke: #A80036; stroke-width: 1.5;" width="82" x="410" y="395"/><ellipse cx="425" cy="411" fill="#ADD1B2" rx="11" ry="11" style="stroke: #A80036; stroke-width: 1.0;"/><path d="M427.9688,416.6406 Q427.3906,416.9375 426.75,417.0859 Q426.1094,417.2344 425.4063,417.2344 Q422.9063,417.2344 421.5859,415.5859 Q420.2656,413.9375 420.2656,410.8125 Q420.2656,407.6875 421.5859,406.0313 Q422.9063,404.375 425.4063,404.375 Q426.1094,404.375 426.7578,404.5313 Q427.4063,404.6875 427.9688,404.9844 L427.9688,407.7031 Q427.3438,407.125 426.75,406.8516 Q426.1563,406.5781 425.5313,406.5781 Q424.1875,406.5781 423.5,407.6484 Q422.8125,408.7188 422.8125,410.8125 Q422.8125,412.9063 423.5,413.9766 Q424.1875,415.0469 425.5313,415.0469 Q426.1563,415.0469 426.75,414.7734 Q427.3438,414.5 427.9688,413.9219 L427.9688,416.6406 Z "/><text fill="#000000" font-family="sans-serif" font-size="12" lengthAdjust="spacingAndGlyphs" textLength="50" x="439" y="415.1543">supplier</text><line style="stroke: #A80036; stroke-width: 1.5;" x1="411" x2="491" y1="427" y2="427"/><!--link tenagree to househ--><path d="M215.735,299.221 C197.464,314.827 177.37,332.068 159,348 C142.472,362.3347 124.022,378.567 109.558,391.3466 " fill="none" id="tenagree-househ" style="stroke: #A80036; stroke-width: 1.0;"/><polygon fill="#A80036" points="105.5888,394.8551,114.9812,391.8916,109.3351,391.5437,109.683,385.8975,105.5888,394.8551" style="stroke: #A80036; stroke-width: 1.0;"/><text fill="#000000" font-family="sans-serif" font-size="13" lengthAdjust="spacingAndGlyphs" textLength="63" x="160" y="361.0669">house_ref</text><!--link tenagree to property--><path d="M247.699,318.18 C243.956,328.138 240.283,338.291 237,348 C232.347,361.7609 227.819,377.3716 224.352,389.9551 " fill="none" id="tenagree-property" style="stroke: #A80036; stroke-width: 1.0;"/><polygon fill="#A80036" points="223.029,394.7947,229.2597,387.1672,224.3468,389.9715,221.5426,385.0587,223.029,394.7947" style="stroke: #A80036; stroke-width: 1.0;"/><text fill="#000000" font-family="sans-serif" font-size="13" lengthAdjust="spacingAndGlyphs" textLength="53" x="238" y="361.0669">prop_ref</text><!--link tenagree to rentgrp--><path d="M301.021,318.399 C310.093,343.9229 319.743,371.0745 326.432,389.894 " fill="none" id="tenagree-rentgrp" style="stroke: #A80036; stroke-width: 1.0;"/><polygon fill="#A80036" points="328.237,394.9729,328.9919,385.153,326.5625,390.2616,321.4539,387.8322,328.237,394.9729" style="stroke: #A80036; stroke-width: 1.0;"/><text fill="#000000" font-family="sans-serif" font-size="13" lengthAdjust="spacingAndGlyphs" textLength="71" x="319" y="361.0669">rentgrp_ref</text><!--link tenagree to supplier--><path d="M336.158,292.548 C356.927,309.038 379.786,328.489 399,348 C411.966,361.1666 424.833,377.4637 434.524,390.5691 " fill="none" id="tenagree-supplier" style="stroke: #A80036; stroke-width: 1.0;"/><polygon fill="#A80036" points="437.684,394.8821,435.5907,385.2583,434.7286,390.8491,429.1378,389.987,437.684,394.8821" style="stroke: #A80036; stroke-width: 1.0;"/><text fill="#000000" font-family="sans-serif" font-size="13" lengthAdjust="spacingAndGlyphs" textLength="47" x="414" y="361.0669">sup_ref</text><!--link tenambr to househ--><path d="M68.2433,99.304 C72.0855,176.042 79.7995,330.107 82.783,389.6942 " fill="none" id="tenambr-househ" style="stroke: #A80036; stroke-width: 1.0;"/><polygon fill="#A80036" points="83.04,394.8266,86.5847,385.6378,82.7899,389.8329,78.5947,386.038,83.04,394.8266" style="stroke: #A80036; stroke-width: 1.0;"/><text fill="#000000" font-family="sans-serif" font-size="13" lengthAdjust="spacingAndGlyphs" textLength="63" x="81" y="251.5669">house_ref</text><!--link tenambr to tenagree--><path d="M114.971,99.157 C143.854,125.495 180.736,159.128 211.913,187.559 " fill="none" id="tenambr-tenagree" style="stroke: #A80036; stroke-width: 1.0;"/><polygon fill="#A80036" points="215.686,191,211.7309,181.9802,211.9914,187.631,206.3406,187.8915,215.686,191" style="stroke: #A80036; stroke-width: 1.0;"/><text fill="#000000" font-family="sans-serif" font-size="13" lengthAdjust="spacingAndGlyphs" textLength="45" x="166" y="142.0669">tag_ref</text><!--link tenproj to tenagree--><path d="M233.895,99.398 C240.027,120.748 247.524,146.85 254.483,171.081 " fill="none" id="tenproj-tenagree" style="stroke: #A80036; stroke-width: 1.0;"/><polygon fill="#A80036" points="255.867,175.901,257.2276,166.1466,254.487,171.0952,249.5383,168.3546,255.867,175.901" style="stroke: #A80036; stroke-width: 1.0;"/><text fill="#000000" font-family="sans-serif" font-size="13" lengthAdjust="spacingAndGlyphs" textLength="45" x="248" y="142.0669">tag_ref</text><!--link tens125 to tenagree--><path d="M352.554,99.398 C341.359,120.837 327.662,147.068 314.964,171.384 " fill="none" id="tens125-tenagree" style="stroke: #A80036; stroke-width: 1.0;"/><polygon fill="#A80036" points="312.605,175.901,320.3169,169.7751,314.9196,171.469,313.2257,166.0717,312.605,175.901" style="stroke: #A80036; stroke-width: 1.0;"/><text fill="#000000" font-family="sans-serif" font-size="13" lengthAdjust="spacingAndGlyphs" textLength="45" x="336" y="142.0669">tag_ref</text><!--link tenserv to tenagree--><path d="M471.536,99.157 C432.203,128.695 380.654,167.407 340.359,197.667 " fill="none" id="tenserv-tenagree" style="stroke: #A80036; stroke-width: 1.0;"/><polygon fill="#A80036" points="336.001,200.941,345.5992,198.7333,339.9986,197.9378,340.7941,192.3372,336.001,200.941" style="stroke: #A80036; stroke-width: 1.0;"/><text fill="#000000" font-family="sans-serif" font-size="13" lengthAdjust="spacingAndGlyphs" textLength="45" x="428" y="142.0669">tag_ref</text><!--
@startuml
hide methods
hide stereotypes

class tenagree as "tenagree" << (T,#FFAAAA) >> {
<b>tag_ref</b> <i>char[11]</i>
<b>tstamp</b> <i>timestamp</i>
<u>house_ref</u> <i>char[10]</i>
<u>prop_ref</u> <i>char[12]</i>
<u>rentgrp_ref</u> <i>char[3]</i>
<u>sup_ref</u> <i>char[12]</i>

<i>+ 163 columns</i>
}


class tenambr as "tenambr" << (T,#FFAAAA) >> {
<u>house_ref</u> <i>char[10]</i>
<u>tag_ref</u> <i>char[11]</i>

<i>+ 6 columns</i>
}


class tenexppmt as "tenexppmt" << (T,#FFAAAA) >> {

<i>+ 7 columns</i>
}


class tenproj as "tenproj" << (T,#FFAAAA) >> {
<b>tstamp</b> <i>timestamp</i>
<u>tag_ref</u> <i>char[11]</i>

<i>+ 4 columns</i>
}


class tens125 as "tens125" << (T,#FFAAAA) >> {
<b>tstamp</b> <i>timestamp</i>
<u>tag_ref</u> <i>char[11]</i>

<i>+ 7 columns</i>
}


class tenserv as "tenserv" << (T,#FFAAAA) >> {
<b>tstamp</b> <i>timestamp</i>
<u>tag_ref</u> <i>char[11]</i>

<i>+ 4 columns</i>
}


tenagree - -> househ : "house_ref"
tenagree - -> property : "prop_ref"
tenagree - -> rentgrp : "rentgrp_ref"
tenagree - -> supplier : "sup_ref"
tenambr - -> househ : "house_ref"
tenambr - -> tenagree : "tag_ref"

tenproj - -> tenagree : "tag_ref"
tens125 - -> tenagree : "tag_ref"
tenserv - -> tenagree : "tag_ref"
@enduml

PlantUML version 1.2019.08(Sat Jul 13 19:25:14 UTC 2019)
(GPL source distribution)
Java Runtime: OpenJDK Runtime Environment
JVM: OpenJDK 64-Bit Server VM
Java Version: 1.8.0_131-8u131-b11-1~bpo8+1-b11
Operating System: Linux
OS Version: 4.15.0-1043-aws
Default Encoding: UTF-8
Language: en
Country: null
--></g></svg>