<?xml version="1.0" encoding="UTF-8" standalone="no"?><svg xmlns="http://www.w3.org/2000/svg" xmlns:xlink="http://www.w3.org/1999/xlink" contentScriptType="application/ecmascript" contentStyleType="text/css" height="866px" preserveAspectRatio="none" style="width:1046px;height:866px;" version="1.1" viewBox="0 0 1046 866" width="1046px" zoomAndPan="magnify"><defs><filter height="300%" id="fq5hrmafwg0vm" width="300%" x="-1" y="-1"><feGaussianBlur result="blurOut" stdDeviation="2.0"/><feColorMatrix in="blurOut" result="blurOut2" type="matrix" values="0 0 0 0 0 0 0 0 0 0 0 0 0 0 0 0 0 0 .4 0"/><feOffset dx="4.0" dy="4.0" in="blurOut2" result="blurOut3"/><feBlend in="SourceGraphic" in2="blurOut3" mode="normal"/></filter></defs><g><!--class ddagacc--><rect fill="#FEFECE" filter="url(#fq5hrmafwg0vm)" height="104.0234" id="ddagacc" style="stroke: #A80036; stroke-width: 1.5;" width="140" x="6" y="14.5"/><ellipse cx="45.3" cy="30.5" fill="#FFAAAA" rx="11" ry="11" style="stroke: #A80036; stroke-width: 1.0;"/><path d="M46.1438,37.25 L43.6906,37.25 L43.6906,27 L40.55,27 L40.55,24.8594 L49.2844,24.8594 L49.2844,27 L46.1438,27 L46.1438,37.25 Z "/><text fill="#000000" font-family="sans-serif" font-size="12" lengthAdjust="spacingAndGlyphs" textLength="54" x="64.7" y="34.6543">ddagacc</text><line style="stroke: #A80036; stroke-width: 1.5;" x1="7" x2="145" y1="46.5" y2="46.5"/><text fill="#000000" font-family="sans-serif" font-size="11" font-weight="bold" lengthAdjust="spacingAndGlyphs" textLength="77" x="12" y="60.7104">ddagree_ref</text><text fill="#000000" font-family="sans-serif" font-size="11" lengthAdjust="spacingAndGlyphs" textLength="0" x="93" y="60.7104"/><text fill="#000000" font-family="sans-serif" font-size="11" font-style="italic" lengthAdjust="spacingAndGlyphs" textLength="47" x="93" y="60.7104">char[20]</text><text fill="#000000" font-family="sans-serif" font-size="11" font-weight="bold" lengthAdjust="spacingAndGlyphs" textLength="44" x="12" y="73.5151">tstamp</text><text fill="#000000" font-family="sans-serif" font-size="11" lengthAdjust="spacingAndGlyphs" textLength="0" x="60" y="73.5151"/><text fill="#000000" font-family="sans-serif" font-size="11" font-style="italic" lengthAdjust="spacingAndGlyphs" textLength="60" x="60" y="73.5151">timestamp</text><text fill="#000000" font-family="sans-serif" font-size="11" lengthAdjust="spacingAndGlyphs" text-decoration="underline" textLength="40" x="12" y="86.3198">tag_ref</text><text fill="#000000" font-family="sans-serif" font-size="11" lengthAdjust="spacingAndGlyphs" textLength="0" x="56" y="86.3198"/><text fill="#000000" font-family="sans-serif" font-size="11" font-style="italic" lengthAdjust="spacingAndGlyphs" textLength="47" x="56" y="86.3198">char[11]</text><text fill="#000000" font-family="sans-serif" font-size="11" lengthAdjust="spacingAndGlyphs" textLength="0" x="16" y="99.1245"/><text fill="#000000" font-family="sans-serif" font-size="11" font-style="italic" lengthAdjust="spacingAndGlyphs" textLength="78" x="12" y="111.9292">+ 23 columns</text><!--class ddaghist--><rect fill="#FEFECE" filter="url(#fq5hrmafwg0vm)" height="104.0234" id="ddaghist" style="stroke: #A80036; stroke-width: 1.5;" width="132" x="375" y="14.5"/><ellipse cx="410.25" cy="30.5" fill="#FFAAAA" rx="11" ry="11" style="stroke: #A80036; stroke-width: 1.0;"/><path d="M411.0938,37.25 L408.6406,37.25 L408.6406,27 L405.5,27 L405.5,24.8594 L414.2344,24.8594 L414.2344,27 L411.0938,27 L411.0938,37.25 Z "/><text fill="#000000" font-family="sans-serif" font-size="12" lengthAdjust="spacingAndGlyphs" textLength="55" x="428.75" y="34.6543">ddaghist</text><line style="stroke: #A80036; stroke-width: 1.5;" x1="376" x2="506" y1="46.5" y2="46.5"/><text fill="#000000" font-family="sans-serif" font-size="11" font-weight="bold" lengthAdjust="spacingAndGlyphs" textLength="44" x="381" y="60.7104">tstamp</text><text fill="#000000" font-family="sans-serif" font-size="11" lengthAdjust="spacingAndGlyphs" textLength="0" x="429" y="60.7104"/><text fill="#000000" font-family="sans-serif" font-size="11" font-style="italic" lengthAdjust="spacingAndGlyphs" textLength="60" x="429" y="60.7104">timestamp</text><text fill="#000000" font-family="sans-serif" font-size="11" lengthAdjust="spacingAndGlyphs" text-decoration="underline" textLength="69" x="381" y="73.5151">ddagree_ref</text><text fill="#000000" font-family="sans-serif" font-size="11" lengthAdjust="spacingAndGlyphs" textLength="0" x="454" y="73.5151"/><text fill="#000000" font-family="sans-serif" font-size="11" font-style="italic" lengthAdjust="spacingAndGlyphs" textLength="47" x="454" y="73.5151">char[20]</text><text fill="#000000" font-family="sans-serif" font-size="11" lengthAdjust="spacingAndGlyphs" text-decoration="underline" textLength="40" x="381" y="86.3198">tag_ref</text><text fill="#000000" font-family="sans-serif" font-size="11" lengthAdjust="spacingAndGlyphs" textLength="0" x="425" y="86.3198"/><text fill="#000000" font-family="sans-serif" font-size="11" font-style="italic" lengthAdjust="spacingAndGlyphs" textLength="47" x="425" y="86.3198">char[11]</text><text fill="#000000" font-family="sans-serif" font-size="11" lengthAdjust="spacingAndGlyphs" textLength="0" x="385" y="99.1245"/><text fill="#000000" font-family="sans-serif" font-size="11" font-style="italic" lengthAdjust="spacingAndGlyphs" textLength="78" x="381" y="111.9292">+ 12 columns</text><!--class ddagree--><rect fill="#FEFECE" filter="url(#fq5hrmafwg0vm)" height="116.8281" id="ddagree" style="stroke: #A80036; stroke-width: 1.5;" width="140" x="278" y="202"/><ellipse cx="317.75" cy="218" fill="#FFAAAA" rx="11" ry="11" style="stroke: #A80036; stroke-width: 1.0;"/><path d="M318.5938,224.75 L316.1406,224.75 L316.1406,214.5 L313,214.5 L313,212.3594 L321.7344,212.3594 L321.7344,214.5 L318.5938,214.5 L318.5938,224.75 Z "/><text fill="#000000" font-family="sans-serif" font-size="12" lengthAdjust="spacingAndGlyphs" textLength="53" x="337.25" y="222.1543">ddagree</text><line style="stroke: #A80036; stroke-width: 1.5;" x1="279" x2="417" y1="234" y2="234"/><text fill="#000000" font-family="sans-serif" font-size="11" font-weight="bold" lengthAdjust="spacingAndGlyphs" textLength="77" x="284" y="248.2104">ddagree_ref</text><text fill="#000000" font-family="sans-serif" font-size="11" lengthAdjust="spacingAndGlyphs" textLength="0" x="365" y="248.2104"/><text fill="#000000" font-family="sans-serif" font-size="11" font-style="italic" lengthAdjust="spacingAndGlyphs" textLength="47" x="365" y="248.2104">char[20]</text><text fill="#000000" font-family="sans-serif" font-size="11" font-weight="bold" lengthAdjust="spacingAndGlyphs" textLength="44" x="284" y="261.0151">tstamp</text><text fill="#000000" font-family="sans-serif" font-size="11" lengthAdjust="spacingAndGlyphs" textLength="0" x="332" y="261.0151"/><text fill="#000000" font-family="sans-serif" font-size="11" font-style="italic" lengthAdjust="spacingAndGlyphs" textLength="60" x="332" y="261.0151">timestamp</text><text fill="#000000" font-family="sans-serif" font-size="11" lengthAdjust="spacingAndGlyphs" text-decoration="underline" textLength="52" x="284" y="273.8198">bank_acc</text><text fill="#000000" font-family="sans-serif" font-size="11" lengthAdjust="spacingAndGlyphs" textLength="0" x="340" y="273.8198"/><text fill="#000000" font-family="sans-serif" font-size="11" font-style="italic" lengthAdjust="spacingAndGlyphs" textLength="47" x="340" y="273.8198">char[20]</text><text fill="#000000" font-family="sans-serif" font-size="11" lengthAdjust="spacingAndGlyphs" text-decoration="underline" textLength="42" x="284" y="286.6245">bco_ref</text><text fill="#000000" font-family="sans-serif" font-size="11" lengthAdjust="spacingAndGlyphs" textLength="0" x="330" y="286.6245"/><text fill="#000000" font-family="sans-serif" font-size="11" font-style="italic" lengthAdjust="spacingAndGlyphs" textLength="47" x="330" y="286.6245">char[20]</text><text fill="#000000" font-family="sans-serif" font-size="11" lengthAdjust="spacingAndGlyphs" textLength="0" x="288" y="299.4292"/><text fill="#000000" font-family="sans-serif" font-size="11" font-style="italic" lengthAdjust="spacingAndGlyphs" textLength="78" x="284" y="312.2339">+ 30 columns</text><!--class ddbacsco--><rect fill="#FEFECE" filter="url(#fq5hrmafwg0vm)" height="91.2188" id="ddbacsco" style="stroke: #A80036; stroke-width: 1.5;" width="120" x="298" y="412"/><ellipse cx="325.15" cy="428" fill="#FFAAAA" rx="11" ry="11" style="stroke: #A80036; stroke-width: 1.0;"/><path d="M325.9938,434.75 L323.5406,434.75 L323.5406,424.5 L320.4,424.5 L320.4,422.3594 L329.1344,422.3594 L329.1344,424.5 L325.9938,424.5 L325.9938,434.75 Z "/><text fill="#000000" font-family="sans-serif" font-size="12" lengthAdjust="spacingAndGlyphs" textLength="61" x="341.85" y="432.1543">ddbacsco</text><line style="stroke: #A80036; stroke-width: 1.5;" x1="299" x2="417" y1="444" y2="444"/><text fill="#000000" font-family="sans-serif" font-size="11" font-weight="bold" lengthAdjust="spacingAndGlyphs" textLength="47" x="304" y="458.2104">bco_ref</text><text fill="#000000" font-family="sans-serif" font-size="11" lengthAdjust="spacingAndGlyphs" textLength="0" x="355" y="458.2104"/><text fill="#000000" font-family="sans-serif" font-size="11" font-style="italic" lengthAdjust="spacingAndGlyphs" textLength="47" x="355" y="458.2104">char[20]</text><text fill="#000000" font-family="sans-serif" font-size="11" font-weight="bold" lengthAdjust="spacingAndGlyphs" textLength="44" x="304" y="471.0151">tstamp</text><text fill="#000000" font-family="sans-serif" font-size="11" lengthAdjust="spacingAndGlyphs" textLength="0" x="352" y="471.0151"/><text fill="#000000" font-family="sans-serif" font-size="11" font-style="italic" lengthAdjust="spacingAndGlyphs" textLength="60" x="352" y="471.0151">timestamp</text><text fill="#000000" font-family="sans-serif" font-size="11" lengthAdjust="spacingAndGlyphs" textLength="0" x="308" y="483.8198"/><text fill="#000000" font-family="sans-serif" font-size="11" font-style="italic" lengthAdjust="spacingAndGlyphs" textLength="78" x="304" y="496.6245">+ 22 columns</text><!--class ddbank--><rect fill="#FEFECE" filter="url(#fq5hrmafwg0vm)" height="91.2188" id="ddbank" style="stroke: #A80036; stroke-width: 1.5;" width="120" x="218" y="764"/><ellipse cx="251.45" cy="780" fill="#FFAAAA" rx="11" ry="11" style="stroke: #A80036; stroke-width: 1.0;"/><path d="M252.2938,786.75 L249.8406,786.75 L249.8406,776.5 L246.7,776.5 L246.7,774.3594 L255.4344,774.3594 L255.4344,776.5 L252.2938,776.5 L252.2938,786.75 Z "/><text fill="#000000" font-family="sans-serif" font-size="12" lengthAdjust="spacingAndGlyphs" textLength="47" x="269.55" y="784.1543">ddbank</text><line style="stroke: #A80036; stroke-width: 1.5;" x1="219" x2="337" y1="796" y2="796"/><text fill="#000000" font-family="sans-serif" font-size="11" font-weight="bold" lengthAdjust="spacingAndGlyphs" textLength="55" x="224" y="810.2104">bank_ref</text><text fill="#000000" font-family="sans-serif" font-size="11" lengthAdjust="spacingAndGlyphs" textLength="0" x="283" y="810.2104"/><text fill="#000000" font-family="sans-serif" font-size="11" font-style="italic" lengthAdjust="spacingAndGlyphs" textLength="47" x="283" y="810.2104">char[10]</text><text fill="#000000" font-family="sans-serif" font-size="11" font-weight="bold" lengthAdjust="spacingAndGlyphs" textLength="44" x="224" y="823.0151">tstamp</text><text fill="#000000" font-family="sans-serif" font-size="11" lengthAdjust="spacingAndGlyphs" textLength="0" x="272" y="823.0151"/><text fill="#000000" font-family="sans-serif" font-size="11" font-style="italic" lengthAdjust="spacingAndGlyphs" textLength="60" x="272" y="823.0151">timestamp</text><text fill="#000000" font-family="sans-serif" font-size="11" lengthAdjust="spacingAndGlyphs" textLength="0" x="228" y="835.8198"/><text fill="#000000" font-family="sans-serif" font-size="11" font-style="italic" lengthAdjust="spacingAndGlyphs" textLength="71" x="224" y="848.6245">+ 4 columns</text><!--class ddbankacc--><rect fill="#FEFECE" filter="url(#fq5hrmafwg0vm)" height="122.7656" id="ddbankacc" style="stroke: #A80036; stroke-width: 1.5;" width="128" x="135" y="396"/><ellipse cx="150" cy="414.9688" fill="#FFAAAA" rx="11" ry="11" style="stroke: #A80036; stroke-width: 1.0;"/><path d="M150.8438,421.7188 L148.3906,421.7188 L148.3906,411.4688 L145.25,411.4688 L145.25,409.3281 L153.9844,409.3281 L153.9844,411.4688 L150.8438,411.4688 L150.8438,421.7188 Z "/><text fill="#000000" font-family="sans-serif" font-size="12" lengthAdjust="spacingAndGlyphs" textLength="69" x="177.5" y="412.1387">ddbankacc</text><text fill="#000000" font-family="sans-serif" font-size="12" lengthAdjust="spacingAndGlyphs" textLength="96" x="164" y="426.1074">(Bank Account)</text><line style="stroke: #A80036; stroke-width: 1.5;" x1="136" x2="262" y1="433.9375" y2="433.9375"/><text fill="#000000" font-family="sans-serif" font-size="11" font-weight="bold" lengthAdjust="spacingAndGlyphs" textLength="44" x="141" y="448.1479">tstamp</text><text fill="#000000" font-family="sans-serif" font-size="11" lengthAdjust="spacingAndGlyphs" textLength="0" x="189" y="448.1479"/><text fill="#000000" font-family="sans-serif" font-size="11" font-style="italic" lengthAdjust="spacingAndGlyphs" textLength="60" x="189" y="448.1479">timestamp</text><text fill="#000000" font-family="sans-serif" font-size="11" lengthAdjust="spacingAndGlyphs" text-decoration="underline" textLength="57" x="141" y="460.9526">house_ref</text><text fill="#000000" font-family="sans-serif" font-size="11" lengthAdjust="spacingAndGlyphs" textLength="0" x="202" y="460.9526"/><text fill="#000000" font-family="sans-serif" font-size="11" font-style="italic" lengthAdjust="spacingAndGlyphs" textLength="47" x="202" y="460.9526">char[10]</text><text fill="#000000" font-family="sans-serif" font-size="11" lengthAdjust="spacingAndGlyphs" text-decoration="underline" textLength="56" x="141" y="473.7573">sort_code</text><text fill="#000000" font-family="sans-serif" font-size="11" lengthAdjust="spacingAndGlyphs" textLength="0" x="201" y="473.7573"/><text fill="#000000" font-family="sans-serif" font-size="11" font-style="italic" lengthAdjust="spacingAndGlyphs" textLength="47" x="201" y="473.7573">char[10]</text><text fill="#000000" font-family="sans-serif" font-size="11" lengthAdjust="spacingAndGlyphs" text-decoration="underline" textLength="40" x="141" y="486.562">tag_ref</text><text fill="#000000" font-family="sans-serif" font-size="11" lengthAdjust="spacingAndGlyphs" textLength="0" x="185" y="486.562"/><text fill="#000000" font-family="sans-serif" font-size="11" font-style="italic" lengthAdjust="spacingAndGlyphs" textLength="47" x="185" y="486.562">char[11]</text><text fill="#000000" font-family="sans-serif" font-size="11" lengthAdjust="spacingAndGlyphs" textLength="0" x="145" y="499.3667"/><text fill="#000000" font-family="sans-serif" font-size="11" font-style="italic" lengthAdjust="spacingAndGlyphs" textLength="78" x="141" y="512.1714">+ 12 columns</text><!--class ddbatch--><rect fill="#FEFECE" filter="url(#fq5hrmafwg0vm)" height="91.2188" id="ddbatch" style="stroke: #A80036; stroke-width: 1.5;" width="120" x="771" y="215"/><ellipse cx="802.2" cy="231" fill="#FFAAAA" rx="11" ry="11" style="stroke: #A80036; stroke-width: 1.0;"/><path d="M803.0438,237.75 L800.5906,237.75 L800.5906,227.5 L797.45,227.5 L797.45,225.3594 L806.1844,225.3594 L806.1844,227.5 L803.0438,227.5 L803.0438,237.75 Z "/><text fill="#000000" font-family="sans-serif" font-size="12" lengthAdjust="spacingAndGlyphs" textLength="52" x="819.8" y="235.1543">ddbatch</text><line style="stroke: #A80036; stroke-width: 1.5;" x1="772" x2="890" y1="247" y2="247"/><text fill="#000000" font-family="sans-serif" font-size="11" font-weight="bold" lengthAdjust="spacingAndGlyphs" textLength="68" x="777" y="261.2104">ddbatchno</text><text fill="#000000" font-family="sans-serif" font-size="11" lengthAdjust="spacingAndGlyphs" textLength="0" x="849" y="261.2104"/><text fill="#000000" font-family="sans-serif" font-size="11" font-style="italic" lengthAdjust="spacingAndGlyphs" textLength="29" x="849" y="261.2104">int[4]</text><text fill="#000000" font-family="sans-serif" font-size="11" font-weight="bold" lengthAdjust="spacingAndGlyphs" textLength="44" x="777" y="274.0151">tstamp</text><text fill="#000000" font-family="sans-serif" font-size="11" lengthAdjust="spacingAndGlyphs" textLength="0" x="825" y="274.0151"/><text fill="#000000" font-family="sans-serif" font-size="11" font-style="italic" lengthAdjust="spacingAndGlyphs" textLength="60" x="825" y="274.0151">timestamp</text><text fill="#000000" font-family="sans-serif" font-size="11" lengthAdjust="spacingAndGlyphs" textLength="0" x="781" y="286.8198"/><text fill="#000000" font-family="sans-serif" font-size="11" font-style="italic" lengthAdjust="spacingAndGlyphs" textLength="78" x="777" y="299.6245">+ 22 columns</text><!--class ddbranch--><rect fill="#FEFECE" filter="url(#fq5hrmafwg0vm)" height="91.2188" id="ddbranch" style="stroke: #A80036; stroke-width: 1.5;" width="120" x="218" y="596"/><ellipse cx="245.6" cy="612" fill="#FFAAAA" rx="11" ry="11" style="stroke: #A80036; stroke-width: 1.0;"/><path d="M246.4438,618.75 L243.9906,618.75 L243.9906,608.5 L240.85,608.5 L240.85,606.3594 L249.5844,606.3594 L249.5844,608.5 L246.4438,608.5 L246.4438,618.75 Z "/><text fill="#000000" font-family="sans-serif" font-size="12" lengthAdjust="spacingAndGlyphs" textLength="60" x="262.4" y="616.1543">ddbranch</text><line style="stroke: #A80036; stroke-width: 1.5;" x1="219" x2="337" y1="628" y2="628"/><text fill="#000000" font-family="sans-serif" font-size="11" font-weight="bold" lengthAdjust="spacingAndGlyphs" textLength="44" x="224" y="642.2104">tstamp</text><text fill="#000000" font-family="sans-serif" font-size="11" lengthAdjust="spacingAndGlyphs" textLength="0" x="272" y="642.2104"/><text fill="#000000" font-family="sans-serif" font-size="11" font-style="italic" lengthAdjust="spacingAndGlyphs" textLength="60" x="272" y="642.2104">timestamp</text><text fill="#000000" font-family="sans-serif" font-size="11" lengthAdjust="spacingAndGlyphs" text-decoration="underline" textLength="49" x="224" y="655.0151">bank_ref</text><text fill="#000000" font-family="sans-serif" font-size="11" lengthAdjust="spacingAndGlyphs" textLength="0" x="277" y="655.0151"/><text fill="#000000" font-family="sans-serif" font-size="11" font-style="italic" lengthAdjust="spacingAndGlyphs" textLength="47" x="277" y="655.0151">char[10]</text><text fill="#000000" font-family="sans-serif" font-size="11" lengthAdjust="spacingAndGlyphs" textLength="0" x="228" y="667.8198"/><text fill="#000000" font-family="sans-serif" font-size="11" font-style="italic" lengthAdjust="spacingAndGlyphs" textLength="71" x="224" y="680.6245">+ 8 columns</text><!--class ddsched--><rect fill="#FEFECE" filter="url(#fq5hrmafwg0vm)" height="116.8281" id="ddsched" style="stroke: #A80036; stroke-width: 1.5;" width="132" x="852" y="8"/><ellipse cx="887.7" cy="24" fill="#FFAAAA" rx="11" ry="11" style="stroke: #A80036; stroke-width: 1.0;"/><path d="M888.5438,30.75 L886.0906,30.75 L886.0906,20.5 L882.95,20.5 L882.95,18.3594 L891.6844,18.3594 L891.6844,20.5 L888.5438,20.5 L888.5438,30.75 Z "/><text fill="#000000" font-family="sans-serif" font-size="12" lengthAdjust="spacingAndGlyphs" textLength="54" x="906.3" y="28.1543">ddsched</text><line style="stroke: #A80036; stroke-width: 1.5;" x1="853" x2="983" y1="40" y2="40"/><text fill="#000000" font-family="sans-serif" font-size="11" font-weight="bold" lengthAdjust="spacingAndGlyphs" textLength="44" x="858" y="54.2104">tstamp</text><text fill="#000000" font-family="sans-serif" font-size="11" lengthAdjust="spacingAndGlyphs" textLength="0" x="906" y="54.2104"/><text fill="#000000" font-family="sans-serif" font-size="11" font-style="italic" lengthAdjust="spacingAndGlyphs" textLength="60" x="906" y="54.2104">timestamp</text><text fill="#000000" font-family="sans-serif" font-size="11" lengthAdjust="spacingAndGlyphs" text-decoration="underline" textLength="45" x="858" y="67.0151">batchno</text><text fill="#000000" font-family="sans-serif" font-size="11" lengthAdjust="spacingAndGlyphs" textLength="0" x="907" y="67.0151"/><text fill="#000000" font-family="sans-serif" font-size="11" font-style="italic" lengthAdjust="spacingAndGlyphs" textLength="29" x="907" y="67.0151">int[4]</text><text fill="#000000" font-family="sans-serif" font-size="11" lengthAdjust="spacingAndGlyphs" text-decoration="underline" textLength="69" x="858" y="79.8198">ddagree_ref</text><text fill="#000000" font-family="sans-serif" font-size="11" lengthAdjust="spacingAndGlyphs" textLength="0" x="931" y="79.8198"/><text fill="#000000" font-family="sans-serif" font-size="11" font-style="italic" lengthAdjust="spacingAndGlyphs" textLength="47" x="931" y="79.8198">char[20]</text><text fill="#000000" font-family="sans-serif" font-size="11" lengthAdjust="spacingAndGlyphs" text-decoration="underline" textLength="40" x="858" y="92.6245">tag_ref</text><text fill="#000000" font-family="sans-serif" font-size="11" lengthAdjust="spacingAndGlyphs" textLength="0" x="902" y="92.6245"/><text fill="#000000" font-family="sans-serif" font-size="11" font-style="italic" lengthAdjust="spacingAndGlyphs" textLength="47" x="902" y="92.6245">char[11]</text><text fill="#000000" font-family="sans-serif" font-size="11" lengthAdjust="spacingAndGlyphs" textLength="0" x="862" y="105.4292"/><text fill="#000000" font-family="sans-serif" font-size="11" font-style="italic" lengthAdjust="spacingAndGlyphs" textLength="78" x="858" y="118.2339">+ 20 columns</text><!--class ddschedver--><rect fill="#FEFECE" filter="url(#fq5hrmafwg0vm)" height="91.2188" id="ddschedver" style="stroke: #A80036; stroke-width: 1.5;" width="132" x="184" y="21"/><ellipse cx="211.15" cy="37" fill="#FFAAAA" rx="11" ry="11" style="stroke: #A80036; stroke-width: 1.0;"/><path d="M211.9938,43.75 L209.5406,43.75 L209.5406,33.5 L206.4,33.5 L206.4,31.3594 L215.1344,31.3594 L215.1344,33.5 L211.9938,33.5 L211.9938,43.75 Z "/><text fill="#000000" font-family="sans-serif" font-size="12" lengthAdjust="spacingAndGlyphs" textLength="73" x="227.85" y="41.1543">ddschedver</text><line style="stroke: #A80036; stroke-width: 1.5;" x1="185" x2="315" y1="53" y2="53"/><text fill="#000000" font-family="sans-serif" font-size="11" font-weight="bold" lengthAdjust="spacingAndGlyphs" textLength="44" x="190" y="67.2104">tstamp</text><text fill="#000000" font-family="sans-serif" font-size="11" lengthAdjust="spacingAndGlyphs" textLength="0" x="238" y="67.2104"/><text fill="#000000" font-family="sans-serif" font-size="11" font-style="italic" lengthAdjust="spacingAndGlyphs" textLength="60" x="238" y="67.2104">timestamp</text><text fill="#000000" font-family="sans-serif" font-size="11" lengthAdjust="spacingAndGlyphs" text-decoration="underline" textLength="69" x="190" y="80.0151">ddagree_ref</text><text fill="#000000" font-family="sans-serif" font-size="11" lengthAdjust="spacingAndGlyphs" textLength="0" x="263" y="80.0151"/><text fill="#000000" font-family="sans-serif" font-size="11" font-style="italic" lengthAdjust="spacingAndGlyphs" textLength="47" x="263" y="80.0151">char[20]</text><text fill="#000000" font-family="sans-serif" font-size="11" lengthAdjust="spacingAndGlyphs" textLength="0" x="194" y="92.8198"/><text fill="#000000" font-family="sans-serif" font-size="11" font-style="italic" lengthAdjust="spacingAndGlyphs" textLength="71" x="190" y="105.6245">+ 7 columns</text><!--class ddtrans--><rect fill="#FEFECE" filter="url(#fq5hrmafwg0vm)" height="116.8281" id="ddtrans" style="stroke: #A80036; stroke-width: 1.5;" width="132" x="565" y="8"/><ellipse cx="602.95" cy="24" fill="#FFAAAA" rx="11" ry="11" style="stroke: #A80036; stroke-width: 1.0;"/><path d="M603.7938,30.75 L601.3406,30.75 L601.3406,20.5 L598.2,20.5 L598.2,18.3594 L606.9344,18.3594 L606.9344,20.5 L603.7938,20.5 L603.7938,30.75 Z "/><text fill="#000000" font-family="sans-serif" font-size="12" lengthAdjust="spacingAndGlyphs" textLength="49" x="622.05" y="28.1543">ddtrans</text><line style="stroke: #A80036; stroke-width: 1.5;" x1="566" x2="696" y1="40" y2="40"/><text fill="#000000" font-family="sans-serif" font-size="11" font-weight="bold" lengthAdjust="spacingAndGlyphs" textLength="44" x="571" y="54.2104">tstamp</text><text fill="#000000" font-family="sans-serif" font-size="11" lengthAdjust="spacingAndGlyphs" textLength="0" x="619" y="54.2104"/><text fill="#000000" font-family="sans-serif" font-size="11" font-style="italic" lengthAdjust="spacingAndGlyphs" textLength="60" x="619" y="54.2104">timestamp</text><text fill="#000000" font-family="sans-serif" font-size="11" lengthAdjust="spacingAndGlyphs" text-decoration="underline" textLength="69" x="571" y="67.0151">ddagree_ref</text><text fill="#000000" font-family="sans-serif" font-size="11" lengthAdjust="spacingAndGlyphs" textLength="0" x="644" y="67.0151"/><text fill="#000000" font-family="sans-serif" font-size="11" font-style="italic" lengthAdjust="spacingAndGlyphs" textLength="47" x="644" y="67.0151">char[20]</text><text fill="#000000" font-family="sans-serif" font-size="11" lengthAdjust="spacingAndGlyphs" text-decoration="underline" textLength="59" x="571" y="79.8198">ddbatchno</text><text fill="#000000" font-family="sans-serif" font-size="11" lengthAdjust="spacingAndGlyphs" textLength="0" x="634" y="79.8198"/><text fill="#000000" font-family="sans-serif" font-size="11" font-style="italic" lengthAdjust="spacingAndGlyphs" textLength="29" x="634" y="79.8198">int[4]</text><text fill="#000000" font-family="sans-serif" font-size="11" lengthAdjust="spacingAndGlyphs" text-decoration="underline" textLength="40" x="571" y="92.6245">tag_ref</text><text fill="#000000" font-family="sans-serif" font-size="11" lengthAdjust="spacingAndGlyphs" textLength="0" x="615" y="92.6245"/><text fill="#000000" font-family="sans-serif" font-size="11" font-style="italic" lengthAdjust="spacingAndGlyphs" textLength="47" x="615" y="92.6245">char[11]</text><text fill="#000000" font-family="sans-serif" font-size="11" lengthAdjust="spacingAndGlyphs" textLength="0" x="575" y="105.4292"/><text fill="#000000" font-family="sans-serif" font-size="11" font-style="italic" lengthAdjust="spacingAndGlyphs" textLength="78" x="571" y="118.2339">+ 18 columns</text><!--class tenagree--><rect fill="#FEFECE" filter="url(#fq5hrmafwg0vm)" height="40" id="tenagree" style="stroke: #A80036; stroke-width: 1.5;" width="90" x="426" y="621.5"/><ellipse cx="441" cy="637.5" fill="#ADD1B2" rx="11" ry="11" style="stroke: #A80036; stroke-width: 1.0;"/><path d="M443.9688,643.1406 Q443.3906,643.4375 442.75,643.5859 Q442.1094,643.7344 441.4063,643.7344 Q438.9063,643.7344 437.5859,642.0859 Q436.2656,640.4375 436.2656,637.3125 Q436.2656,634.1875 437.5859,632.5313 Q438.9063,630.875 441.4063,630.875 Q442.1094,630.875 442.7578,631.0313 Q443.4063,631.1875 443.9688,631.4844 L443.9688,634.2031 Q443.3438,633.625 442.75,633.3516 Q442.1563,633.0781 441.5313,633.0781 Q440.1875,633.0781 439.5,634.1484 Q438.8125,635.2188 438.8125,637.3125 Q438.8125,639.4063 439.5,640.4766 Q440.1875,641.5469 441.5313,641.5469 Q442.1563,641.5469 442.75,641.2734 Q443.3438,641 443.9688,640.4219 L443.9688,643.1406 Z "/><text fill="#000000" font-family="sans-serif" font-size="12" lengthAdjust="spacingAndGlyphs" textLength="58" x="455" y="641.6543">tenagree</text><line style="stroke: #A80036; stroke-width: 1.5;" x1="427" x2="515" y1="653.5" y2="653.5"/><!--class househ--><rect fill="#FEFECE" filter="url(#fq5hrmafwg0vm)" height="40" id="househ" style="stroke: #A80036; stroke-width: 1.5;" width="79" x="103.5" y="621.5"/><ellipse cx="118.5" cy="637.5" fill="#ADD1B2" rx="11" ry="11" style="stroke: #A80036; stroke-width: 1.0;"/><path d="M121.4688,643.1406 Q120.8906,643.4375 120.25,643.5859 Q119.6094,643.7344 118.9063,643.7344 Q116.4063,643.7344 115.0859,642.0859 Q113.7656,640.4375 113.7656,637.3125 Q113.7656,634.1875 115.0859,632.5313 Q116.4063,630.875 118.9063,630.875 Q119.6094,630.875 120.2578,631.0313 Q120.9063,631.1875 121.4688,631.4844 L121.4688,634.2031 Q120.8438,633.625 120.25,633.3516 Q119.6563,633.0781 119.0313,633.0781 Q117.6875,633.0781 117,634.1484 Q116.3125,635.2188 116.3125,637.3125 Q116.3125,639.4063 117,640.4766 Q117.6875,641.5469 119.0313,641.5469 Q119.6563,641.5469 120.25,641.2734 Q120.8438,641 121.4688,640.4219 L121.4688,643.1406 Z "/><text fill="#000000" font-family="sans-serif" font-size="12" lengthAdjust="spacingAndGlyphs" textLength="47" x="132.5" y="641.6543">househ</text><line style="stroke: #A80036; stroke-width: 1.5;" x1="104.5" x2="181.5" y1="653.5" y2="653.5"/><!--link ddagacc to ddagree--><path d="M120.79,118.661 C138.183,136.804 158.966,156.535 180,172 C208.545,192.987 242.818,211.807 272.943,226.566 " fill="none" id="ddagacc-ddagree" style="stroke: #A80036; stroke-width: 1.0;"/><polygon fill="#A80036" points="277.741,228.9,271.3969,221.3666,273.2446,226.7132,267.898,228.5609,277.741,228.9" style="stroke: #A80036; stroke-width: 1.0;"/><text fill="#000000" font-family="sans-serif" font-size="13" lengthAdjust="spacingAndGlyphs" textLength="77" x="181" y="168.0669">ddagree_ref</text><!--link ddagacc to tenagree--><path d="M62.6536,118.543 C38.2473,225.087 1.1652,469.264 144,566 C222.427,619.115 263.313,572.22 355,596 C378.099,601.991 402.898,611.115 423.613,619.545 " fill="none" id="ddagacc-tenagree" style="stroke: #A80036; stroke-width: 1.0;"/><polygon fill="#A80036" points="428.24,621.444,421.4328,614.3263,423.6145,619.5455,418.3952,621.7271,428.24,621.444" style="stroke: #A80036; stroke-width: 1.0;"/><text fill="#000000" font-family="sans-serif" font-size="13" lengthAdjust="spacingAndGlyphs" textLength="45" x="43" y="362.0669">tag_ref</text><!--link ddaghist to ddagree--><path d="M389.195,118.88 C380.269,130.041 371.96,142.326 366,155 C359.929,167.908 355.885,182.576 353.195,196.755 " fill="none" id="ddaghist-ddagree" style="stroke: #A80036; stroke-width: 1.0;"/><polygon fill="#A80036" points="352.265,201.953,357.7886,193.7989,353.1462,197.0313,349.9138,192.3889,352.265,201.953" style="stroke: #A80036; stroke-width: 1.0;"/><text fill="#000000" font-family="sans-serif" font-size="13" lengthAdjust="spacingAndGlyphs" textLength="77" x="367" y="168.0669">ddagree_ref</text><!--link ddaghist to tenagree--><path d="M446.09,118.826 C447.156,130.696 448.199,143.281 449,155 C461.054,331.388 468.114,544.295 470.28,615.762 " fill="none" id="ddaghist-tenagree" style="stroke: #A80036; stroke-width: 1.0;"/><polygon fill="#A80036" points="470.44,621.056,474.1682,611.94,470.29,616.0583,466.1718,612.1801,470.44,621.056" style="stroke: #A80036; stroke-width: 1.0;"/><text fill="#000000" font-family="sans-serif" font-size="13" lengthAdjust="spacingAndGlyphs" textLength="45" x="462" y="362.0669">tag_ref</text><!--link ddagree to ddbankacc--><path d="M303.9,319.215 C286.459,342.04 266.335,368.377 248.406,391.841 " fill="none" id="ddagree-ddbankacc" style="stroke: #A80036; stroke-width: 1.0;"/><polygon fill="#A80036" points="245.318,395.883,253.9607,391.1603,248.3538,391.9101,247.604,386.3031,245.318,395.883" style="stroke: #A80036; stroke-width: 1.0;"/><text fill="#000000" font-family="sans-serif" font-size="13" lengthAdjust="spacingAndGlyphs" textLength="60" x="279" y="362.0669">bank_acc</text><!--link ddagree to ddbacsco--><path d="M350.96,319.215 C352.385,347.011 354.078,380.014 355.446,406.694 " fill="none" id="ddagree-ddbacsco" style="stroke: #A80036; stroke-width: 1.0;"/><polygon fill="#A80036" points="355.715,411.943,359.2496,402.7502,355.4593,406.9495,351.26,403.1593,355.715,411.943" style="stroke: #A80036; stroke-width: 1.0;"/><text fill="#000000" font-family="sans-serif" font-size="13" lengthAdjust="spacingAndGlyphs" textLength="47" x="355" y="362.0669">bco_ref</text><!--link ddbankacc to househ--><path d="M166.196,519.255 C161.896,528.998 157.962,539.127 155,549 C148.351,571.163 145.385,597.44 144.062,616.136 " fill="none" id="ddbankacc-househ" style="stroke: #A80036; stroke-width: 1.0;"/><polygon fill="#A80036" points="143.731,621.199,148.3112,612.48,144.0581,616.2097,140.3283,611.9566,143.731,621.199" style="stroke: #A80036; stroke-width: 1.0;"/><text fill="#000000" font-family="sans-serif" font-size="13" lengthAdjust="spacingAndGlyphs" textLength="63" x="156" y="562.0669">house_ref</text><!--link ddbankacc to ddbranch--><path d="M225.306,519.103 C235.489,542.562 246.993,569.066 256.649,591.311 " fill="none" id="ddbankacc-ddbranch" style="stroke: #A80036; stroke-width: 1.0;"/><polygon fill="#A80036" points="258.68,595.991,258.764,586.1425,256.6884,591.4048,251.4261,589.3291,258.68,595.991" style="stroke: #A80036; stroke-width: 1.0;"/><text fill="#000000" font-family="sans-serif" font-size="13" lengthAdjust="spacingAndGlyphs" textLength="63" x="247" y="562.0669">sort_code</text><!--link ddbankacc to tenagree--><path d="M263.233,507.155 C268.866,511.215 274.51,515.212 280,519 C332.84,555.464 396.019,594.866 434.825,618.608 " fill="none" id="ddbankacc-tenagree" style="stroke: #A80036; stroke-width: 1.0;"/><polygon fill="#A80036" points="439.434,621.425,433.8395,613.3194,435.1673,618.8182,429.6685,620.146,439.434,621.425" style="stroke: #A80036; stroke-width: 1.0;"/><text fill="#000000" font-family="sans-serif" font-size="13" lengthAdjust="spacingAndGlyphs" textLength="45" x="349" y="562.0669">tag_ref</text><!--link ddbranch to ddbank--><path d="M278,687.422 C278,709.471 278,736.097 278,758.7598 " fill="none" id="ddbranch-ddbank" style="stroke: #A80036; stroke-width: 1.0;"/><polygon fill="#A80036" points="278,763.83,282,754.83,278,758.83,274,754.83,278,763.83" style="stroke: #A80036; stroke-width: 1.0;"/><text fill="#000000" font-family="sans-serif" font-size="13" lengthAdjust="spacingAndGlyphs" textLength="55" x="279" y="730.0669">bank_ref</text><!--link ddsched to ddbatch--><path d="M898.218,125.057 C892.456,140.487 885.854,157.035 879,172 C873.217,184.627 866.35,197.925 859.644,210.236 " fill="none" id="ddsched-ddbatch" style="stroke: #A80036; stroke-width: 1.0;"/><polygon fill="#A80036" points="857.183,214.724,865.0177,208.756,859.5872,210.3399,858.0032,204.9094,857.183,214.724" style="stroke: #A80036; stroke-width: 1.0;"/><text fill="#000000" font-family="sans-serif" font-size="13" lengthAdjust="spacingAndGlyphs" textLength="128" x="887" y="168.0669">batchno: ddbatchno</text><!--link ddsched to ddagree--><path d="M851.932,114.78 C817.683,138.553 779.109,163.993 760,172 C647.919,218.965 507.729,241.828 423.16,252.09 " fill="none" id="ddsched-ddagree" style="stroke: #A80036; stroke-width: 1.0;"/><polygon fill="#A80036" points="418.173,252.688,427.5855,255.5872,423.1374,252.0923,426.6323,247.6442,418.173,252.688" style="stroke: #A80036; stroke-width: 1.0;"/><text fill="#000000" font-family="sans-serif" font-size="13" lengthAdjust="spacingAndGlyphs" textLength="77" x="788" y="168.0669">ddagree_ref</text><!--link ddsched to tenagree--><path d="M984.181,99.594 C1011.26,117.682 1034.15,142.56 1024,172 C940.687,413.709 641.267,566.862 521.265,619.768 " fill="none" id="ddsched-tenagree" style="stroke: #A80036; stroke-width: 1.0;"/><polygon fill="#A80036" points="516.379,621.91,526.2277,621.9574,520.9578,619.9013,523.0139,614.6314,516.379,621.91" style="stroke: #A80036; stroke-width: 1.0;"/><text fill="#000000" font-family="sans-serif" font-size="13" lengthAdjust="spacingAndGlyphs" textLength="45" x="912" y="362.0669">tag_ref</text><!--link ddschedver to ddagree--><path d="M254.875,112.08 C258.201,131.251 263.756,153.464 273,172 C277.295,180.611 282.623,189.075 288.444,197.143 " fill="none" id="ddschedver-ddagree" style="stroke: #A80036; stroke-width: 1.0;"/><polygon fill="#A80036" points="291.726,201.582,289.5924,191.967,288.7537,197.5614,283.1594,196.7227,291.726,201.582" style="stroke: #A80036; stroke-width: 1.0;"/><text fill="#000000" font-family="sans-serif" font-size="13" lengthAdjust="spacingAndGlyphs" textLength="77" x="274" y="168.0669">ddagree_ref</text><!--link ddtrans to ddagree--><path d="M564.649,112.515 C522.075,141.399 466.716,178.958 422.615,208.878 " fill="none" id="ddtrans-ddagree" style="stroke: #A80036; stroke-width: 1.0;"/><polygon fill="#A80036" points="418.383,211.749,428.0763,210.0057,422.5205,208.9416,423.5846,203.3858,418.383,211.749" style="stroke: #A80036; stroke-width: 1.0;"/><text fill="#000000" font-family="sans-serif" font-size="13" lengthAdjust="spacingAndGlyphs" textLength="77" x="499" y="168.0669">ddagree_ref</text><!--link ddtrans to ddbatch--><path d="M654.277,125.131 C662.666,141.488 673.269,158.502 686,172 C708.503,195.859 738.925,215.539 766.093,230.151 " fill="none" id="ddtrans-ddbatch" style="stroke: #A80036; stroke-width: 1.0;"/><polygon fill="#A80036" points="770.774,232.636,764.7004,224.8828,766.3578,230.2914,760.9491,231.9488,770.774,232.636" style="stroke: #A80036; stroke-width: 1.0;"/><text fill="#000000" font-family="sans-serif" font-size="13" lengthAdjust="spacingAndGlyphs" textLength="68" x="687" y="168.0669">ddbatchno</text><!--link ddtrans to tenagree--><path d="M616.138,125.311 C591.988,218.453 542.169,407.352 495,566 C489.955,582.968 483.83,601.959 479.03,616.52 " fill="none" id="ddtrans-tenagree" style="stroke: #A80036; stroke-width: 1.0;"/><polygon fill="#A80036" points="477.456,621.279,484.079,613.9896,479.0256,616.5317,476.4834,611.4783,477.456,621.279" style="stroke: #A80036; stroke-width: 1.0;"/><text fill="#000000" font-family="sans-serif" font-size="13" lengthAdjust="spacingAndGlyphs" textLength="45" x="558" y="362.0669">tag_ref</text><!--
@startuml
hide methods
hide stereotypes

class ddagacc as "ddagacc" << (T,#FFAAAA) >> {
<b>ddagree_ref</b> <i>char[20]</i>
<b>tstamp</b> <i>timestamp</i>
<u>tag_ref</u> <i>char[11]</i>

<i>+ 23 columns</i>
}


class ddaghist as "ddaghist" << (T,#FFAAAA) >> {
<b>tstamp</b> <i>timestamp</i>
<u>ddagree_ref</u> <i>char[20]</i>
<u>tag_ref</u> <i>char[11]</i>

<i>+ 12 columns</i>
}


class ddagree as "ddagree" << (T,#FFAAAA) >> {
<b>ddagree_ref</b> <i>char[20]</i>
<b>tstamp</b> <i>timestamp</i>
<u>bank_acc</u> <i>char[20]</i>
<u>bco_ref</u> <i>char[20]</i>

<i>+ 30 columns</i>
}


class ddbacsco as "ddbacsco" << (T,#FFAAAA) >> {
<b>bco_ref</b> <i>char[20]</i>
<b>tstamp</b> <i>timestamp</i>

<i>+ 22 columns</i>
}


class ddbank as "ddbank" << (T,#FFAAAA) >> {
<b>bank_ref</b> <i>char[10]</i>
<b>tstamp</b> <i>timestamp</i>

<i>+ 4 columns</i>
}


class ddbankacc as "ddbankacc\n(Bank Account)" << (T,#FFAAAA) >> {
<b>tstamp</b> <i>timestamp</i>
<u>house_ref</u> <i>char[10]</i>
<u>sort_code</u> <i>char[10]</i>
<u>tag_ref</u> <i>char[11]</i>

<i>+ 12 columns</i>
}


class ddbatch as "ddbatch" << (T,#FFAAAA) >> {
<b>ddbatchno</b> <i>int[4]</i>
<b>tstamp</b> <i>timestamp</i>

<i>+ 22 columns</i>
}


class ddbranch as "ddbranch" << (T,#FFAAAA) >> {
<b>tstamp</b> <i>timestamp</i>
<u>bank_ref</u> <i>char[10]</i>

<i>+ 8 columns</i>
}


class ddsched as "ddsched" << (T,#FFAAAA) >> {
<b>tstamp</b> <i>timestamp</i>
<u>batchno</u> <i>int[4]</i>
<u>ddagree_ref</u> <i>char[20]</i>
<u>tag_ref</u> <i>char[11]</i>

<i>+ 20 columns</i>
}


class ddschedver as "ddschedver" << (T,#FFAAAA) >> {
<b>tstamp</b> <i>timestamp</i>
<u>ddagree_ref</u> <i>char[20]</i>

<i>+ 7 columns</i>
}


class ddtrans as "ddtrans" << (T,#FFAAAA) >> {
<b>tstamp</b> <i>timestamp</i>
<u>ddagree_ref</u> <i>char[20]</i>
<u>ddbatchno</u> <i>int[4]</i>
<u>tag_ref</u> <i>char[11]</i>

<i>+ 18 columns</i>
}


ddagacc - -> ddagree : "ddagree_ref"
ddagacc - -> tenagree : "tag_ref"
ddaghist - -> ddagree : "ddagree_ref"
ddaghist - -> tenagree : "tag_ref"
ddagree - -> ddbankacc : "bank_acc"
ddagree - -> ddbacsco : "bco_ref"


ddbankacc - -> househ : "house_ref"
ddbankacc - -> ddbranch : "sort_code"
ddbankacc - -> tenagree : "tag_ref"

ddbranch - -> ddbank : "bank_ref"
ddsched - -> ddbatch : "batchno: ddbatchno"
ddsched - -> ddagree : "ddagree_ref"
ddsched - -> tenagree : "tag_ref"
ddschedver - -> ddagree : "ddagree_ref"
ddtrans - -> ddagree : "ddagree_ref"
ddtrans - -> ddbatch : "ddbatchno"
ddtrans - -> tenagree : "tag_ref"
@enduml

PlantUML version 1.2019.08(Sat Jul 13 19:25:14 UTC 2019)
(GPL source distribution)
Java Runtime: OpenJDK Runtime Environment
JVM: OpenJDK 64-Bit Server VM
Java Version: 1.8.0_131-8u131-b11-1~bpo8+1-b11
Operating System: Linux
OS Version: 4.15.0-1043-aws
Default Encoding: UTF-8
Language: en
Country: null
--></g></svg>