<?xml version="1.0" encoding="UTF-8" standalone="no"?><svg xmlns="http://www.w3.org/2000/svg" xmlns:xlink="http://www.w3.org/1999/xlink" contentScriptType="application/ecmascript" contentStyleType="text/css" height="561px" preserveAspectRatio="none" style="width:1384px;height:561px;" version="1.1" viewBox="0 0 1384 561" width="1384px" zoomAndPan="magnify"><defs><filter height="300%" id="f1u93d86mo50bw" width="300%" x="-1" y="-1"><feGaussianBlur result="blurOut" stdDeviation="2.0"/><feColorMatrix in="blurOut" result="blurOut2" type="matrix" values="0 0 0 0 0 0 0 0 0 0 0 0 0 0 0 0 0 0 .4 0"/><feOffset dx="4.0" dy="4.0" in="blurOut2" result="blurOut3"/><feBlend in="SourceGraphic" in2="blurOut3" mode="normal"/></filter></defs><g><!--class lauth--><rect fill="#FEFECE" filter="url(#f1u93d86mo50bw)" height="97.1563" id="lauth" style="stroke: #A80036; stroke-width: 1.5;" width="134" x="6" y="453"/><ellipse cx="21" cy="471.9688" fill="#FFAAAA" rx="11" ry="11" style="stroke: #A80036; stroke-width: 1.0;"/><path d="M21.8438,478.7188 L19.3906,478.7188 L19.3906,468.4688 L16.25,468.4688 L16.25,466.3281 L24.9844,466.3281 L24.9844,468.4688 L21.8438,468.4688 L21.8438,478.7188 Z "/><text fill="#000000" font-family="sans-serif" font-size="12" lengthAdjust="spacingAndGlyphs" textLength="32" x="70" y="469.1387">lauth</text><text fill="#000000" font-family="sans-serif" font-size="12" lengthAdjust="spacingAndGlyphs" textLength="102" x="35" y="483.1074">(Local Authority)</text><line style="stroke: #A80036; stroke-width: 1.5;" x1="7" x2="139" y1="490.9375" y2="490.9375"/><text fill="#000000" font-family="sans-serif" font-size="11" font-weight="bold" lengthAdjust="spacingAndGlyphs" textLength="36" x="12" y="505.1479">la_ref</text><text fill="#000000" font-family="sans-serif" font-size="11" lengthAdjust="spacingAndGlyphs" textLength="0" x="52" y="505.1479"/><text fill="#000000" font-family="sans-serif" font-size="11" font-style="italic" lengthAdjust="spacingAndGlyphs" textLength="40" x="52" y="505.1479">char[3]</text><text fill="#000000" font-family="sans-serif" font-size="11" font-weight="bold" lengthAdjust="spacingAndGlyphs" textLength="44" x="12" y="517.9526">tstamp</text><text fill="#000000" font-family="sans-serif" font-size="11" lengthAdjust="spacingAndGlyphs" textLength="0" x="60" y="517.9526"/><text fill="#000000" font-family="sans-serif" font-size="11" font-style="italic" lengthAdjust="spacingAndGlyphs" textLength="60" x="60" y="517.9526">timestamp</text><text fill="#000000" font-family="sans-serif" font-size="11" lengthAdjust="spacingAndGlyphs" textLength="0" x="16" y="530.7573"/><text fill="#000000" font-family="sans-serif" font-size="11" font-style="italic" lengthAdjust="spacingAndGlyphs" textLength="78" x="12" y="543.562">+ 12 columns</text><!--class lulevel--><rect fill="#FEFECE" filter="url(#f1u93d86mo50bw)" height="91.2188" id="lulevel" style="stroke: #A80036; stroke-width: 1.5;" width="120" x="175" y="456"/><ellipse cx="212.05" cy="472" fill="#FFAAAA" rx="11" ry="11" style="stroke: #A80036; stroke-width: 1.0;"/><path d="M212.8938,478.75 L210.4406,478.75 L210.4406,468.5 L207.3,468.5 L207.3,466.3594 L216.0344,466.3594 L216.0344,468.5 L212.8938,468.5 L212.8938,478.75 Z "/><text fill="#000000" font-family="sans-serif" font-size="12" lengthAdjust="spacingAndGlyphs" textLength="39" x="230.95" y="476.1543">lulevel</text><line style="stroke: #A80036; stroke-width: 1.5;" x1="176" x2="294" y1="488" y2="488"/><text fill="#000000" font-family="sans-serif" font-size="11" font-weight="bold" lengthAdjust="spacingAndGlyphs" textLength="36" x="181" y="502.2104">lu_ref</text><text fill="#000000" font-family="sans-serif" font-size="11" lengthAdjust="spacingAndGlyphs" textLength="0" x="221" y="502.2104"/><text fill="#000000" font-family="sans-serif" font-size="11" font-style="italic" lengthAdjust="spacingAndGlyphs" textLength="40" x="221" y="502.2104">char[1]</text><text fill="#000000" font-family="sans-serif" font-size="11" font-weight="bold" lengthAdjust="spacingAndGlyphs" textLength="44" x="181" y="515.0151">tstamp</text><text fill="#000000" font-family="sans-serif" font-size="11" lengthAdjust="spacingAndGlyphs" textLength="0" x="229" y="515.0151"/><text fill="#000000" font-family="sans-serif" font-size="11" font-style="italic" lengthAdjust="spacingAndGlyphs" textLength="60" x="229" y="515.0151">timestamp</text><text fill="#000000" font-family="sans-serif" font-size="11" lengthAdjust="spacingAndGlyphs" textLength="0" x="185" y="527.8198"/><text fill="#000000" font-family="sans-serif" font-size="11" font-style="italic" lengthAdjust="spacingAndGlyphs" textLength="71" x="181" y="540.6245">+ 8 columns</text><!--class postcode--><rect fill="#FEFECE" filter="url(#f1u93d86mo50bw)" height="91.2188" id="postcode" style="stroke: #A80036; stroke-width: 1.5;" width="128" x="330" y="456"/><ellipse cx="361.65" cy="472" fill="#FFAAAA" rx="11" ry="11" style="stroke: #A80036; stroke-width: 1.0;"/><path d="M362.4938,478.75 L360.0406,478.75 L360.0406,468.5 L356.9,468.5 L356.9,466.3594 L365.6344,466.3594 L365.6344,468.5 L362.4938,468.5 L362.4938,478.75 Z "/><text fill="#000000" font-family="sans-serif" font-size="12" lengthAdjust="spacingAndGlyphs" textLength="59" x="379.35" y="476.1543">postcode</text><line style="stroke: #A80036; stroke-width: 1.5;" x1="331" x2="457" y1="488" y2="488"/><text fill="#000000" font-family="sans-serif" font-size="11" font-weight="bold" lengthAdjust="spacingAndGlyphs" textLength="65" x="336" y="502.2104">post_code</text><text fill="#000000" font-family="sans-serif" font-size="11" lengthAdjust="spacingAndGlyphs" textLength="0" x="405" y="502.2104"/><text fill="#000000" font-family="sans-serif" font-size="11" font-style="italic" lengthAdjust="spacingAndGlyphs" textLength="47" x="405" y="502.2104">char[10]</text><text fill="#000000" font-family="sans-serif" font-size="11" font-weight="bold" lengthAdjust="spacingAndGlyphs" textLength="44" x="336" y="515.0151">tstamp</text><text fill="#000000" font-family="sans-serif" font-size="11" lengthAdjust="spacingAndGlyphs" textLength="0" x="384" y="515.0151"/><text fill="#000000" font-family="sans-serif" font-size="11" font-style="italic" lengthAdjust="spacingAndGlyphs" textLength="60" x="384" y="515.0151">timestamp</text><text fill="#000000" font-family="sans-serif" font-size="11" lengthAdjust="spacingAndGlyphs" textLength="0" x="340" y="527.8198"/><text fill="#000000" font-family="sans-serif" font-size="11" font-style="italic" lengthAdjust="spacingAndGlyphs" textLength="78" x="336" y="540.6245">+ 13 columns</text><!--class prop_hist--><rect fill="#FEFECE" filter="url(#f1u93d86mo50bw)" height="78.4141" id="prop_hist" style="stroke: #A80036; stroke-width: 1.5;" width="111" x="545.5" y="21"/><ellipse cx="569.95" cy="37" fill="#FFAAAA" rx="11" ry="11" style="stroke: #A80036; stroke-width: 1.0;"/><path d="M570.7938,43.75 L568.3406,43.75 L568.3406,33.5 L565.2,33.5 L565.2,31.3594 L573.9344,31.3594 L573.9344,33.5 L570.7938,33.5 L570.7938,43.75 Z "/><text fill="#000000" font-family="sans-serif" font-size="12" lengthAdjust="spacingAndGlyphs" textLength="58" x="586.05" y="41.1543">prop_hist</text><line style="stroke: #A80036; stroke-width: 1.5;" x1="546.5" x2="655.5" y1="53" y2="53"/><text fill="#000000" font-family="sans-serif" font-size="11" lengthAdjust="spacingAndGlyphs" text-decoration="underline" textLength="48" x="551.5" y="67.2104">prop_ref</text><text fill="#000000" font-family="sans-serif" font-size="11" lengthAdjust="spacingAndGlyphs" textLength="0" x="603.5" y="67.2104"/><text fill="#000000" font-family="sans-serif" font-size="11" font-style="italic" lengthAdjust="spacingAndGlyphs" textLength="47" x="603.5" y="67.2104">char[12]</text><text fill="#000000" font-family="sans-serif" font-size="11" lengthAdjust="spacingAndGlyphs" textLength="0" x="555.5" y="80.0151"/><text fill="#000000" font-family="sans-serif" font-size="11" font-style="italic" lengthAdjust="spacingAndGlyphs" textLength="71" x="551.5" y="92.8198">+ 9 columns</text><!--class propattr--><rect fill="#FEFECE" filter="url(#f1u93d86mo50bw)" height="104.0234" id="propattr" style="stroke: #A80036; stroke-width: 1.5;" width="120" x="390" y="8"/><ellipse cx="421.2" cy="24" fill="#FFAAAA" rx="11" ry="11" style="stroke: #A80036; stroke-width: 1.0;"/><path d="M422.0438,30.75 L419.5906,30.75 L419.5906,20.5 L416.45,20.5 L416.45,18.3594 L425.1844,18.3594 L425.1844,20.5 L422.0438,20.5 L422.0438,30.75 Z "/><text fill="#000000" font-family="sans-serif" font-size="12" lengthAdjust="spacingAndGlyphs" textLength="52" x="438.8" y="28.1543">propattr</text><line style="stroke: #A80036; stroke-width: 1.5;" x1="391" x2="509" y1="40" y2="40"/><text fill="#000000" font-family="sans-serif" font-size="11" font-weight="bold" lengthAdjust="spacingAndGlyphs" textLength="44" x="396" y="54.2104">tstamp</text><text fill="#000000" font-family="sans-serif" font-size="11" lengthAdjust="spacingAndGlyphs" textLength="0" x="444" y="54.2104"/><text fill="#000000" font-family="sans-serif" font-size="11" font-style="italic" lengthAdjust="spacingAndGlyphs" textLength="60" x="444" y="54.2104">timestamp</text><text fill="#000000" font-family="sans-serif" font-size="11" lengthAdjust="spacingAndGlyphs" text-decoration="underline" textLength="48" x="396" y="67.0151">prop_ref</text><text fill="#000000" font-family="sans-serif" font-size="11" lengthAdjust="spacingAndGlyphs" textLength="0" x="448" y="67.0151"/><text fill="#000000" font-family="sans-serif" font-size="11" font-style="italic" lengthAdjust="spacingAndGlyphs" textLength="47" x="448" y="67.0151">char[12]</text><text fill="#000000" font-family="sans-serif" font-size="11" lengthAdjust="spacingAndGlyphs" text-decoration="underline" textLength="40" x="396" y="79.8198">tag_ref</text><text fill="#000000" font-family="sans-serif" font-size="11" lengthAdjust="spacingAndGlyphs" textLength="0" x="440" y="79.8198"/><text fill="#000000" font-family="sans-serif" font-size="11" font-style="italic" lengthAdjust="spacingAndGlyphs" textLength="47" x="440" y="79.8198">char[11]</text><text fill="#000000" font-family="sans-serif" font-size="11" lengthAdjust="spacingAndGlyphs" textLength="0" x="400" y="92.6245"/><text fill="#000000" font-family="sans-serif" font-size="11" font-style="italic" lengthAdjust="spacingAndGlyphs" textLength="85" x="396" y="105.4292">+ 111 columns</text><!--class propattrdch--><rect fill="#FEFECE" filter="url(#f1u93d86mo50bw)" height="91.2188" id="propattrdch" style="stroke: #A80036; stroke-width: 1.5;" width="111" x="87.5" y="14.5"/><ellipse cx="104.3" cy="30.5" fill="#FFAAAA" rx="11" ry="11" style="stroke: #A80036; stroke-width: 1.0;"/><path d="M105.1438,37.25 L102.6906,37.25 L102.6906,27 L99.55,27 L99.55,24.8594 L108.2844,24.8594 L108.2844,27 L105.1438,27 L105.1438,37.25 Z "/><text fill="#000000" font-family="sans-serif" font-size="12" lengthAdjust="spacingAndGlyphs" textLength="75" x="118.7" y="34.6543">propattrdch</text><line style="stroke: #A80036; stroke-width: 1.5;" x1="88.5" x2="197.5" y1="46.5" y2="46.5"/><text fill="#000000" font-family="sans-serif" font-size="11" lengthAdjust="spacingAndGlyphs" text-decoration="underline" textLength="48" x="93.5" y="60.7104">prop_ref</text><text fill="#000000" font-family="sans-serif" font-size="11" lengthAdjust="spacingAndGlyphs" textLength="0" x="145.5" y="60.7104"/><text fill="#000000" font-family="sans-serif" font-size="11" font-style="italic" lengthAdjust="spacingAndGlyphs" textLength="47" x="145.5" y="60.7104">char[12]</text><text fill="#000000" font-family="sans-serif" font-size="11" lengthAdjust="spacingAndGlyphs" text-decoration="underline" textLength="40" x="93.5" y="73.5151">tag_ref</text><text fill="#000000" font-family="sans-serif" font-size="11" lengthAdjust="spacingAndGlyphs" textLength="0" x="137.5" y="73.5151"/><text fill="#000000" font-family="sans-serif" font-size="11" font-style="italic" lengthAdjust="spacingAndGlyphs" textLength="47" x="137.5" y="73.5151">char[11]</text><text fill="#000000" font-family="sans-serif" font-size="11" lengthAdjust="spacingAndGlyphs" textLength="0" x="97.5" y="86.3198"/><text fill="#000000" font-family="sans-serif" font-size="11" font-style="italic" lengthAdjust="spacingAndGlyphs" textLength="85" x="93.5" y="99.1245">+ 115 columns</text><!--class propattrh--><rect fill="#FEFECE" filter="url(#f1u93d86mo50bw)" height="78.4141" id="propattrh" style="stroke: #A80036; stroke-width: 1.5;" width="92" x="1040" y="21"/><ellipse cx="1055" cy="37" fill="#FFAAAA" rx="11" ry="11" style="stroke: #A80036; stroke-width: 1.0;"/><path d="M1055.8438,43.75 L1053.3906,43.75 L1053.3906,33.5 L1050.25,33.5 L1050.25,31.3594 L1058.9844,31.3594 L1058.9844,33.5 L1055.8438,33.5 L1055.8438,43.75 Z "/><text fill="#000000" font-family="sans-serif" font-size="12" lengthAdjust="spacingAndGlyphs" textLength="60" x="1069" y="41.1543">propattrh</text><line style="stroke: #A80036; stroke-width: 1.5;" x1="1041" x2="1131" y1="53" y2="53"/><text fill="#000000" font-family="sans-serif" font-size="11" lengthAdjust="spacingAndGlyphs" text-decoration="underline" textLength="46" x="1046" y="67.2104">task_ref</text><text fill="#000000" font-family="sans-serif" font-size="11" lengthAdjust="spacingAndGlyphs" textLength="0" x="1096" y="67.2104"/><text fill="#000000" font-family="sans-serif" font-size="11" font-style="italic" lengthAdjust="spacingAndGlyphs" textLength="29" x="1096" y="67.2104">int[4]</text><text fill="#000000" font-family="sans-serif" font-size="11" lengthAdjust="spacingAndGlyphs" textLength="0" x="1050" y="80.0151"/><text fill="#000000" font-family="sans-serif" font-size="11" font-style="italic" lengthAdjust="spacingAndGlyphs" textLength="78" x="1046" y="92.8198">+ 13 columns</text><!--class propdetr--><rect fill="#FEFECE" filter="url(#f1u93d86mo50bw)" height="91.2188" id="propdetr" style="stroke: #A80036; stroke-width: 1.5;" width="120" x="692" y="14.5"/><ellipse cx="721.85" cy="30.5" fill="#FFAAAA" rx="11" ry="11" style="stroke: #A80036; stroke-width: 1.0;"/><path d="M722.6938,37.25 L720.2406,37.25 L720.2406,27 L717.1,27 L717.1,24.8594 L725.8344,24.8594 L725.8344,27 L722.6938,27 L722.6938,37.25 Z "/><text fill="#000000" font-family="sans-serif" font-size="12" lengthAdjust="spacingAndGlyphs" textLength="55" x="739.15" y="34.6543">propdetr</text><line style="stroke: #A80036; stroke-width: 1.5;" x1="693" x2="811" y1="46.5" y2="46.5"/><text fill="#000000" font-family="sans-serif" font-size="11" font-weight="bold" lengthAdjust="spacingAndGlyphs" textLength="44" x="698" y="60.7104">tstamp</text><text fill="#000000" font-family="sans-serif" font-size="11" lengthAdjust="spacingAndGlyphs" textLength="0" x="746" y="60.7104"/><text fill="#000000" font-family="sans-serif" font-size="11" font-style="italic" lengthAdjust="spacingAndGlyphs" textLength="60" x="746" y="60.7104">timestamp</text><text fill="#000000" font-family="sans-serif" font-size="11" lengthAdjust="spacingAndGlyphs" text-decoration="underline" textLength="48" x="698" y="73.5151">prop_ref</text><text fill="#000000" font-family="sans-serif" font-size="11" lengthAdjust="spacingAndGlyphs" textLength="0" x="750" y="73.5151"/><text fill="#000000" font-family="sans-serif" font-size="11" font-style="italic" lengthAdjust="spacingAndGlyphs" textLength="47" x="750" y="73.5151">char[12]</text><text fill="#000000" font-family="sans-serif" font-size="11" lengthAdjust="spacingAndGlyphs" textLength="0" x="702" y="86.3198"/><text fill="#000000" font-family="sans-serif" font-size="11" font-style="italic" lengthAdjust="spacingAndGlyphs" textLength="78" x="698" y="99.1245">+ 12 columns</text><!--class property--><rect fill="#FEFECE" filter="url(#f1u93d86mo50bw)" height="186.7891" id="property" style="stroke: #A80036; stroke-width: 1.5;" width="130" x="488" y="189"/><ellipse cx="513.35" cy="207.9688" fill="#FFAAAA" rx="11" ry="11" style="stroke: #A80036; stroke-width: 1.0;"/><path d="M514.1938,214.7188 L511.7406,214.7188 L511.7406,204.4688 L508.6,204.4688 L508.6,202.3281 L517.3344,202.3281 L517.3344,204.4688 L514.1938,204.4688 L514.1938,214.7188 Z "/><text fill="#000000" font-family="sans-serif" font-size="12" lengthAdjust="spacingAndGlyphs" textLength="53" x="540.65" y="205.1387">property</text><text fill="#000000" font-family="sans-serif" font-size="12" lengthAdjust="spacingAndGlyphs" textLength="75" x="529.65" y="219.1074">(Properties)</text><line style="stroke: #A80036; stroke-width: 1.5;" x1="489" x2="617" y1="226.9375" y2="226.9375"/><text fill="#000000" font-family="sans-serif" font-size="11" font-weight="bold" lengthAdjust="spacingAndGlyphs" textLength="53" x="494" y="241.1479">prop_ref</text><text fill="#000000" font-family="sans-serif" font-size="11" lengthAdjust="spacingAndGlyphs" textLength="0" x="551" y="241.1479"/><text fill="#000000" font-family="sans-serif" font-size="11" font-style="italic" lengthAdjust="spacingAndGlyphs" textLength="47" x="551" y="241.1479">char[12]</text><text fill="#000000" font-family="sans-serif" font-size="11" font-weight="bold" lengthAdjust="spacingAndGlyphs" textLength="44" x="494" y="253.9526">tstamp</text><text fill="#000000" font-family="sans-serif" font-size="11" lengthAdjust="spacingAndGlyphs" textLength="0" x="542" y="253.9526"/><text fill="#000000" font-family="sans-serif" font-size="11" font-style="italic" lengthAdjust="spacingAndGlyphs" textLength="60" x="542" y="253.9526">timestamp</text><text fill="#000000" font-family="sans-serif" font-size="11" lengthAdjust="spacingAndGlyphs" text-decoration="underline" textLength="57" x="494" y="266.7573">house_ref</text><text fill="#000000" font-family="sans-serif" font-size="11" lengthAdjust="spacingAndGlyphs" textLength="0" x="555" y="266.7573"/><text fill="#000000" font-family="sans-serif" font-size="11" font-style="italic" lengthAdjust="spacingAndGlyphs" textLength="47" x="555" y="266.7573">char[10]</text><text fill="#000000" font-family="sans-serif" font-size="11" lengthAdjust="spacingAndGlyphs" text-decoration="underline" textLength="32" x="494" y="279.562">la_ref</text><text fill="#000000" font-family="sans-serif" font-size="11" lengthAdjust="spacingAndGlyphs" textLength="0" x="530" y="279.562"/><text fill="#000000" font-family="sans-serif" font-size="11" font-style="italic" lengthAdjust="spacingAndGlyphs" textLength="40" x="530" y="279.562">char[3]</text><text fill="#000000" font-family="sans-serif" font-size="11" lengthAdjust="spacingAndGlyphs" text-decoration="underline" textLength="59" x="494" y="292.3667">level_code</text><text fill="#000000" font-family="sans-serif" font-size="11" lengthAdjust="spacingAndGlyphs" textLength="0" x="557" y="292.3667"/><text fill="#000000" font-family="sans-serif" font-size="11" font-style="italic" lengthAdjust="spacingAndGlyphs" textLength="40" x="557" y="292.3667">char[1]</text><text fill="#000000" font-family="sans-serif" font-size="11" lengthAdjust="spacingAndGlyphs" text-decoration="underline" textLength="59" x="494" y="305.1714">ownership</text><text fill="#000000" font-family="sans-serif" font-size="11" lengthAdjust="spacingAndGlyphs" textLength="0" x="557" y="305.1714"/><text fill="#000000" font-family="sans-serif" font-size="11" font-style="italic" lengthAdjust="spacingAndGlyphs" textLength="47" x="557" y="305.1714">char[10]</text><text fill="#000000" font-family="sans-serif" font-size="11" lengthAdjust="spacingAndGlyphs" text-decoration="underline" textLength="58" x="494" y="317.9761">post_code</text><text fill="#000000" font-family="sans-serif" font-size="11" lengthAdjust="spacingAndGlyphs" textLength="0" x="556" y="317.9761"/><text fill="#000000" font-family="sans-serif" font-size="11" font-style="italic" lengthAdjust="spacingAndGlyphs" textLength="47" x="556" y="317.9761">char[10]</text><text fill="#000000" font-family="sans-serif" font-size="11" lengthAdjust="spacingAndGlyphs" text-decoration="underline" textLength="67" x="494" y="330.7808">scheme_ref</text><text fill="#000000" font-family="sans-serif" font-size="11" lengthAdjust="spacingAndGlyphs" textLength="0" x="565" y="330.7808"/><text fill="#000000" font-family="sans-serif" font-size="11" font-style="italic" lengthAdjust="spacingAndGlyphs" textLength="47" x="565" y="330.7808">char[20]</text><text fill="#000000" font-family="sans-serif" font-size="11" lengthAdjust="spacingAndGlyphs" text-decoration="underline" textLength="64" x="494" y="343.5854">warden_ref</text><text fill="#000000" font-family="sans-serif" font-size="11" lengthAdjust="spacingAndGlyphs" textLength="0" x="562" y="343.5854"/><text fill="#000000" font-family="sans-serif" font-size="11" font-style="italic" lengthAdjust="spacingAndGlyphs" textLength="40" x="562" y="343.5854">char[6]</text><text fill="#000000" font-family="sans-serif" font-size="11" lengthAdjust="spacingAndGlyphs" textLength="0" x="498" y="356.3901"/><text fill="#000000" font-family="sans-serif" font-size="11" font-style="italic" lengthAdjust="spacingAndGlyphs" textLength="85" x="494" y="369.1948">+ 237 columns</text><!--class prophier--><rect fill="#FEFECE" filter="url(#f1u93d86mo50bw)" height="97.1563" id="prophier" style="stroke: #A80036; stroke-width: 1.5;" width="158" x="847" y="11.5"/><ellipse cx="862" cy="30.4688" fill="#FFAAAA" rx="11" ry="11" style="stroke: #A80036; stroke-width: 1.0;"/><path d="M862.8438,37.2188 L860.3906,37.2188 L860.3906,26.9688 L857.25,26.9688 L857.25,24.8281 L865.9844,24.8281 L865.9844,26.9688 L862.8438,26.9688 L862.8438,37.2188 Z "/><text fill="#000000" font-family="sans-serif" font-size="12" lengthAdjust="spacingAndGlyphs" textLength="53" x="912.5" y="27.6387">prophier</text><text fill="#000000" font-family="sans-serif" font-size="12" lengthAdjust="spacingAndGlyphs" textLength="126" x="876" y="41.6074">(Property Hierarchy)</text><line style="stroke: #A80036; stroke-width: 1.5;" x1="848" x2="1004" y1="49.4375" y2="49.4375"/><text fill="#000000" font-family="sans-serif" font-size="11" font-weight="bold" lengthAdjust="spacingAndGlyphs" textLength="44" x="853" y="63.6479">tstamp</text><text fill="#000000" font-family="sans-serif" font-size="11" lengthAdjust="spacingAndGlyphs" textLength="0" x="901" y="63.6479"/><text fill="#000000" font-family="sans-serif" font-size="11" font-style="italic" lengthAdjust="spacingAndGlyphs" textLength="60" x="901" y="63.6479">timestamp</text><text fill="#000000" font-family="sans-serif" font-size="11" lengthAdjust="spacingAndGlyphs" text-decoration="underline" textLength="48" x="853" y="76.4526">prop_ref</text><text fill="#000000" font-family="sans-serif" font-size="11" lengthAdjust="spacingAndGlyphs" textLength="0" x="905" y="76.4526"/><text fill="#000000" font-family="sans-serif" font-size="11" font-style="italic" lengthAdjust="spacingAndGlyphs" textLength="47" x="905" y="76.4526">char[12]</text><text fill="#000000" font-family="sans-serif" font-size="11" lengthAdjust="spacingAndGlyphs" textLength="0" x="857" y="89.2573"/><text fill="#000000" font-family="sans-serif" font-size="11" font-style="italic" lengthAdjust="spacingAndGlyphs" textLength="71" x="853" y="102.062">+ 4 columns</text><!--class propown--><rect fill="#FEFECE" filter="url(#f1u93d86mo50bw)" height="78.4141" id="propown" style="stroke: #A80036; stroke-width: 1.5;" width="120" x="493" y="462.5"/><ellipse cx="523.3" cy="478.5" fill="#FFAAAA" rx="11" ry="11" style="stroke: #A80036; stroke-width: 1.0;"/><path d="M524.1438,485.25 L521.6906,485.25 L521.6906,475 L518.55,475 L518.55,472.8594 L527.2844,472.8594 L527.2844,475 L524.1438,475 L524.1438,485.25 Z "/><text fill="#000000" font-family="sans-serif" font-size="12" lengthAdjust="spacingAndGlyphs" textLength="54" x="540.7" y="482.6543">propown</text><line style="stroke: #A80036; stroke-width: 1.5;" x1="494" x2="612" y1="494.5" y2="494.5"/><text fill="#000000" font-family="sans-serif" font-size="11" font-weight="bold" lengthAdjust="spacingAndGlyphs" textLength="44" x="499" y="508.7104">tstamp</text><text fill="#000000" font-family="sans-serif" font-size="11" lengthAdjust="spacingAndGlyphs" textLength="0" x="547" y="508.7104"/><text fill="#000000" font-family="sans-serif" font-size="11" font-style="italic" lengthAdjust="spacingAndGlyphs" textLength="60" x="547" y="508.7104">timestamp</text><text fill="#000000" font-family="sans-serif" font-size="11" lengthAdjust="spacingAndGlyphs" textLength="0" x="503" y="521.5151"/><text fill="#000000" font-family="sans-serif" font-size="11" font-style="italic" lengthAdjust="spacingAndGlyphs" textLength="71" x="499" y="534.3198">+ 8 columns</text><!--class proptype--><rect fill="#FEFECE" filter="url(#f1u93d86mo50bw)" height="52.8047" id="proptype" style="stroke: #A80036; stroke-width: 1.5;" width="88" x="1167" y="33.5"/><ellipse cx="1182" cy="49.5" fill="#FFAAAA" rx="11" ry="11" style="stroke: #A80036; stroke-width: 1.0;"/><path d="M1182.8438,56.25 L1180.3906,56.25 L1180.3906,46 L1177.25,46 L1177.25,43.8594 L1185.9844,43.8594 L1185.9844,46 L1182.8438,46 L1182.8438,56.25 Z "/><text fill="#000000" font-family="sans-serif" font-size="12" lengthAdjust="spacingAndGlyphs" textLength="56" x="1196" y="53.6543">proptype</text><line style="stroke: #A80036; stroke-width: 1.5;" x1="1168" x2="1254" y1="65.5" y2="65.5"/><text fill="#000000" font-family="sans-serif" font-size="11" font-style="italic" lengthAdjust="spacingAndGlyphs" textLength="71" x="1173" y="79.7104">+ 7 columns</text><!--class prpoints--><rect fill="#FEFECE" filter="url(#f1u93d86mo50bw)" height="91.2188" id="prpoints" style="stroke: #A80036; stroke-width: 1.5;" width="120" x="235" y="14.5"/><ellipse cx="266.2" cy="30.5" fill="#FFAAAA" rx="11" ry="11" style="stroke: #A80036; stroke-width: 1.0;"/><path d="M267.0438,37.25 L264.5906,37.25 L264.5906,27 L261.45,27 L261.45,24.8594 L270.1844,24.8594 L270.1844,27 L267.0438,27 L267.0438,37.25 Z "/><text fill="#000000" font-family="sans-serif" font-size="12" lengthAdjust="spacingAndGlyphs" textLength="52" x="283.8" y="34.6543">prpoints</text><line style="stroke: #A80036; stroke-width: 1.5;" x1="236" x2="354" y1="46.5" y2="46.5"/><text fill="#000000" font-family="sans-serif" font-size="11" font-weight="bold" lengthAdjust="spacingAndGlyphs" textLength="44" x="241" y="60.7104">tstamp</text><text fill="#000000" font-family="sans-serif" font-size="11" lengthAdjust="spacingAndGlyphs" textLength="0" x="289" y="60.7104"/><text fill="#000000" font-family="sans-serif" font-size="11" font-style="italic" lengthAdjust="spacingAndGlyphs" textLength="60" x="289" y="60.7104">timestamp</text><text fill="#000000" font-family="sans-serif" font-size="11" lengthAdjust="spacingAndGlyphs" text-decoration="underline" textLength="48" x="241" y="73.5151">prop_ref</text><text fill="#000000" font-family="sans-serif" font-size="11" lengthAdjust="spacingAndGlyphs" textLength="0" x="293" y="73.5151"/><text fill="#000000" font-family="sans-serif" font-size="11" font-style="italic" lengthAdjust="spacingAndGlyphs" textLength="47" x="293" y="73.5151">char[12]</text><text fill="#000000" font-family="sans-serif" font-size="11" lengthAdjust="spacingAndGlyphs" textLength="0" x="245" y="86.3198"/><text fill="#000000" font-family="sans-serif" font-size="11" font-style="italic" lengthAdjust="spacingAndGlyphs" textLength="71" x="241" y="99.1245">+ 6 columns</text><!--class scheme--><rect fill="#FEFECE" filter="url(#f1u93d86mo50bw)" height="91.2188" id="scheme" style="stroke: #A80036; stroke-width: 1.5;" width="136" x="648" y="456"/><ellipse cx="687.75" cy="472" fill="#FFAAAA" rx="11" ry="11" style="stroke: #A80036; stroke-width: 1.0;"/><path d="M688.5938,478.75 L686.1406,478.75 L686.1406,468.5 L683,468.5 L683,466.3594 L691.7344,466.3594 L691.7344,468.5 L688.5938,468.5 L688.5938,478.75 Z "/><text fill="#000000" font-family="sans-serif" font-size="12" lengthAdjust="spacingAndGlyphs" textLength="49" x="707.25" y="476.1543">scheme</text><line style="stroke: #A80036; stroke-width: 1.5;" x1="649" x2="783" y1="488" y2="488"/><text fill="#000000" font-family="sans-serif" font-size="11" font-weight="bold" lengthAdjust="spacingAndGlyphs" textLength="73" x="654" y="502.2104">scheme_ref</text><text fill="#000000" font-family="sans-serif" font-size="11" lengthAdjust="spacingAndGlyphs" textLength="0" x="731" y="502.2104"/><text fill="#000000" font-family="sans-serif" font-size="11" font-style="italic" lengthAdjust="spacingAndGlyphs" textLength="47" x="731" y="502.2104">char[20]</text><text fill="#000000" font-family="sans-serif" font-size="11" font-weight="bold" lengthAdjust="spacingAndGlyphs" textLength="44" x="654" y="515.0151">tstamp</text><text fill="#000000" font-family="sans-serif" font-size="11" lengthAdjust="spacingAndGlyphs" textLength="0" x="702" y="515.0151"/><text fill="#000000" font-family="sans-serif" font-size="11" font-style="italic" lengthAdjust="spacingAndGlyphs" textLength="60" x="702" y="515.0151">timestamp</text><text fill="#000000" font-family="sans-serif" font-size="11" lengthAdjust="spacingAndGlyphs" textLength="0" x="658" y="527.8198"/><text fill="#000000" font-family="sans-serif" font-size="11" font-style="italic" lengthAdjust="spacingAndGlyphs" textLength="78" x="654" y="540.6245">+ 25 columns</text><!--class void--><rect fill="#FEFECE" filter="url(#f1u93d86mo50bw)" height="52.8047" id="void" style="stroke: #A80036; stroke-width: 1.5;" width="83" x="1290.5" y="33.5"/><ellipse cx="1317.2" cy="49.5" fill="#FFAAAA" rx="11" ry="11" style="stroke: #A80036; stroke-width: 1.0;"/><path d="M1318.0438,56.25 L1315.5906,56.25 L1315.5906,46 L1312.45,46 L1312.45,43.8594 L1321.1844,43.8594 L1321.1844,46 L1318.0438,46 L1318.0438,56.25 Z "/><text fill="#000000" font-family="sans-serif" font-size="12" lengthAdjust="spacingAndGlyphs" textLength="25" x="1333.8" y="53.6543">void</text><line style="stroke: #A80036; stroke-width: 1.5;" x1="1291.5" x2="1372.5" y1="65.5" y2="65.5"/><text fill="#000000" font-family="sans-serif" font-size="11" font-style="italic" lengthAdjust="spacingAndGlyphs" textLength="71" x="1296.5" y="79.7104">+ 8 columns</text><!--class warden--><rect fill="#FEFECE" filter="url(#f1u93d86mo50bw)" height="91.2188" id="warden" style="stroke: #A80036; stroke-width: 1.5;" width="128" x="819" y="456"/><ellipse cx="856.5" cy="472" fill="#FFAAAA" rx="11" ry="11" style="stroke: #A80036; stroke-width: 1.0;"/><path d="M857.3438,478.75 L854.8906,478.75 L854.8906,468.5 L851.75,468.5 L851.75,466.3594 L860.4844,466.3594 L860.4844,468.5 L857.3438,468.5 L857.3438,478.75 Z "/><text fill="#000000" font-family="sans-serif" font-size="12" lengthAdjust="spacingAndGlyphs" textLength="46" x="875.5" y="476.1543">warden</text><line style="stroke: #A80036; stroke-width: 1.5;" x1="820" x2="946" y1="488" y2="488"/><text fill="#000000" font-family="sans-serif" font-size="11" font-weight="bold" lengthAdjust="spacingAndGlyphs" textLength="44" x="825" y="502.2104">tstamp</text><text fill="#000000" font-family="sans-serif" font-size="11" lengthAdjust="spacingAndGlyphs" textLength="0" x="873" y="502.2104"/><text fill="#000000" font-family="sans-serif" font-size="11" font-style="italic" lengthAdjust="spacingAndGlyphs" textLength="60" x="873" y="502.2104">timestamp</text><text fill="#000000" font-family="sans-serif" font-size="11" font-weight="bold" lengthAdjust="spacingAndGlyphs" textLength="72" x="825" y="515.0151">warden_ref</text><text fill="#000000" font-family="sans-serif" font-size="11" lengthAdjust="spacingAndGlyphs" textLength="0" x="901" y="515.0151"/><text fill="#000000" font-family="sans-serif" font-size="11" font-style="italic" lengthAdjust="spacingAndGlyphs" textLength="40" x="901" y="515.0151">char[6]</text><text fill="#000000" font-family="sans-serif" font-size="11" lengthAdjust="spacingAndGlyphs" textLength="0" x="829" y="527.8198"/><text fill="#000000" font-family="sans-serif" font-size="11" font-style="italic" lengthAdjust="spacingAndGlyphs" textLength="71" x="825" y="540.6245">+ 9 columns</text><!--class tenagree--><rect fill="#FEFECE" filter="url(#f1u93d86mo50bw)" height="40" id="tenagree" style="stroke: #A80036; stroke-width: 1.5;" width="90" x="206" y="262.5"/><ellipse cx="221" cy="278.5" fill="#ADD1B2" rx="11" ry="11" style="stroke: #A80036; stroke-width: 1.0;"/><path d="M223.9688,284.1406 Q223.3906,284.4375 222.75,284.5859 Q222.1094,284.7344 221.4063,284.7344 Q218.9063,284.7344 217.5859,283.0859 Q216.2656,281.4375 216.2656,278.3125 Q216.2656,275.1875 217.5859,273.5313 Q218.9063,271.875 221.4063,271.875 Q222.1094,271.875 222.7578,272.0313 Q223.4063,272.1875 223.9688,272.4844 L223.9688,275.2031 Q223.3438,274.625 222.75,274.3516 Q222.1563,274.0781 221.5313,274.0781 Q220.1875,274.0781 219.5,275.1484 Q218.8125,276.2188 218.8125,278.3125 Q218.8125,280.4063 219.5,281.4766 Q220.1875,282.5469 221.5313,282.5469 Q222.1563,282.5469 222.75,282.2734 Q223.3438,282 223.9688,281.4219 L223.9688,284.1406 Z "/><text fill="#000000" font-family="sans-serif" font-size="12" lengthAdjust="spacingAndGlyphs" textLength="58" x="235" y="282.6543">tenagree</text><line style="stroke: #A80036; stroke-width: 1.5;" x1="207" x2="295" y1="294.5" y2="294.5"/><!--class rmtask--><rect fill="#FEFECE" filter="url(#f1u93d86mo50bw)" height="40" id="rmtask" style="stroke: #A80036; stroke-width: 1.5;" width="75" x="1048.5" y="262.5"/><ellipse cx="1063.5" cy="278.5" fill="#ADD1B2" rx="11" ry="11" style="stroke: #A80036; stroke-width: 1.0;"/><path d="M1066.4688,284.1406 Q1065.8906,284.4375 1065.25,284.5859 Q1064.6094,284.7344 1063.9063,284.7344 Q1061.4063,284.7344 1060.0859,283.0859 Q1058.7656,281.4375 1058.7656,278.3125 Q1058.7656,275.1875 1060.0859,273.5313 Q1061.4063,271.875 1063.9063,271.875 Q1064.6094,271.875 1065.2578,272.0313 Q1065.9063,272.1875 1066.4688,272.4844 L1066.4688,275.2031 Q1065.8438,274.625 1065.25,274.3516 Q1064.6563,274.0781 1064.0313,274.0781 Q1062.6875,274.0781 1062,275.1484 Q1061.3125,276.2188 1061.3125,278.3125 Q1061.3125,280.4063 1062,281.4766 Q1062.6875,282.5469 1064.0313,282.5469 Q1064.6563,282.5469 1065.25,282.2734 Q1065.8438,282 1066.4688,281.4219 L1066.4688,284.1406 Z "/><text fill="#000000" font-family="sans-serif" font-size="12" lengthAdjust="spacingAndGlyphs" textLength="43" x="1077.5" y="282.6543">rmtask</text><line style="stroke: #A80036; stroke-width: 1.5;" x1="1049.5" x2="1122.5" y1="294.5" y2="294.5"/><!--class househ--><rect fill="#FEFECE" filter="url(#f1u93d86mo50bw)" height="40" id="househ" style="stroke: #A80036; stroke-width: 1.5;" width="79" x="982.5" y="481.5"/><ellipse cx="997.5" cy="497.5" fill="#ADD1B2" rx="11" ry="11" style="stroke: #A80036; stroke-width: 1.0;"/><path d="M1000.4688,503.1406 Q999.8906,503.4375 999.25,503.5859 Q998.6094,503.7344 997.9063,503.7344 Q995.4063,503.7344 994.0859,502.0859 Q992.7656,500.4375 992.7656,497.3125 Q992.7656,494.1875 994.0859,492.5313 Q995.4063,490.875 997.9063,490.875 Q998.6094,490.875 999.2578,491.0313 Q999.9063,491.1875 1000.4688,491.4844 L1000.4688,494.2031 Q999.8438,493.625 999.25,493.3516 Q998.6563,493.0781 998.0313,493.0781 Q996.6875,493.0781 996,494.1484 Q995.3125,495.2188 995.3125,497.3125 Q995.3125,499.4063 996,500.4766 Q996.6875,501.5469 998.0313,501.5469 Q998.6563,501.5469 999.25,501.2734 Q999.8438,501 1000.4688,500.4219 L1000.4688,503.1406 Z "/><text fill="#000000" font-family="sans-serif" font-size="12" lengthAdjust="spacingAndGlyphs" textLength="47" x="1011.5" y="501.6543">househ</text><line style="stroke: #A80036; stroke-width: 1.5;" x1="983.5" x2="1060.5" y1="513.5" y2="513.5"/><!--link prop_hist to property--><path d="M592.694,99.156 C587.595,122.577 580.814,153.727 574.302,183.644 " fill="none" id="prop_hist-property" style="stroke: #A80036; stroke-width: 1.0;"/><polygon fill="#A80036" points="573.175,188.822,578.9967,180.878,574.2379,183.9363,571.1796,179.1774,573.175,188.822" style="stroke: #A80036; stroke-width: 1.0;"/><text fill="#000000" font-family="sans-serif" font-size="13" lengthAdjust="spacingAndGlyphs" textLength="53" x="584" y="155.0669">prop_ref</text><!--link propattr to property--><path d="M473.889,112.141 C483.904,133.58 495.895,159.252 507.478,184.048 " fill="none" id="propattr-property" style="stroke: #A80036; stroke-width: 1.0;"/><polygon fill="#A80036" points="509.636,188.667,509.4492,178.8199,507.519,184.1373,502.2016,182.2071,509.636,188.667" style="stroke: #A80036; stroke-width: 1.0;"/><text fill="#000000" font-family="sans-serif" font-size="13" lengthAdjust="spacingAndGlyphs" textLength="53" x="497" y="155.0669">prop_ref</text><!--link propattr to tenagree--><path d="M416.342,112.003 C405.349,127.563 392.691,144.406 380,159 C347.356,196.541 304.72,235.338 277.59,258.948 " fill="none" id="propattr-tenagree" style="stroke: #A80036; stroke-width: 1.0;"/><polygon fill="#A80036" points="273.703,262.319,283.123,259.4443,277.4804,259.0431,277.8815,253.4005,273.703,262.319" style="stroke: #A80036; stroke-width: 1.0;"/><text fill="#000000" font-family="sans-serif" font-size="13" lengthAdjust="spacingAndGlyphs" textLength="45" x="394" y="155.0669">tag_ref</text><!--link propattrdch to property--><path d="M182.041,105.504 C199.86,123.861 222.08,144.245 245,159 C255.566,165.802 395.142,220.367 482.732,254.339 " fill="none" id="propattrdch-property" style="stroke: #A80036; stroke-width: 1.0;"/><polygon fill="#A80036" points="487.643,256.244,480.6974,249.2613,482.9811,254.4367,477.8057,256.7203,487.643,256.244" style="stroke: #A80036; stroke-width: 1.0;"/><text fill="#000000" font-family="sans-serif" font-size="13" lengthAdjust="spacingAndGlyphs" textLength="53" x="246" y="155.0669">prop_ref</text><!--link propattrdch to tenagree--><path d="M133.713,105.668 C132.039,122.851 132.529,142.333 139,159 C155.302,200.99 193.453,237.374 220.693,259.342 " fill="none" id="propattrdch-tenagree" style="stroke: #A80036; stroke-width: 1.0;"/><polygon fill="#A80036" points="224.629,262.478,220.0816,253.7418,220.7181,259.3627,215.0972,259.9992,224.629,262.478" style="stroke: #A80036; stroke-width: 1.0;"/><text fill="#000000" font-family="sans-serif" font-size="13" lengthAdjust="spacingAndGlyphs" textLength="45" x="140" y="155.0669">tag_ref</text><!--link propattrh to rmtask--><path d="M1086,99.156 C1086,144.505 1086,218.833 1086,257.077 " fill="none" id="propattrh-rmtask" style="stroke: #A80036; stroke-width: 1.0;"/><polygon fill="#A80036" points="1086,262.45,1090,253.45,1086,257.45,1082,253.45,1086,262.45" style="stroke: #A80036; stroke-width: 1.0;"/><text fill="#000000" font-family="sans-serif" font-size="13" lengthAdjust="spacingAndGlyphs" textLength="51" x="1087" y="155.0669">task_ref</text><!--link propdetr to property--><path d="M711.729,105.621 C685.974,134.16 651.893,171.923 621.915,205.139 " fill="none" id="propdetr-property" style="stroke: #A80036; stroke-width: 1.0;"/><polygon fill="#A80036" points="618.281,209.166,627.2799,205.1635,621.6305,205.4537,621.3402,199.8043,618.281,209.166" style="stroke: #A80036; stroke-width: 1.0;"/><text fill="#000000" font-family="sans-serif" font-size="13" lengthAdjust="spacingAndGlyphs" textLength="53" x="678" y="155.0669">prop_ref</text><!--link property to househ--><path d="M618.052,301.669 C702.448,327.112 852.109,378.724 964,453 C975.296,460.4986 987.003,469.7598 996.916,478.1074 " fill="none" id="property-househ" style="stroke: #A80036; stroke-width: 1.0;"/><polygon fill="#A80036" points="1000.763,481.3772,996.4943,472.5015,996.9526,478.1397,991.3144,478.5981,1000.763,481.3772" style="stroke: #A80036; stroke-width: 1.0;"/><text fill="#000000" font-family="sans-serif" font-size="13" lengthAdjust="spacingAndGlyphs" textLength="63" x="914" y="419.0669">house_ref</text><!--link property to lauth--><path d="M487.882,308.805 C408.586,340.203 271.11,396.53 157,453 C152.92,455.0191 148.76,457.1447 144.582,459.3314 " fill="none" id="property-lauth" style="stroke: #A80036; stroke-width: 1.0;"/><polygon fill="#A80036" points="140.046,461.7261,149.8726,461.0644,144.4683,459.393,146.1397,453.9887,140.046,461.7261" style="stroke: #A80036; stroke-width: 1.0;"/><text fill="#000000" font-family="sans-serif" font-size="13" lengthAdjust="spacingAndGlyphs" textLength="35" x="255" y="419.0669">la_ref</text><!--link property to lulevel--><path d="M487.986,314.703 C443.259,337.424 383.423,370.356 335,406 C316.4,419.691 297.586,436.52 281.371,452.1645 " fill="none" id="property-lulevel" style="stroke: #A80036; stroke-width: 1.0;"/><polygon fill="#A80036" points="277.739,455.6918,286.9827,452.2926,281.3264,452.2089,281.4101,446.5527,277.739,455.6918" style="stroke: #A80036; stroke-width: 1.0;"/><text fill="#000000" font-family="sans-serif" font-size="13" lengthAdjust="spacingAndGlyphs" textLength="110" x="336" y="419.0669">level_code: lu_ref</text><!--link property to propown--><path d="M549.947,376.17 C549.736,391.802 549.707,407.863 550,423 C550.215,434.091 550.602,446.069 551.028,457.2155 " fill="none" id="property-propown" style="stroke: #A80036; stroke-width: 1.0;"/><polygon fill="#A80036" points="551.226,462.272,554.8701,453.1221,551.03,457.2758,546.8762,453.4357,551.226,462.272" style="stroke: #A80036; stroke-width: 1.0;"/><text fill="#000000" font-family="sans-serif" font-size="13" lengthAdjust="spacingAndGlyphs" textLength="121" x="551" y="419.0669">ownership: own_ref</text><!--link property to postcode--><path d="M487.87,372.388 C468.089,399.384 447.081,428.056 429.965,451.415 " fill="none" id="property-postcode" style="stroke: #A80036; stroke-width: 1.0;"/><polygon fill="#A80036" points="426.816,455.7133,435.3622,450.8182,429.7714,451.6803,428.9093,446.0895,426.816,455.7133" style="stroke: #A80036; stroke-width: 1.0;"/><text fill="#000000" font-family="sans-serif" font-size="13" lengthAdjust="spacingAndGlyphs" textLength="66" x="461" y="419.0669">post_code</text><!--link property to scheme--><path d="M618.143,338.366 C638.867,358.144 660.634,381.633 677,406 C686.237,419.753 693.923,436.04 699.961,451.1857 " fill="none" id="property-scheme" style="stroke: #A80036; stroke-width: 1.0;"/><polygon fill="#A80036" points="701.782,455.8452,702.232,446.0066,699.9622,451.1881,694.7807,448.9183,701.782,455.8452" style="stroke: #A80036; stroke-width: 1.0;"/><text fill="#000000" font-family="sans-serif" font-size="13" lengthAdjust="spacingAndGlyphs" textLength="75" x="688" y="419.0669">scheme_ref</text><!--link property to warden--><path d="M618.234,315.709 C662.859,338.76 722.642,371.676 772,406 C791.994,419.904 812.639,436.706 830.622,452.2641 " fill="none" id="property-warden" style="stroke: #A80036; stroke-width: 1.0;"/><polygon fill="#A80036" points="834.655,455.7709,830.4889,446.8466,830.8822,452.4898,825.239,452.8831,834.655,455.7709" style="stroke: #A80036; stroke-width: 1.0;"/><text fill="#000000" font-family="sans-serif" font-size="13" lengthAdjust="spacingAndGlyphs" textLength="70" x="796" y="419.0669">warden_ref</text><!--link prophier to property--><path d="M846.896,107.762 C780.382,147.083 686.22,202.747 622.549,240.386 " fill="none" id="prophier-property" style="stroke: #A80036; stroke-width: 1.0;"/><polygon fill="#A80036" points="618.018,243.064,627.8011,241.9277,622.3223,240.5197,623.7303,235.0409,618.018,243.064" style="stroke: #A80036; stroke-width: 1.0;"/><text fill="#000000" font-family="sans-serif" font-size="13" lengthAdjust="spacingAndGlyphs" textLength="53" x="785" y="155.0669">prop_ref</text><!--link prpoints to property--><path d="M296.957,105.936 C299.69,123.942 305.401,143.943 317,159 C358.294,212.602 429.669,244.982 483.141,262.87 " fill="none" id="prpoints-property" style="stroke: #A80036; stroke-width: 1.0;"/><polygon fill="#A80036" points="487.932,264.45,480.639,257.8309,483.1839,262.883,478.1318,265.4279,487.932,264.45" style="stroke: #A80036; stroke-width: 1.0;"/><text fill="#000000" font-family="sans-serif" font-size="13" lengthAdjust="spacingAndGlyphs" textLength="53" x="318" y="155.0669">prop_ref</text><!--
@startuml
hide methods
hide stereotypes

class lauth as "lauth\n(Local Authority)" << (T,#FFAAAA) >> {
<b>la_ref</b> <i>char[3]</i>
<b>tstamp</b> <i>timestamp</i>

<i>+ 12 columns</i>
}


class lulevel as "lulevel" << (T,#FFAAAA) >> {
<b>lu_ref</b> <i>char[1]</i>
<b>tstamp</b> <i>timestamp</i>

<i>+ 8 columns</i>
}


class postcode as "postcode" << (T,#FFAAAA) >> {
<b>post_code</b> <i>char[10]</i>
<b>tstamp</b> <i>timestamp</i>

<i>+ 13 columns</i>
}


class prop_hist as "prop_hist" << (T,#FFAAAA) >> {
<u>prop_ref</u> <i>char[12]</i>

<i>+ 9 columns</i>
}


class propattr as "propattr" << (T,#FFAAAA) >> {
<b>tstamp</b> <i>timestamp</i>
<u>prop_ref</u> <i>char[12]</i>
<u>tag_ref</u> <i>char[11]</i>

<i>+ 111 columns</i>
}


class propattrdch as "propattrdch" << (T,#FFAAAA) >> {
<u>prop_ref</u> <i>char[12]</i>
<u>tag_ref</u> <i>char[11]</i>

<i>+ 115 columns</i>
}


class propattrh as "propattrh" << (T,#FFAAAA) >> {
<u>task_ref</u> <i>int[4]</i>

<i>+ 13 columns</i>
}


class propdetr as "propdetr" << (T,#FFAAAA) >> {
<b>tstamp</b> <i>timestamp</i>
<u>prop_ref</u> <i>char[12]</i>

<i>+ 12 columns</i>
}


class property as "property\n(Properties)" << (T,#FFAAAA) >> {
<b>prop_ref</b> <i>char[12]</i>
<b>tstamp</b> <i>timestamp</i>
<u>house_ref</u> <i>char[10]</i>
<u>la_ref</u> <i>char[3]</i>
<u>level_code</u> <i>char[1]</i>
<u>ownership</u> <i>char[10]</i>
<u>post_code</u> <i>char[10]</i>
<u>scheme_ref</u> <i>char[20]</i>
<u>warden_ref</u> <i>char[6]</i>

<i>+ 237 columns</i>
}


class prophier as "prophier\n(Property Hierarchy)" << (T,#FFAAAA) >> {
<b>tstamp</b> <i>timestamp</i>
<u>prop_ref</u> <i>char[12]</i>

<i>+ 4 columns</i>
}


class propown as "propown" << (T,#FFAAAA) >> {
<b>tstamp</b> <i>timestamp</i>

<i>+ 8 columns</i>
}


class proptype as "proptype" << (T,#FFAAAA) >> {

<i>+ 7 columns</i>
}


class prpoints as "prpoints" << (T,#FFAAAA) >> {
<b>tstamp</b> <i>timestamp</i>
<u>prop_ref</u> <i>char[12]</i>

<i>+ 6 columns</i>
}


class scheme as "scheme" << (T,#FFAAAA) >> {
<b>scheme_ref</b> <i>char[20]</i>
<b>tstamp</b> <i>timestamp</i>

<i>+ 25 columns</i>
}


class void as "void" << (T,#FFAAAA) >> {

<i>+ 8 columns</i>
}


class warden as "warden" << (T,#FFAAAA) >> {
<b>tstamp</b> <i>timestamp</i>
<b>warden_ref</b> <i>char[6]</i>

<i>+ 9 columns</i>
}





prop_hist - -> property : "prop_ref"
propattr - -> property : "prop_ref"
propattr - -> tenagree : "tag_ref"
propattrdch - -> property : "prop_ref"
propattrdch - -> tenagree : "tag_ref"
propattrh - -> rmtask : "task_ref"
propdetr - -> property : "prop_ref"
property - -> househ : "house_ref"
property - -> lauth : "la_ref"
property - -> lulevel : "level_code: lu_ref"
property - -> propown : "ownership: own_ref"
property - -> postcode : "post_code"
property - -> scheme : "scheme_ref"
property - -> warden : "warden_ref"
prophier - -> property : "prop_ref"


prpoints - -> property : "prop_ref"



@enduml

PlantUML version 1.2019.08(Sat Jul 13 19:25:14 UTC 2019)
(GPL source distribution)
Java Runtime: OpenJDK Runtime Environment
JVM: OpenJDK 64-Bit Server VM
Java Version: 1.8.0_131-8u131-b11-1~bpo8+1-b11
Operating System: Linux
OS Version: 4.15.0-1043-aws
Default Encoding: UTF-8
Language: en
Country: null
--></g></svg>