<?xml version="1.0" encoding="UTF-8" standalone="no"?><svg xmlns="http://www.w3.org/2000/svg" xmlns:xlink="http://www.w3.org/1999/xlink" contentScriptType="application/ecmascript" contentStyleType="text/css" height="420px" preserveAspectRatio="none" style="width:270px;height:420px;" version="1.1" viewBox="0 0 270 420" width="270px" zoomAndPan="magnify"><defs><filter height="300%" id="f1ax8uw1sln0qu" width="300%" x="-1" y="-1"><feGaussianBlur result="blurOut" stdDeviation="2.0"/><feColorMatrix in="blurOut" result="blurOut2" type="matrix" values="0 0 0 0 0 0 0 0 0 0 0 0 0 0 0 0 0 0 .4 0"/><feOffset dx="4.0" dy="4.0" in="blurOut2" result="blurOut3"/><feBlend in="SourceGraphic" in2="blurOut3" mode="normal"/></filter></defs><g><!--class househ--><rect fill="#FEFECE" filter="url(#f1ax8uw1sln0qu)" height="109.9609" id="househ" style="stroke: #A80036; stroke-width: 1.5;" width="126" x="28" y="182"/><ellipse cx="50.65" cy="200.9688" fill="#FFAAAA" rx="11" ry="11" style="stroke: #A80036; stroke-width: 1.0;"/><path d="M51.4938,207.7188 L49.0406,207.7188 L49.0406,197.4688 L45.9,197.4688 L45.9,195.3281 L54.6344,195.3281 L54.6344,197.4688 L51.4938,197.4688 L51.4938,207.7188 Z "/><text fill="#000000" font-family="sans-serif" font-size="12" lengthAdjust="spacingAndGlyphs" textLength="47" x="81.35" y="198.1387">househ</text><text fill="#000000" font-family="sans-serif" font-size="12" lengthAdjust="spacingAndGlyphs" textLength="77" x="66.35" y="212.1074">(Household)</text><line style="stroke: #A80036; stroke-width: 1.5;" x1="29" x2="153" y1="219.9375" y2="219.9375"/><text fill="#000000" font-family="sans-serif" font-size="11" font-weight="bold" lengthAdjust="spacingAndGlyphs" textLength="63" x="34" y="234.1479">house_ref</text><text fill="#000000" font-family="sans-serif" font-size="11" lengthAdjust="spacingAndGlyphs" textLength="0" x="101" y="234.1479"/><text fill="#000000" font-family="sans-serif" font-size="11" font-style="italic" lengthAdjust="spacingAndGlyphs" textLength="47" x="101" y="234.1479">char[10]</text><text fill="#000000" font-family="sans-serif" font-size="11" font-weight="bold" lengthAdjust="spacingAndGlyphs" textLength="44" x="34" y="246.9526">tstamp</text><text fill="#000000" font-family="sans-serif" font-size="11" lengthAdjust="spacingAndGlyphs" textLength="0" x="82" y="246.9526"/><text fill="#000000" font-family="sans-serif" font-size="11" font-style="italic" lengthAdjust="spacingAndGlyphs" textLength="60" x="82" y="246.9526">timestamp</text><text fill="#000000" font-family="sans-serif" font-size="11" lengthAdjust="spacingAndGlyphs" text-decoration="underline" textLength="48" x="34" y="259.7573">prop_ref</text><text fill="#000000" font-family="sans-serif" font-size="11" lengthAdjust="spacingAndGlyphs" textLength="0" x="86" y="259.7573"/><text fill="#000000" font-family="sans-serif" font-size="11" font-style="italic" lengthAdjust="spacingAndGlyphs" textLength="47" x="86" y="259.7573">char[12]</text><text fill="#000000" font-family="sans-serif" font-size="11" lengthAdjust="spacingAndGlyphs" textLength="0" x="38" y="272.562"/><text fill="#000000" font-family="sans-serif" font-size="11" font-style="italic" lengthAdjust="spacingAndGlyphs" textLength="85" x="34" y="285.3667">+ 107 columns</text><!--class member--><rect fill="#FEFECE" filter="url(#f1ax8uw1sln0qu)" height="97.1563" id="member" style="stroke: #A80036; stroke-width: 1.5;" width="170" x="6" y="8"/><ellipse cx="21" cy="26.9688" fill="#FFAAAA" rx="11" ry="11" style="stroke: #A80036; stroke-width: 1.0;"/><path d="M21.8438,33.7188 L19.3906,33.7188 L19.3906,23.4688 L16.25,23.4688 L16.25,21.3281 L24.9844,21.3281 L24.9844,23.4688 L21.8438,23.4688 L21.8438,33.7188 Z "/><text fill="#000000" font-family="sans-serif" font-size="12" lengthAdjust="spacingAndGlyphs" textLength="51" x="78.5" y="24.1387">member</text><text fill="#000000" font-family="sans-serif" font-size="12" lengthAdjust="spacingAndGlyphs" textLength="138" x="35" y="38.1074">(Household Members)</text><line style="stroke: #A80036; stroke-width: 1.5;" x1="7" x2="175" y1="45.9375" y2="45.9375"/><text fill="#000000" font-family="sans-serif" font-size="11" font-weight="bold" lengthAdjust="spacingAndGlyphs" textLength="44" x="12" y="60.1479">tstamp</text><text fill="#000000" font-family="sans-serif" font-size="11" lengthAdjust="spacingAndGlyphs" textLength="0" x="60" y="60.1479"/><text fill="#000000" font-family="sans-serif" font-size="11" font-style="italic" lengthAdjust="spacingAndGlyphs" textLength="60" x="60" y="60.1479">timestamp</text><text fill="#000000" font-family="sans-serif" font-size="11" lengthAdjust="spacingAndGlyphs" text-decoration="underline" textLength="57" x="12" y="72.9526">house_ref</text><text fill="#000000" font-family="sans-serif" font-size="11" lengthAdjust="spacingAndGlyphs" textLength="0" x="73" y="72.9526"/><text fill="#000000" font-family="sans-serif" font-size="11" font-style="italic" lengthAdjust="spacingAndGlyphs" textLength="47" x="73" y="72.9526">char[10]</text><text fill="#000000" font-family="sans-serif" font-size="11" lengthAdjust="spacingAndGlyphs" textLength="0" x="16" y="85.7573"/><text fill="#000000" font-family="sans-serif" font-size="11" font-style="italic" lengthAdjust="spacingAndGlyphs" textLength="78" x="12" y="98.562">+ 52 columns</text><!--class property--><rect fill="#FEFECE" filter="url(#f1ax8uw1sln0qu)" height="40" id="property" style="stroke: #A80036; stroke-width: 1.5;" width="85" x="48.5" y="369"/><ellipse cx="63.5" cy="385" fill="#ADD1B2" rx="11" ry="11" style="stroke: #A80036; stroke-width: 1.0;"/><path d="M66.4688,390.6406 Q65.8906,390.9375 65.25,391.0859 Q64.6094,391.2344 63.9063,391.2344 Q61.4063,391.2344 60.0859,389.5859 Q58.7656,387.9375 58.7656,384.8125 Q58.7656,381.6875 60.0859,380.0313 Q61.4063,378.375 63.9063,378.375 Q64.6094,378.375 65.2578,378.5313 Q65.9063,378.6875 66.4688,378.9844 L66.4688,381.7031 Q65.8438,381.125 65.25,380.8516 Q64.6563,380.5781 64.0313,380.5781 Q62.6875,380.5781 62,381.6484 Q61.3125,382.7188 61.3125,384.8125 Q61.3125,386.9063 62,387.9766 Q62.6875,389.0469 64.0313,389.0469 Q64.6563,389.0469 65.25,388.7734 Q65.8438,388.5 66.4688,387.9219 L66.4688,390.6406 Z "/><text fill="#000000" font-family="sans-serif" font-size="12" lengthAdjust="spacingAndGlyphs" textLength="53" x="77.5" y="389.1543">property</text><line style="stroke: #A80036; stroke-width: 1.5;" x1="49.5" x2="132.5" y1="401" y2="401"/><!--link househ to househ--><path d="M154.152,219.767 C173.672,220.115 189,225.859 189,237 C189,247.096 176.411,252.761 159.522,253.993 " fill="none" id="househ-househ" style="stroke: #A80036; stroke-width: 1.0;"/><polygon fill="#A80036" points="154.152,254.233,163.3213,257.8279,159.147,254.0102,162.9648,249.8359,154.152,254.233" style="stroke: #A80036; stroke-width: 1.0;"/><text fill="#000000" font-family="sans-serif" font-size="13" lengthAdjust="spacingAndGlyphs" textLength="63" x="195" y="241.5669">house_ref</text><!--link househ to property--><path d="M91,292.153 C91,316.5459 91,344.134 91,363.4275 " fill="none" id="househ-property" style="stroke: #A80036; stroke-width: 1.0;"/><polygon fill="#A80036" points="91,368.6398,95,359.6398,91,363.6398,87,359.6398,91,368.6398" style="stroke: #A80036; stroke-width: 1.0;"/><text fill="#000000" font-family="sans-serif" font-size="13" lengthAdjust="spacingAndGlyphs" textLength="53" x="92" y="335.0669">prop_ref</text><!--link member to househ--><path d="M91,105.335 C91,127.225 91,153.385 91,176.529 " fill="none" id="member-househ" style="stroke: #A80036; stroke-width: 1.0;"/><polygon fill="#A80036" points="91,181.725,95,172.725,91,176.725,87,172.725,91,181.725" style="stroke: #A80036; stroke-width: 1.0;"/><text fill="#000000" font-family="sans-serif" font-size="13" lengthAdjust="spacingAndGlyphs" textLength="63" x="92" y="148.0669">house_ref</text><!--
@startuml
hide methods
hide stereotypes

class househ as "househ\n(Household)" << (T,#FFAAAA) >> {
<b>house_ref</b> <i>char[10]</i>
<b>tstamp</b> <i>timestamp</i>
<u>prop_ref</u> <i>char[12]</i>

<i>+ 107 columns</i>
}


class member as "member\n(Household Members)" << (T,#FFAAAA) >> {
<b>tstamp</b> <i>timestamp</i>
<u>house_ref</u> <i>char[10]</i>

<i>+ 52 columns</i>
}


househ - -> househ : "house_ref"
househ - -> property : "prop_ref"
member - -> househ : "house_ref"
@enduml

PlantUML version 1.2019.08(Sat Jul 13 19:25:14 UTC 2019)
(GPL source distribution)
Java Runtime: OpenJDK Runtime Environment
JVM: OpenJDK 64-Bit Server VM
Java Version: 1.8.0_131-8u131-b11-1~bpo8+1-b11
Operating System: Linux
OS Version: 4.15.0-1043-aws
Default Encoding: UTF-8
Language: en
Country: null
--></g></svg>