<?xml version="1.0" encoding="UTF-8" standalone="no"?><svg xmlns="http://www.w3.org/2000/svg" xmlns:xlink="http://www.w3.org/1999/xlink" contentScriptType="application/ecmascript" contentStyleType="text/css" height="652px" preserveAspectRatio="none" style="width:1177px;height:652px;" version="1.1" viewBox="0 0 1177 652" width="1177px" zoomAndPan="magnify"><defs><filter height="300%" id="f6a77bnn9rzfc" width="300%" x="-1" y="-1"><feGaussianBlur result="blurOut" stdDeviation="2.0"/><feColorMatrix in="blurOut" result="blurOut2" type="matrix" values="0 0 0 0 0 0 0 0 0 0 0 0 0 0 0 0 0 0 .4 0"/><feOffset dx="4.0" dy="4.0" in="blurOut2" result="blurOut3"/><feBlend in="SourceGraphic" in2="blurOut3" mode="normal"/></filter></defs><g><!--class aracthis--><rect fill="#FEFECE" filter="url(#f6a77bnn9rzfc)" height="91.2188" id="aracthis" style="stroke: #A80036; stroke-width: 1.5;" width="120" x="6" y="426.5"/><ellipse cx="37.65" cy="442.5" fill="#FFAAAA" rx="11" ry="11" style="stroke: #A80036; stroke-width: 1.0;"/><path d="M38.4938,449.25 L36.0406,449.25 L36.0406,439 L32.9,439 L32.9,436.8594 L41.6344,436.8594 L41.6344,439 L38.4938,439 L38.4938,449.25 Z "/><text fill="#000000" font-family="sans-serif" font-size="12" lengthAdjust="spacingAndGlyphs" textLength="51" x="55.35" y="446.6543">aracthis</text><line style="stroke: #A80036; stroke-width: 1.5;" x1="7" x2="125" y1="458.5" y2="458.5"/><text fill="#000000" font-family="sans-serif" font-size="11" font-weight="bold" lengthAdjust="spacingAndGlyphs" textLength="44" x="12" y="472.7104">tstamp</text><text fill="#000000" font-family="sans-serif" font-size="11" lengthAdjust="spacingAndGlyphs" textLength="0" x="60" y="472.7104"/><text fill="#000000" font-family="sans-serif" font-size="11" font-style="italic" lengthAdjust="spacingAndGlyphs" textLength="60" x="60" y="472.7104">timestamp</text><text fill="#000000" font-family="sans-serif" font-size="11" lengthAdjust="spacingAndGlyphs" text-decoration="underline" textLength="40" x="12" y="485.5151">tag_ref</text><text fill="#000000" font-family="sans-serif" font-size="11" lengthAdjust="spacingAndGlyphs" textLength="0" x="56" y="485.5151"/><text fill="#000000" font-family="sans-serif" font-size="11" font-style="italic" lengthAdjust="spacingAndGlyphs" textLength="47" x="56" y="485.5151">char[11]</text><text fill="#000000" font-family="sans-serif" font-size="11" lengthAdjust="spacingAndGlyphs" textLength="0" x="16" y="498.3198"/><text fill="#000000" font-family="sans-serif" font-size="11" font-style="italic" lengthAdjust="spacingAndGlyphs" textLength="78" x="12" y="511.1245">+ 13 columns</text><!--class araction--><rect fill="#FEFECE" filter="url(#f6a77bnn9rzfc)" height="148.375" id="araction" style="stroke: #A80036; stroke-width: 1.5;" width="166" x="702" y="8"/><ellipse cx="717" cy="26.9688" fill="#FFAAAA" rx="11" ry="11" style="stroke: #A80036; stroke-width: 1.0;"/><path d="M717.8438,33.7188 L715.3906,33.7188 L715.3906,23.4688 L712.25,23.4688 L712.25,21.3281 L720.9844,21.3281 L720.9844,23.4688 L717.8438,23.4688 L717.8438,33.7188 Z "/><text fill="#000000" font-family="sans-serif" font-size="12" lengthAdjust="spacingAndGlyphs" textLength="52" x="772" y="24.1387">araction</text><text fill="#000000" font-family="sans-serif" font-size="12" lengthAdjust="spacingAndGlyphs" textLength="134" x="731" y="38.1074">(Arrears Action Diary)</text><line style="stroke: #A80036; stroke-width: 1.5;" x1="703" x2="867" y1="45.9375" y2="45.9375"/><text fill="#000000" font-family="sans-serif" font-size="11" font-weight="bold" lengthAdjust="spacingAndGlyphs" textLength="44" x="708" y="60.1479">tstamp</text><text fill="#000000" font-family="sans-serif" font-size="11" lengthAdjust="spacingAndGlyphs" textLength="0" x="756" y="60.1479"/><text fill="#000000" font-family="sans-serif" font-size="11" font-style="italic" lengthAdjust="spacingAndGlyphs" textLength="60" x="756" y="60.1479">timestamp</text><text fill="#000000" font-family="sans-serif" font-size="11" lengthAdjust="spacingAndGlyphs" text-decoration="underline" textLength="67" x="708" y="72.9526">action_code</text><text fill="#000000" font-family="sans-serif" font-size="11" lengthAdjust="spacingAndGlyphs" textLength="0" x="779" y="72.9526"/><text fill="#000000" font-family="sans-serif" font-size="11" font-style="italic" lengthAdjust="spacingAndGlyphs" textLength="40" x="779" y="72.9526">char[3]</text><text fill="#000000" font-family="sans-serif" font-size="11" lengthAdjust="spacingAndGlyphs" text-decoration="underline" textLength="71" x="708" y="85.7573">courtord_sid</text><text fill="#000000" font-family="sans-serif" font-size="11" lengthAdjust="spacingAndGlyphs" textLength="0" x="783" y="85.7573"/><text fill="#000000" font-family="sans-serif" font-size="11" font-style="italic" lengthAdjust="spacingAndGlyphs" textLength="29" x="783" y="85.7573">int[4]</text><text fill="#000000" font-family="sans-serif" font-size="11" lengthAdjust="spacingAndGlyphs" text-decoration="underline" textLength="57" x="708" y="98.562">notice_sid</text><text fill="#000000" font-family="sans-serif" font-size="11" lengthAdjust="spacingAndGlyphs" textLength="0" x="769" y="98.562"/><text fill="#000000" font-family="sans-serif" font-size="11" font-style="italic" lengthAdjust="spacingAndGlyphs" textLength="29" x="769" y="98.562">int[4]</text><text fill="#000000" font-family="sans-serif" font-size="11" lengthAdjust="spacingAndGlyphs" text-decoration="underline" textLength="40" x="708" y="111.3667">tag_ref</text><text fill="#000000" font-family="sans-serif" font-size="11" lengthAdjust="spacingAndGlyphs" textLength="0" x="752" y="111.3667"/><text fill="#000000" font-family="sans-serif" font-size="11" font-style="italic" lengthAdjust="spacingAndGlyphs" textLength="47" x="752" y="111.3667">char[11]</text><text fill="#000000" font-family="sans-serif" font-size="11" lengthAdjust="spacingAndGlyphs" text-decoration="underline" textLength="67" x="708" y="124.1714">warrant_sid</text><text fill="#000000" font-family="sans-serif" font-size="11" lengthAdjust="spacingAndGlyphs" textLength="0" x="779" y="124.1714"/><text fill="#000000" font-family="sans-serif" font-size="11" font-style="italic" lengthAdjust="spacingAndGlyphs" textLength="29" x="779" y="124.1714">int[4]</text><text fill="#000000" font-family="sans-serif" font-size="11" lengthAdjust="spacingAndGlyphs" textLength="0" x="712" y="136.9761"/><text fill="#000000" font-family="sans-serif" font-size="11" font-style="italic" lengthAdjust="spacingAndGlyphs" textLength="78" x="708" y="149.7808">+ 24 columns</text><!--class arag--><rect fill="#FEFECE" filter="url(#f6a77bnn9rzfc)" height="104.0234" id="arag" style="stroke: #A80036; stroke-width: 1.5;" width="120" x="232" y="420"/><ellipse cx="273.55" cy="436" fill="#FFAAAA" rx="11" ry="11" style="stroke: #A80036; stroke-width: 1.0;"/><path d="M274.3938,442.75 L271.9406,442.75 L271.9406,432.5 L268.8,432.5 L268.8,430.3594 L277.5344,430.3594 L277.5344,432.5 L274.3938,432.5 L274.3938,442.75 Z "/><text fill="#000000" font-family="sans-serif" font-size="12" lengthAdjust="spacingAndGlyphs" textLength="29" x="293.45" y="440.1543">arag</text><line style="stroke: #A80036; stroke-width: 1.5;" x1="233" x2="351" y1="452" y2="452"/><text fill="#000000" font-family="sans-serif" font-size="11" font-weight="bold" lengthAdjust="spacingAndGlyphs" textLength="53" x="238" y="466.2104">arag_ref</text><text fill="#000000" font-family="sans-serif" font-size="11" lengthAdjust="spacingAndGlyphs" textLength="0" x="295" y="466.2104"/><text fill="#000000" font-family="sans-serif" font-size="11" font-style="italic" lengthAdjust="spacingAndGlyphs" textLength="47" x="295" y="466.2104">char[15]</text><text fill="#000000" font-family="sans-serif" font-size="11" font-weight="bold" lengthAdjust="spacingAndGlyphs" textLength="44" x="238" y="479.0151">tstamp</text><text fill="#000000" font-family="sans-serif" font-size="11" lengthAdjust="spacingAndGlyphs" textLength="0" x="286" y="479.0151"/><text fill="#000000" font-family="sans-serif" font-size="11" font-style="italic" lengthAdjust="spacingAndGlyphs" textLength="60" x="286" y="479.0151">timestamp</text><text fill="#000000" font-family="sans-serif" font-size="11" lengthAdjust="spacingAndGlyphs" text-decoration="underline" textLength="40" x="238" y="491.8198">tag_ref</text><text fill="#000000" font-family="sans-serif" font-size="11" lengthAdjust="spacingAndGlyphs" textLength="0" x="282" y="491.8198"/><text fill="#000000" font-family="sans-serif" font-size="11" font-style="italic" lengthAdjust="spacingAndGlyphs" textLength="47" x="282" y="491.8198">char[11]</text><text fill="#000000" font-family="sans-serif" font-size="11" lengthAdjust="spacingAndGlyphs" textLength="0" x="242" y="504.6245"/><text fill="#000000" font-family="sans-serif" font-size="11" font-style="italic" lengthAdjust="spacingAndGlyphs" textLength="78" x="238" y="517.4292">+ 32 columns</text><!--class aragdet--><rect fill="#FEFECE" filter="url(#f6a77bnn9rzfc)" height="91.2188" id="aragdet" style="stroke: #A80036; stroke-width: 1.5;" width="120" x="232" y="242.5"/><ellipse cx="264.1" cy="258.5" fill="#FFAAAA" rx="11" ry="11" style="stroke: #A80036; stroke-width: 1.0;"/><path d="M264.9438,265.25 L262.4906,265.25 L262.4906,255 L259.35,255 L259.35,252.8594 L268.0844,252.8594 L268.0844,255 L264.9438,255 L264.9438,265.25 Z "/><text fill="#000000" font-family="sans-serif" font-size="12" lengthAdjust="spacingAndGlyphs" textLength="50" x="281.9" y="262.6543">aragdet</text><line style="stroke: #A80036; stroke-width: 1.5;" x1="233" x2="351" y1="274.5" y2="274.5"/><text fill="#000000" font-family="sans-serif" font-size="11" font-weight="bold" lengthAdjust="spacingAndGlyphs" textLength="44" x="238" y="288.7104">tstamp</text><text fill="#000000" font-family="sans-serif" font-size="11" lengthAdjust="spacingAndGlyphs" textLength="0" x="286" y="288.7104"/><text fill="#000000" font-family="sans-serif" font-size="11" font-style="italic" lengthAdjust="spacingAndGlyphs" textLength="60" x="286" y="288.7104">timestamp</text><text fill="#000000" font-family="sans-serif" font-size="11" lengthAdjust="spacingAndGlyphs" text-decoration="underline" textLength="49" x="238" y="301.5151">arag_sid</text><text fill="#000000" font-family="sans-serif" font-size="11" lengthAdjust="spacingAndGlyphs" textLength="0" x="291" y="301.5151"/><text fill="#000000" font-family="sans-serif" font-size="11" font-style="italic" lengthAdjust="spacingAndGlyphs" textLength="29" x="291" y="301.5151">int[4]</text><text fill="#000000" font-family="sans-serif" font-size="11" lengthAdjust="spacingAndGlyphs" textLength="0" x="242" y="314.3198"/><text fill="#000000" font-family="sans-serif" font-size="11" font-style="italic" lengthAdjust="spacingAndGlyphs" textLength="71" x="238" y="327.1245">+ 8 columns</text><!--class araghist--><rect fill="#FEFECE" filter="url(#f6a77bnn9rzfc)" height="91.2188" id="araghist" style="stroke: #A80036; stroke-width: 1.5;" width="120" x="387" y="242.5"/><ellipse cx="418.2" cy="258.5" fill="#FFAAAA" rx="11" ry="11" style="stroke: #A80036; stroke-width: 1.0;"/><path d="M419.0438,265.25 L416.5906,265.25 L416.5906,255 L413.45,255 L413.45,252.8594 L422.1844,252.8594 L422.1844,255 L419.0438,255 L419.0438,265.25 Z "/><text fill="#000000" font-family="sans-serif" font-size="12" lengthAdjust="spacingAndGlyphs" textLength="52" x="435.8" y="262.6543">araghist</text><line style="stroke: #A80036; stroke-width: 1.5;" x1="388" x2="506" y1="274.5" y2="274.5"/><text fill="#000000" font-family="sans-serif" font-size="11" font-weight="bold" lengthAdjust="spacingAndGlyphs" textLength="44" x="393" y="288.7104">tstamp</text><text fill="#000000" font-family="sans-serif" font-size="11" lengthAdjust="spacingAndGlyphs" textLength="0" x="441" y="288.7104"/><text fill="#000000" font-family="sans-serif" font-size="11" font-style="italic" lengthAdjust="spacingAndGlyphs" textLength="60" x="441" y="288.7104">timestamp</text><text fill="#000000" font-family="sans-serif" font-size="11" lengthAdjust="spacingAndGlyphs" text-decoration="underline" textLength="48" x="393" y="301.5151">arag_ref</text><text fill="#000000" font-family="sans-serif" font-size="11" lengthAdjust="spacingAndGlyphs" textLength="0" x="445" y="301.5151"/><text fill="#000000" font-family="sans-serif" font-size="11" font-style="italic" lengthAdjust="spacingAndGlyphs" textLength="47" x="445" y="301.5151">char[15]</text><text fill="#000000" font-family="sans-serif" font-size="11" lengthAdjust="spacingAndGlyphs" textLength="0" x="397" y="314.3198"/><text fill="#000000" font-family="sans-serif" font-size="11" font-style="italic" lengthAdjust="spacingAndGlyphs" textLength="71" x="393" y="327.1245">+ 9 columns</text><!--class aranalysis--><rect fill="#FEFECE" filter="url(#f6a77bnn9rzfc)" height="52.8047" id="aranalysis" style="stroke: #A80036; stroke-width: 1.5;" width="95" x="903.5" y="55.5"/><ellipse cx="918.5" cy="71.5" fill="#FFAAAA" rx="11" ry="11" style="stroke: #A80036; stroke-width: 1.0;"/><path d="M919.3438,78.25 L916.8906,78.25 L916.8906,68 L913.75,68 L913.75,65.8594 L922.4844,65.8594 L922.4844,68 L919.3438,68 L919.3438,78.25 Z "/><text fill="#000000" font-family="sans-serif" font-size="12" lengthAdjust="spacingAndGlyphs" textLength="63" x="932.5" y="75.6543">aranalysis</text><line style="stroke: #A80036; stroke-width: 1.5;" x1="904.5" x2="997.5" y1="87.5" y2="87.5"/><text fill="#000000" font-family="sans-serif" font-size="11" font-style="italic" lengthAdjust="spacingAndGlyphs" textLength="78" x="909.5" y="101.7104">+ 12 columns</text><!--class arbatch--><rect fill="#FEFECE" filter="url(#f6a77bnn9rzfc)" height="91.2188" id="arbatch" style="stroke: #A80036; stroke-width: 1.5;" width="120" x="387" y="426.5"/><ellipse cx="419.55" cy="442.5" fill="#FFAAAA" rx="11" ry="11" style="stroke: #A80036; stroke-width: 1.0;"/><path d="M420.3938,449.25 L417.9406,449.25 L417.9406,439 L414.8,439 L414.8,436.8594 L423.5344,436.8594 L423.5344,439 L420.3938,439 L420.3938,449.25 Z "/><text fill="#000000" font-family="sans-serif" font-size="12" lengthAdjust="spacingAndGlyphs" textLength="49" x="437.45" y="446.6543">arbatch</text><line style="stroke: #A80036; stroke-width: 1.5;" x1="388" x2="506" y1="458.5" y2="458.5"/><text fill="#000000" font-family="sans-serif" font-size="11" font-weight="bold" lengthAdjust="spacingAndGlyphs" textLength="44" x="393" y="472.7104">tstamp</text><text fill="#000000" font-family="sans-serif" font-size="11" lengthAdjust="spacingAndGlyphs" textLength="0" x="441" y="472.7104"/><text fill="#000000" font-family="sans-serif" font-size="11" font-style="italic" lengthAdjust="spacingAndGlyphs" textLength="60" x="441" y="472.7104">timestamp</text><text fill="#000000" font-family="sans-serif" font-size="11" lengthAdjust="spacingAndGlyphs" text-decoration="underline" textLength="40" x="393" y="485.5151">tag_ref</text><text fill="#000000" font-family="sans-serif" font-size="11" lengthAdjust="spacingAndGlyphs" textLength="0" x="437" y="485.5151"/><text fill="#000000" font-family="sans-serif" font-size="11" font-style="italic" lengthAdjust="spacingAndGlyphs" textLength="47" x="437" y="485.5151">char[11]</text><text fill="#000000" font-family="sans-serif" font-size="11" lengthAdjust="spacingAndGlyphs" textLength="0" x="397" y="498.3198"/><text fill="#000000" font-family="sans-serif" font-size="11" font-style="italic" lengthAdjust="spacingAndGlyphs" textLength="71" x="393" y="511.1245">+ 8 columns</text><!--class arpolicy--><rect fill="#FEFECE" filter="url(#f6a77bnn9rzfc)" height="91.2188" id="arpolicy" style="stroke: #A80036; stroke-width: 1.5;" width="120" x="1046" y="242.5"/><ellipse cx="1079" cy="258.5" fill="#FFAAAA" rx="11" ry="11" style="stroke: #A80036; stroke-width: 1.0;"/><path d="M1079.8438,265.25 L1077.3906,265.25 L1077.3906,255 L1074.25,255 L1074.25,252.8594 L1082.9844,252.8594 L1082.9844,255 L1079.8438,255 L1079.8438,265.25 Z "/><text fill="#000000" font-family="sans-serif" font-size="12" lengthAdjust="spacingAndGlyphs" textLength="48" x="1097" y="262.6543">arpolicy</text><line style="stroke: #A80036; stroke-width: 1.5;" x1="1047" x2="1165" y1="274.5" y2="274.5"/><text fill="#000000" font-family="sans-serif" font-size="11" font-weight="bold" lengthAdjust="spacingAndGlyphs" textLength="50" x="1052" y="288.7104">arp_seq</text><text fill="#000000" font-family="sans-serif" font-size="11" lengthAdjust="spacingAndGlyphs" textLength="0" x="1106" y="288.7104"/><text fill="#000000" font-family="sans-serif" font-size="11" font-style="italic" lengthAdjust="spacingAndGlyphs" textLength="29" x="1106" y="288.7104">int[4]</text><text fill="#000000" font-family="sans-serif" font-size="11" font-weight="bold" lengthAdjust="spacingAndGlyphs" textLength="44" x="1052" y="301.5151">tstamp</text><text fill="#000000" font-family="sans-serif" font-size="11" lengthAdjust="spacingAndGlyphs" textLength="0" x="1100" y="301.5151"/><text fill="#000000" font-family="sans-serif" font-size="11" font-style="italic" lengthAdjust="spacingAndGlyphs" textLength="60" x="1100" y="301.5151">timestamp</text><text fill="#000000" font-family="sans-serif" font-size="11" lengthAdjust="spacingAndGlyphs" textLength="0" x="1056" y="314.3198"/><text fill="#000000" font-family="sans-serif" font-size="11" font-style="italic" lengthAdjust="spacingAndGlyphs" textLength="71" x="1052" y="327.1245">+ 6 columns</text><!--class arpolicydata--><rect fill="#FEFECE" filter="url(#f6a77bnn9rzfc)" height="78.4141" id="arpolicydata" style="stroke: #A80036; stroke-width: 1.5;" width="109" x="542.5" y="433"/><ellipse cx="557.5" cy="449" fill="#FFAAAA" rx="11" ry="11" style="stroke: #A80036; stroke-width: 1.0;"/><path d="M558.3438,455.75 L555.8906,455.75 L555.8906,445.5 L552.75,445.5 L552.75,443.3594 L561.4844,443.3594 L561.4844,445.5 L558.3438,445.5 L558.3438,455.75 Z "/><text fill="#000000" font-family="sans-serif" font-size="12" lengthAdjust="spacingAndGlyphs" textLength="77" x="571.5" y="453.1543">arpolicydata</text><line style="stroke: #A80036; stroke-width: 1.5;" x1="543.5" x2="650.5" y1="465" y2="465"/><text fill="#000000" font-family="sans-serif" font-size="11" lengthAdjust="spacingAndGlyphs" text-decoration="underline" textLength="40" x="548.5" y="479.2104">tag_ref</text><text fill="#000000" font-family="sans-serif" font-size="11" lengthAdjust="spacingAndGlyphs" textLength="0" x="592.5" y="479.2104"/><text fill="#000000" font-family="sans-serif" font-size="11" font-style="italic" lengthAdjust="spacingAndGlyphs" textLength="47" x="592.5" y="479.2104">char[11]</text><text fill="#000000" font-family="sans-serif" font-size="11" lengthAdjust="spacingAndGlyphs" textLength="0" x="552.5" y="492.0151"/><text fill="#000000" font-family="sans-serif" font-size="11" font-style="italic" lengthAdjust="spacingAndGlyphs" textLength="71" x="548.5" y="504.8198">+ 8 columns</text><!--class court--><rect fill="#FEFECE" filter="url(#f6a77bnn9rzfc)" height="84.3516" id="court" style="stroke: #A80036; stroke-width: 1.5;" width="120" x="941" y="430"/><ellipse cx="972.65" cy="448.9688" fill="#FFAAAA" rx="11" ry="11" style="stroke: #A80036; stroke-width: 1.0;"/><path d="M973.4938,455.7188 L971.0406,455.7188 L971.0406,445.4688 L967.9,445.4688 L967.9,443.3281 L976.6344,443.3281 L976.6344,445.4688 L973.4938,445.4688 L973.4938,455.7188 Z "/><text fill="#000000" font-family="sans-serif" font-size="12" lengthAdjust="spacingAndGlyphs" textLength="33" x="999.35" y="446.1387">court</text><text fill="#000000" font-family="sans-serif" font-size="12" lengthAdjust="spacingAndGlyphs" textLength="51" x="990.35" y="460.1074">(Courts)</text><line style="stroke: #A80036; stroke-width: 1.5;" x1="942" x2="1060" y1="467.9375" y2="467.9375"/><text fill="#000000" font-family="sans-serif" font-size="11" font-weight="bold" lengthAdjust="spacingAndGlyphs" textLength="44" x="947" y="482.1479">tstamp</text><text fill="#000000" font-family="sans-serif" font-size="11" lengthAdjust="spacingAndGlyphs" textLength="0" x="995" y="482.1479"/><text fill="#000000" font-family="sans-serif" font-size="11" font-style="italic" lengthAdjust="spacingAndGlyphs" textLength="60" x="995" y="482.1479">timestamp</text><text fill="#000000" font-family="sans-serif" font-size="11" lengthAdjust="spacingAndGlyphs" textLength="0" x="951" y="494.9526"/><text fill="#000000" font-family="sans-serif" font-size="11" font-style="italic" lengthAdjust="spacingAndGlyphs" textLength="71" x="947" y="507.7573">+ 7 columns</text><!--class courtord--><rect fill="#FEFECE" filter="url(#f6a77bnn9rzfc)" height="109.9609" id="courtord" style="stroke: #A80036; stroke-width: 1.5;" width="122" x="889" y="233"/><ellipse cx="904" cy="251.9688" fill="#FFAAAA" rx="11" ry="11" style="stroke: #A80036; stroke-width: 1.0;"/><path d="M904.8438,258.7188 L902.3906,258.7188 L902.3906,248.4688 L899.25,248.4688 L899.25,246.3281 L907.9844,246.3281 L907.9844,248.4688 L904.8438,248.4688 L904.8438,258.7188 Z "/><text fill="#000000" font-family="sans-serif" font-size="12" lengthAdjust="spacingAndGlyphs" textLength="54" x="936" y="249.1387">courtord</text><text fill="#000000" font-family="sans-serif" font-size="12" lengthAdjust="spacingAndGlyphs" textLength="90" x="918" y="263.1074">(Court Orders)</text><line style="stroke: #A80036; stroke-width: 1.5;" x1="890" x2="1010" y1="270.9375" y2="270.9375"/><text fill="#000000" font-family="sans-serif" font-size="11" font-weight="bold" lengthAdjust="spacingAndGlyphs" textLength="44" x="895" y="285.1479">tstamp</text><text fill="#000000" font-family="sans-serif" font-size="11" lengthAdjust="spacingAndGlyphs" textLength="0" x="943" y="285.1479"/><text fill="#000000" font-family="sans-serif" font-size="11" font-style="italic" lengthAdjust="spacingAndGlyphs" textLength="60" x="943" y="285.1479">timestamp</text><text fill="#000000" font-family="sans-serif" font-size="11" lengthAdjust="spacingAndGlyphs" text-decoration="underline" textLength="52" x="895" y="297.9526">court_sid</text><text fill="#000000" font-family="sans-serif" font-size="11" lengthAdjust="spacingAndGlyphs" textLength="0" x="951" y="297.9526"/><text fill="#000000" font-family="sans-serif" font-size="11" font-style="italic" lengthAdjust="spacingAndGlyphs" textLength="29" x="951" y="297.9526">int[4]</text><text fill="#000000" font-family="sans-serif" font-size="11" lengthAdjust="spacingAndGlyphs" text-decoration="underline" textLength="57" x="895" y="310.7573">notice_sid</text><text fill="#000000" font-family="sans-serif" font-size="11" lengthAdjust="spacingAndGlyphs" textLength="0" x="956" y="310.7573"/><text fill="#000000" font-family="sans-serif" font-size="11" font-style="italic" lengthAdjust="spacingAndGlyphs" textLength="29" x="956" y="310.7573">int[4]</text><text fill="#000000" font-family="sans-serif" font-size="11" lengthAdjust="spacingAndGlyphs" textLength="0" x="899" y="323.562"/><text fill="#000000" font-family="sans-serif" font-size="11" font-style="italic" lengthAdjust="spacingAndGlyphs" textLength="78" x="895" y="336.3667">+ 15 columns</text><!--class notice--><rect fill="#FEFECE" filter="url(#f6a77bnn9rzfc)" height="97.1563" id="notice" style="stroke: #A80036; stroke-width: 1.5;" width="127" x="686.5" y="423.5"/><ellipse cx="701.5" cy="442.4688" fill="#FFAAAA" rx="11" ry="11" style="stroke: #A80036; stroke-width: 1.0;"/><path d="M702.3438,449.2188 L699.8906,449.2188 L699.8906,438.9688 L696.75,438.9688 L696.75,436.8281 L705.4844,436.8281 L705.4844,438.9688 L702.3438,438.9688 L702.3438,449.2188 Z "/><text fill="#000000" font-family="sans-serif" font-size="12" lengthAdjust="spacingAndGlyphs" textLength="39" x="743.5" y="439.6387">notice</text><text fill="#000000" font-family="sans-serif" font-size="12" lengthAdjust="spacingAndGlyphs" textLength="95" x="715.5" y="453.6074">(Court Notices)</text><line style="stroke: #A80036; stroke-width: 1.5;" x1="687.5" x2="812.5" y1="461.4375" y2="461.4375"/><text fill="#000000" font-family="sans-serif" font-size="11" font-weight="bold" lengthAdjust="spacingAndGlyphs" textLength="44" x="692.5" y="475.6479">tstamp</text><text fill="#000000" font-family="sans-serif" font-size="11" lengthAdjust="spacingAndGlyphs" textLength="0" x="740.5" y="475.6479"/><text fill="#000000" font-family="sans-serif" font-size="11" font-style="italic" lengthAdjust="spacingAndGlyphs" textLength="60" x="740.5" y="475.6479">timestamp</text><text fill="#000000" font-family="sans-serif" font-size="11" lengthAdjust="spacingAndGlyphs" text-decoration="underline" textLength="74" x="692.5" y="488.4526">tenagree_sid</text><text fill="#000000" font-family="sans-serif" font-size="11" lengthAdjust="spacingAndGlyphs" textLength="0" x="770.5" y="488.4526"/><text fill="#000000" font-family="sans-serif" font-size="11" font-style="italic" lengthAdjust="spacingAndGlyphs" textLength="29" x="770.5" y="488.4526">int[4]</text><text fill="#000000" font-family="sans-serif" font-size="11" lengthAdjust="spacingAndGlyphs" textLength="0" x="696.5" y="501.2573"/><text fill="#000000" font-family="sans-serif" font-size="11" font-style="italic" lengthAdjust="spacingAndGlyphs" textLength="78" x="692.5" y="514.062">+ 26 columns</text><!--class warrant--><rect fill="#FEFECE" filter="url(#f6a77bnn9rzfc)" height="109.9609" id="warrant" style="stroke: #A80036; stroke-width: 1.5;" width="137" x="716.5" y="233"/><ellipse cx="731.5" cy="251.9688" fill="#FFAAAA" rx="11" ry="11" style="stroke: #A80036; stroke-width: 1.0;"/><path d="M732.3438,258.7188 L729.8906,258.7188 L729.8906,248.4688 L726.75,248.4688 L726.75,246.3281 L735.4844,246.3281 L735.4844,248.4688 L732.3438,248.4688 L732.3438,258.7188 Z "/><text fill="#000000" font-family="sans-serif" font-size="12" lengthAdjust="spacingAndGlyphs" textLength="48" x="774" y="249.1387">warrant</text><text fill="#000000" font-family="sans-serif" font-size="12" lengthAdjust="spacingAndGlyphs" textLength="105" x="745.5" y="263.1074">(Court Warrants)</text><line style="stroke: #A80036; stroke-width: 1.5;" x1="717.5" x2="852.5" y1="270.9375" y2="270.9375"/><text fill="#000000" font-family="sans-serif" font-size="11" font-weight="bold" lengthAdjust="spacingAndGlyphs" textLength="44" x="722.5" y="285.1479">tstamp</text><text fill="#000000" font-family="sans-serif" font-size="11" lengthAdjust="spacingAndGlyphs" textLength="0" x="770.5" y="285.1479"/><text fill="#000000" font-family="sans-serif" font-size="11" font-style="italic" lengthAdjust="spacingAndGlyphs" textLength="60" x="770.5" y="285.1479">timestamp</text><text fill="#000000" font-family="sans-serif" font-size="11" lengthAdjust="spacingAndGlyphs" text-decoration="underline" textLength="52" x="722.5" y="297.9526">court_sid</text><text fill="#000000" font-family="sans-serif" font-size="11" lengthAdjust="spacingAndGlyphs" textLength="0" x="778.5" y="297.9526"/><text fill="#000000" font-family="sans-serif" font-size="11" font-style="italic" lengthAdjust="spacingAndGlyphs" textLength="29" x="778.5" y="297.9526">int[4]</text><text fill="#000000" font-family="sans-serif" font-size="11" lengthAdjust="spacingAndGlyphs" text-decoration="underline" textLength="57" x="722.5" y="310.7573">notice_sid</text><text fill="#000000" font-family="sans-serif" font-size="11" lengthAdjust="spacingAndGlyphs" textLength="0" x="783.5" y="310.7573"/><text fill="#000000" font-family="sans-serif" font-size="11" font-style="italic" lengthAdjust="spacingAndGlyphs" textLength="29" x="783.5" y="310.7573">int[4]</text><text fill="#000000" font-family="sans-serif" font-size="11" lengthAdjust="spacingAndGlyphs" textLength="0" x="726.5" y="323.562"/><text fill="#000000" font-family="sans-serif" font-size="11" font-style="italic" lengthAdjust="spacingAndGlyphs" textLength="78" x="722.5" y="336.3667">+ 11 columns</text><!--class tenagree--><rect fill="#FEFECE" filter="url(#f6a77bnn9rzfc)" height="40" id="tenagree" style="stroke: #A80036; stroke-width: 1.5;" width="90" x="358" y="601"/><ellipse cx="373" cy="617" fill="#ADD1B2" rx="11" ry="11" style="stroke: #A80036; stroke-width: 1.0;"/><path d="M375.9688,622.6406 Q375.3906,622.9375 374.75,623.0859 Q374.1094,623.2344 373.4063,623.2344 Q370.9063,623.2344 369.5859,621.5859 Q368.2656,619.9375 368.2656,616.8125 Q368.2656,613.6875 369.5859,612.0313 Q370.9063,610.375 373.4063,610.375 Q374.1094,610.375 374.7578,610.5313 Q375.4063,610.6875 375.9688,610.9844 L375.9688,613.7031 Q375.3438,613.125 374.75,612.8516 Q374.1563,612.5781 373.5313,612.5781 Q372.1875,612.5781 371.5,613.6484 Q370.8125,614.7188 370.8125,616.8125 Q370.8125,618.9063 371.5,619.9766 Q372.1875,621.0469 373.5313,621.0469 Q374.1563,621.0469 374.75,620.7734 Q375.3438,620.5 375.9688,619.9219 L375.9688,622.6406 Z "/><text fill="#000000" font-family="sans-serif" font-size="12" lengthAdjust="spacingAndGlyphs" textLength="58" x="387" y="621.1543">tenagree</text><line style="stroke: #A80036; stroke-width: 1.5;" x1="359" x2="447" y1="633" y2="633"/><!--link aracthis to tenagree--><path d="M74.0769,517.696 C79.8153,536.889 89.5519,557.8779 106,571 C143.251,600.7188 278.157,612.9623 352.674,617.5468 " fill="none" id="aracthis-tenagree" style="stroke: #A80036; stroke-width: 1.0;"/><polygon fill="#A80036" points="357.933,617.8637,349.1905,613.3284,352.9421,617.5623,348.7082,621.3138,357.933,617.8637" style="stroke: #A80036; stroke-width: 1.0;"/><text fill="#000000" font-family="sans-serif" font-size="13" lengthAdjust="spacingAndGlyphs" textLength="45" x="107" y="567.0669">tag_ref</text><!--link araction to arpolicy--><path d="M868.204,145.729 C874.118,149.378 880.083,152.842 886,156 C919.868,174.077 933.155,167.881 967,186 C994.968,200.973 1023.69,220.936 1047.71,239.159 " fill="none" id="araction-arpolicy" style="stroke: #A80036; stroke-width: 1.0;"/><polygon fill="#A80036" points="1051.83,242.302,1047.0945,233.6663,1047.8526,239.2721,1042.2467,240.0302,1051.83,242.302" style="stroke: #A80036; stroke-width: 1.0;"/><text fill="#000000" font-family="sans-serif" font-size="13" lengthAdjust="spacingAndGlyphs" textLength="77" x="997" y="199.0669">action_code</text><!--link araction to courtord--><path d="M844.103,156.072 C863.509,180.065 884.797,206.386 903.165,229.095 " fill="none" id="araction-courtord" style="stroke: #A80036; stroke-width: 1.0;"/><polygon fill="#A80036" points="906.323,232.999,903.7728,223.486,903.1785,229.1116,897.5529,228.5172,906.323,232.999" style="stroke: #A80036; stroke-width: 1.0;"/><text fill="#000000" font-family="sans-serif" font-size="13" lengthAdjust="spacingAndGlyphs" textLength="79" x="879" y="199.0669">courtord_sid</text><!--link araction to notice--><path d="M701.999,142.66 C674.681,167.211 647.587,198.11 633,233 C614.142,278.105 615.309,297.424 633,343 C644.277,372.052 665.563,398.537 686.921,419.782 " fill="none" id="araction-notice" style="stroke: #A80036; stroke-width: 1.0;"/><polygon fill="#A80036" points="690.626,423.416,687.0015,414.2583,687.0563,419.9149,681.3998,419.9698,690.626,423.416" style="stroke: #A80036; stroke-width: 1.0;"/><text fill="#000000" font-family="sans-serif" font-size="13" lengthAdjust="spacingAndGlyphs" textLength="64" x="634" y="292.5669">notice_sid</text><!--link araction to tenagree--><path d="M701.718,92.503 C558.066,110.796 273.347,156.049 214,233 C135.015,335.414 146.354,413.768 214,524 C244.087,573.0286 307.891,597.9747 353.023,609.9688 " fill="none" id="araction-tenagree" style="stroke: #A80036; stroke-width: 1.0;"/><polygon fill="#A80036" points="357.88,611.2289,350.173,605.0968,353.0403,609.9732,348.1639,612.8404,357.88,611.2289" style="stroke: #A80036; stroke-width: 1.0;"/><text fill="#000000" font-family="sans-serif" font-size="13" lengthAdjust="spacingAndGlyphs" textLength="45" x="161" y="386.0669">tag_ref</text><!--link araction to warrant--><path d="M785,156.072 C785,179.669 785,205.516 785,227.966 " fill="none" id="araction-warrant" style="stroke: #A80036; stroke-width: 1.0;"/><polygon fill="#A80036" points="785,232.999,789,223.999,785,227.999,781,223.999,785,232.999" style="stroke: #A80036; stroke-width: 1.0;"/><text fill="#000000" font-family="sans-serif" font-size="13" lengthAdjust="spacingAndGlyphs" textLength="73" x="786" y="199.0669">warrant_sid</text><!--link arag to tenagree--><path d="M328.999,524.141 C340.131,539.315 352.456,555.9075 364,571 C370.354,579.3068 377.438,588.2889 383.808,596.2662 " fill="none" id="arag-tenagree" style="stroke: #A80036; stroke-width: 1.0;"/><polygon fill="#A80036" points="387.264,600.5839,384.7635,591.0577,384.1398,596.6801,378.5175,596.0564,387.264,600.5839" style="stroke: #A80036; stroke-width: 1.0;"/><text fill="#000000" font-family="sans-serif" font-size="13" lengthAdjust="spacingAndGlyphs" textLength="45" x="365" y="567.0669">tag_ref</text><!--link aragdet to arag--><path d="M292,333.522 C292,357.99 292,388.585 292,414.697 " fill="none" id="aragdet-arag" style="stroke: #A80036; stroke-width: 1.0;"/><polygon fill="#A80036" points="292,419.856,296,410.856,292,414.856,288,410.856,292,419.856" style="stroke: #A80036; stroke-width: 1.0;"/><text fill="#000000" font-family="sans-serif" font-size="13" lengthAdjust="spacingAndGlyphs" textLength="54" x="293" y="386.0669">arag_sid</text><!--link araghist to arag--><path d="M409.083,333.522 C387.898,358.397 361.319,389.606 338.842,415.999 " fill="none" id="araghist-arag" style="stroke: #A80036; stroke-width: 1.0;"/><polygon fill="#A80036" points="335.556,419.856,344.4361,415.5964,338.7974,416.0489,338.3448,410.4102,335.556,419.856" style="stroke: #A80036; stroke-width: 1.0;"/><text fill="#000000" font-family="sans-serif" font-size="13" lengthAdjust="spacingAndGlyphs" textLength="53" x="376" y="386.0669">arag_ref</text><!--link arbatch to tenagree--><path d="M433.679,517.504 C425.952,543.3203 416.523,574.8209 410.175,596.0304 " fill="none" id="arbatch-tenagree" style="stroke: #A80036; stroke-width: 1.0;"/><polygon fill="#A80036" points="408.71,600.9248,415.1229,593.4499,410.1439,596.1348,407.4589,591.1557,408.71,600.9248" style="stroke: #A80036; stroke-width: 1.0;"/><text fill="#000000" font-family="sans-serif" font-size="13" lengthAdjust="spacingAndGlyphs" textLength="45" x="424" y="567.0669">tag_ref</text><!--link arpolicydata to tenagree--><path d="M553.005,511.19 C530.95,529.825 503.555,552.2175 478,571 C465.277,580.3515 450.849,589.9922 438.071,598.222 " fill="none" id="arpolicydata-tenagree" style="stroke: #A80036; stroke-width: 1.0;"/><polygon fill="#A80036" points="433.805,600.9564,443.5405,599.4664,438.0143,598.2578,439.2228,592.7316,433.805,600.9564" style="stroke: #A80036; stroke-width: 1.0;"/><text fill="#000000" font-family="sans-serif" font-size="13" lengthAdjust="spacingAndGlyphs" textLength="45" x="500" y="567.0669">tag_ref</text><!--link courtord to court--><path d="M973.848,343.083 C977.618,352.912 981.192,363.167 984,373 C988.727,389.552 992.351,408.074 995.013,424.521 " fill="none" id="courtord-court" style="stroke: #A80036; stroke-width: 1.0;"/><polygon fill="#A80036" points="995.809,429.554,998.3533,420.0395,995.0276,424.6154,990.4516,421.2897,995.809,429.554" style="stroke: #A80036; stroke-width: 1.0;"/><text fill="#000000" font-family="sans-serif" font-size="13" lengthAdjust="spacingAndGlyphs" textLength="58" x="990" y="386.0669">court_sid</text><!--link courtord to notice--><path d="M917.112,343.216 C905.88,359.325 892.468,376.309 878,390 C860.257,406.791 838.537,422.062 818.062,434.705 " fill="none" id="courtord-notice" style="stroke: #A80036; stroke-width: 1.0;"/><polygon fill="#A80036" points="813.714,437.362,823.4791,436.0806,817.98,434.7541,819.3065,429.255,813.714,437.362" style="stroke: #A80036; stroke-width: 1.0;"/><text fill="#000000" font-family="sans-serif" font-size="13" lengthAdjust="spacingAndGlyphs" textLength="64" x="894" y="386.0669">notice_sid</text><!--link notice to tenagree--><path d="M686.491,514.421 C680.651,517.792 674.764,521.036 669,524 C597.161,560.9402 507.787,590.0521 453.093,606.1392 " fill="none" id="notice-tenagree" style="stroke: #A80036; stroke-width: 1.0;"/><polygon fill="#A80036" points="448.237,607.56,457.9982,608.8713,453.0357,606.1557,455.7513,601.1933,448.237,607.56" style="stroke: #A80036; stroke-width: 1.0;"/><text fill="#000000" font-family="sans-serif" font-size="13" lengthAdjust="spacingAndGlyphs" textLength="83" x="600" y="567.0669">tenagree_sid</text><!--link warrant to court--><path d="M789.013,343.104 C792.55,359.668 798.864,376.943 810,390 C841.894,427.394 894.052,447.938 935.812,458.97 " fill="none" id="warrant-court" style="stroke: #A80036; stroke-width: 1.0;"/><polygon fill="#A80036" points="940.851,460.269,933.135,454.1482,936.0094,459.0204,931.1373,461.8948,940.851,460.269" style="stroke: #A80036; stroke-width: 1.0;"/><text fill="#000000" font-family="sans-serif" font-size="13" lengthAdjust="spacingAndGlyphs" textLength="58" x="811" y="386.0669">court_sid</text><!--link warrant to notice--><path d="M725.163,343.31 C718.173,352.497 712.088,362.491 708,373 C702.162,388.009 705.143,404.135 711.622,418.885 " fill="none" id="warrant-notice" style="stroke: #A80036; stroke-width: 1.0;"/><polygon fill="#A80036" points="713.74,423.416,713.5532,413.5689,711.623,418.8863,706.3056,416.9561,713.74,423.416" style="stroke: #A80036; stroke-width: 1.0;"/><text fill="#000000" font-family="sans-serif" font-size="13" lengthAdjust="spacingAndGlyphs" textLength="64" x="709" y="386.0669">notice_sid</text><!--
@startuml
hide methods
hide stereotypes

class aracthis as "aracthis" << (T,#FFAAAA) >> {
<b>tstamp</b> <i>timestamp</i>
<u>tag_ref</u> <i>char[11]</i>

<i>+ 13 columns</i>
}


class araction as "araction\n(Arrears Action Diary)" << (T,#FFAAAA) >> {
<b>tstamp</b> <i>timestamp</i>
<u>action_code</u> <i>char[3]</i>
<u>courtord_sid</u> <i>int[4]</i>
<u>notice_sid</u> <i>int[4]</i>
<u>tag_ref</u> <i>char[11]</i>
<u>warrant_sid</u> <i>int[4]</i>

<i>+ 24 columns</i>
}


class arag as "arag" << (T,#FFAAAA) >> {
<b>arag_ref</b> <i>char[15]</i>
<b>tstamp</b> <i>timestamp</i>
<u>tag_ref</u> <i>char[11]</i>

<i>+ 32 columns</i>
}


class aragdet as "aragdet" << (T,#FFAAAA) >> {
<b>tstamp</b> <i>timestamp</i>
<u>arag_sid</u> <i>int[4]</i>

<i>+ 8 columns</i>
}


class araghist as "araghist" << (T,#FFAAAA) >> {
<b>tstamp</b> <i>timestamp</i>
<u>arag_ref</u> <i>char[15]</i>

<i>+ 9 columns</i>
}


class aranalysis as "aranalysis" << (T,#FFAAAA) >> {

<i>+ 12 columns</i>
}


class arbatch as "arbatch" << (T,#FFAAAA) >> {
<b>tstamp</b> <i>timestamp</i>
<u>tag_ref</u> <i>char[11]</i>

<i>+ 8 columns</i>
}


class arpolicy as "arpolicy" << (T,#FFAAAA) >> {
<b>arp_seq</b> <i>int[4]</i>
<b>tstamp</b> <i>timestamp</i>

<i>+ 6 columns</i>
}


class arpolicydata as "arpolicydata" << (T,#FFAAAA) >> {
<u>tag_ref</u> <i>char[11]</i>

<i>+ 8 columns</i>
}


class court as "court\n(Courts)" << (T,#FFAAAA) >> {
<b>tstamp</b> <i>timestamp</i>

<i>+ 7 columns</i>
}


class courtord as "courtord\n(Court Orders)" << (T,#FFAAAA) >> {
<b>tstamp</b> <i>timestamp</i>
<u>court_sid</u> <i>int[4]</i>
<u>notice_sid</u> <i>int[4]</i>

<i>+ 15 columns</i>
}


class notice as "notice\n(Court Notices)" << (T,#FFAAAA) >> {
<b>tstamp</b> <i>timestamp</i>
<u>tenagree_sid</u> <i>int[4]</i>

<i>+ 26 columns</i>
}


class warrant as "warrant\n(Court Warrants)" << (T,#FFAAAA) >> {
<b>tstamp</b> <i>timestamp</i>
<u>court_sid</u> <i>int[4]</i>
<u>notice_sid</u> <i>int[4]</i>

<i>+ 11 columns</i>
}


aracthis - -> tenagree : "tag_ref"
araction - -> arpolicy : "action_code"
araction - -> courtord : "courtord_sid"
araction - -> notice : "notice_sid"
araction - -> tenagree : "tag_ref"
araction - -> warrant : "warrant_sid"
arag - -> tenagree : "tag_ref"
aragdet - -> arag : "arag_sid"
araghist - -> arag : "arag_ref"

arbatch - -> tenagree : "tag_ref"

arpolicydata - -> tenagree : "tag_ref"

courtord - -> court : "court_sid"
courtord - -> notice : "notice_sid"
notice - -> tenagree : "tenagree_sid"
warrant - -> court : "court_sid"
warrant - -> notice : "notice_sid"
@enduml

PlantUML version 1.2019.08(Sat Jul 13 19:25:14 UTC 2019)
(GPL source distribution)
Java Runtime: OpenJDK Runtime Environment
JVM: OpenJDK 64-Bit Server VM
Java Version: 1.8.0_131-8u131-b11-1~bpo8+1-b11
Operating System: Linux
OS Version: 4.15.0-1043-aws
Default Encoding: UTF-8
Language: en
Country: null
--></g></svg>