<?xml version="1.0" encoding="UTF-8" standalone="no"?><svg xmlns="http://www.w3.org/2000/svg" xmlns:xlink="http://www.w3.org/1999/xlink" contentScriptType="application/ecmascript" contentStyleType="text/css" height="996px" preserveAspectRatio="none" style="width:680px;height:996px;" version="1.1" viewBox="0 0 680 996" width="680px" zoomAndPan="magnify"><defs><filter height="300%" id="furmqoj5kkm3p" width="300%" x="-1" y="-1"><feGaussianBlur result="blurOut" stdDeviation="2.0"/><feColorMatrix in="blurOut" result="blurOut2" type="matrix" values="0 0 0 0 0 0 0 0 0 0 0 0 0 0 0 0 0 0 .4 0"/><feOffset dx="4.0" dy="4.0" in="blurOut2" result="blurOut3"/><feBlend in="SourceGraphic" in2="blurOut3" mode="normal"/></filter></defs><g><!--class conlog--><rect fill="#FEFECE" filter="url(#furmqoj5kkm3p)" height="442.8828" id="conlog" style="stroke: #A80036; stroke-width: 1.5;" width="192" x="225" y="425"/><ellipse cx="274.25" cy="443.9688" fill="#FFAAAA" rx="11" ry="11" style="stroke: #A80036; stroke-width: 1.0;"/><path d="M275.0938,450.7188 L272.6406,450.7188 L272.6406,440.4688 L269.5,440.4688 L269.5,438.3281 L278.2344,438.3281 L278.2344,440.4688 L275.0938,440.4688 L275.0938,450.7188 Z "/><text fill="#000000" font-family="sans-serif" font-size="12" lengthAdjust="spacingAndGlyphs" textLength="42" x="316.25" y="441.1387">conlog</text><text fill="#000000" font-family="sans-serif" font-size="12" lengthAdjust="spacingAndGlyphs" textLength="85" x="294.75" y="455.1074">(Contact Log)</text><line style="stroke: #A80036; stroke-width: 1.5;" x1="226" x2="416" y1="462.9375" y2="462.9375"/><text fill="#000000" font-family="sans-serif" font-size="11" font-weight="bold" lengthAdjust="spacingAndGlyphs" textLength="55" x="231" y="477.1479">clog_key</text><text fill="#000000" font-family="sans-serif" font-size="11" lengthAdjust="spacingAndGlyphs" textLength="0" x="290" y="477.1479"/><text fill="#000000" font-family="sans-serif" font-size="11" font-style="italic" lengthAdjust="spacingAndGlyphs" textLength="29" x="290" y="477.1479">int[4]</text><text fill="#000000" font-family="sans-serif" font-size="11" font-weight="bold" lengthAdjust="spacingAndGlyphs" textLength="44" x="231" y="489.9526">tstamp</text><text fill="#000000" font-family="sans-serif" font-size="11" lengthAdjust="spacingAndGlyphs" textLength="0" x="279" y="489.9526"/><text fill="#000000" font-family="sans-serif" font-size="11" font-style="italic" lengthAdjust="spacingAndGlyphs" textLength="60" x="279" y="489.9526">timestamp</text><text fill="#000000" font-family="sans-serif" font-size="11" lengthAdjust="spacingAndGlyphs" text-decoration="underline" textLength="43" x="231" y="502.7573">app_ref</text><text fill="#000000" font-family="sans-serif" font-size="11" lengthAdjust="spacingAndGlyphs" textLength="0" x="278" y="502.7573"/><text fill="#000000" font-family="sans-serif" font-size="11" font-style="italic" lengthAdjust="spacingAndGlyphs" textLength="47" x="278" y="502.7573">char[10]</text><text fill="#000000" font-family="sans-serif" font-size="11" lengthAdjust="spacingAndGlyphs" text-decoration="underline" textLength="57" x="231" y="515.562">house_ref</text><text fill="#000000" font-family="sans-serif" font-size="11" lengthAdjust="spacingAndGlyphs" textLength="0" x="292" y="515.562"/><text fill="#000000" font-family="sans-serif" font-size="11" font-style="italic" lengthAdjust="spacingAndGlyphs" textLength="47" x="292" y="515.562">char[10]</text><text fill="#000000" font-family="sans-serif" font-size="11" lengthAdjust="spacingAndGlyphs" text-decoration="underline" textLength="48" x="231" y="528.3667">prop_ref</text><text fill="#000000" font-family="sans-serif" font-size="11" lengthAdjust="spacingAndGlyphs" textLength="0" x="283" y="528.3667"/><text fill="#000000" font-family="sans-serif" font-size="11" font-style="italic" lengthAdjust="spacingAndGlyphs" textLength="47" x="283" y="528.3667">char[12]</text><text fill="#000000" font-family="sans-serif" font-size="11" lengthAdjust="spacingAndGlyphs" text-decoration="underline" textLength="43" x="231" y="541.1714">sup_ref</text><text fill="#000000" font-family="sans-serif" font-size="11" lengthAdjust="spacingAndGlyphs" textLength="0" x="278" y="541.1714"/><text fill="#000000" font-family="sans-serif" font-size="11" font-style="italic" lengthAdjust="spacingAndGlyphs" textLength="47" x="278" y="541.1714">char[12]</text><text fill="#000000" font-family="sans-serif" font-size="11" lengthAdjust="spacingAndGlyphs" text-decoration="underline" textLength="40" x="231" y="553.9761">tag_ref</text><text fill="#000000" font-family="sans-serif" font-size="11" lengthAdjust="spacingAndGlyphs" textLength="0" x="275" y="553.9761"/><text fill="#000000" font-family="sans-serif" font-size="11" font-style="italic" lengthAdjust="spacingAndGlyphs" textLength="47" x="275" y="553.9761">char[11]</text><text fill="#000000" font-family="sans-serif" font-size="11" lengthAdjust="spacingAndGlyphs" textLength="116" x="231" y="566.7808">clog_actioncomment</text><text fill="#000000" font-family="sans-serif" font-size="11" font-style="italic" lengthAdjust="spacingAndGlyphs" textLength="22" x="351" y="566.7808">text</text><text fill="#000000" font-family="sans-serif" font-size="11" lengthAdjust="spacingAndGlyphs" textLength="88" x="231" y="579.5854">clog_actiondate</text><text fill="#000000" font-family="sans-serif" font-size="11" font-style="italic" lengthAdjust="spacingAndGlyphs" textLength="50" x="323" y="579.5854">datetime</text><text fill="#000000" font-family="sans-serif" font-size="11" lengthAdjust="spacingAndGlyphs" textLength="77" x="231" y="592.3901">clog_actioned</text><text fill="#000000" font-family="sans-serif" font-size="11" font-style="italic" lengthAdjust="spacingAndGlyphs" textLength="14" x="312" y="592.3901">bit</text><text fill="#000000" font-family="sans-serif" font-size="11" lengthAdjust="spacingAndGlyphs" textLength="99" x="231" y="605.1948">clog_actionstatus</text><text fill="#000000" font-family="sans-serif" font-size="11" font-style="italic" lengthAdjust="spacingAndGlyphs" textLength="40" x="334" y="605.1948">char[3]</text><text fill="#000000" font-family="sans-serif" font-size="11" lengthAdjust="spacingAndGlyphs" textLength="51" x="231" y="617.9995">clog_attn</text><text fill="#000000" font-family="sans-serif" font-size="11" font-style="italic" lengthAdjust="spacingAndGlyphs" textLength="40" x="286" y="617.9995">char[3]</text><text fill="#000000" font-family="sans-serif" font-size="11" lengthAdjust="spacingAndGlyphs" textLength="78" x="231" y="630.8042">clog_category</text><text fill="#000000" font-family="sans-serif" font-size="11" font-style="italic" lengthAdjust="spacingAndGlyphs" textLength="40" x="313" y="630.8042">char[3]</text><text fill="#000000" font-family="sans-serif" font-size="11" lengthAdjust="spacingAndGlyphs" textLength="54" x="231" y="643.6089">clog_date</text><text fill="#000000" font-family="sans-serif" font-size="11" font-style="italic" lengthAdjust="spacingAndGlyphs" textLength="50" x="289" y="643.6089">datetime</text><text fill="#000000" font-family="sans-serif" font-size="11" lengthAdjust="spacingAndGlyphs" textLength="67" x="231" y="656.4136">clog_details</text><text fill="#000000" font-family="sans-serif" font-size="11" font-style="italic" lengthAdjust="spacingAndGlyphs" textLength="22" x="302" y="656.4136">text</text><text fill="#000000" font-family="sans-serif" font-size="11" lengthAdjust="spacingAndGlyphs" textLength="81" x="231" y="669.2183">clog_extern_id</text><text fill="#000000" font-family="sans-serif" font-size="11" font-style="italic" lengthAdjust="spacingAndGlyphs" textLength="29" x="316" y="669.2183">int[4]</text><text fill="#000000" font-family="sans-serif" font-size="11" lengthAdjust="spacingAndGlyphs" textLength="110" x="231" y="682.0229">clog_extern_source</text><text fill="#000000" font-family="sans-serif" font-size="11" font-style="italic" lengthAdjust="spacingAndGlyphs" textLength="66" x="345" y="682.0229">varchar[50]</text><text fill="#000000" font-family="sans-serif" font-size="11" lengthAdjust="spacingAndGlyphs" textLength="72" x="231" y="694.8276">clog_general</text><text fill="#000000" font-family="sans-serif" font-size="11" font-style="italic" lengthAdjust="spacingAndGlyphs" textLength="35" x="307" y="694.8276">image</text><text fill="#000000" font-family="sans-serif" font-size="11" lengthAdjust="spacingAndGlyphs" textLength="57" x="231" y="707.6323">clog_telno</text><text fill="#000000" font-family="sans-serif" font-size="11" font-style="italic" lengthAdjust="spacingAndGlyphs" textLength="66" x="292" y="707.6323">varchar[50]</text><text fill="#000000" font-family="sans-serif" font-size="11" lengthAdjust="spacingAndGlyphs" textLength="53" x="231" y="720.437">clog_type</text><text fill="#000000" font-family="sans-serif" font-size="11" font-style="italic" lengthAdjust="spacingAndGlyphs" textLength="40" x="288" y="720.437">char[3]</text><text fill="#000000" font-family="sans-serif" font-size="11" lengthAdjust="spacingAndGlyphs" textLength="84" x="231" y="733.2417">comp_address</text><text fill="#000000" font-family="sans-serif" font-size="11" font-style="italic" lengthAdjust="spacingAndGlyphs" textLength="22" x="319" y="733.2417">text</text><text fill="#000000" font-family="sans-serif" font-size="11" lengthAdjust="spacingAndGlyphs" textLength="63" x="231" y="746.0464">comp_avail</text><text fill="#000000" font-family="sans-serif" font-size="11" font-style="italic" lengthAdjust="spacingAndGlyphs" textLength="54" x="298" y="746.0464">char[200]</text><text fill="#000000" font-family="sans-serif" font-size="11" lengthAdjust="spacingAndGlyphs" textLength="77" x="231" y="758.8511">comp_display</text><text fill="#000000" font-family="sans-serif" font-size="11" font-style="italic" lengthAdjust="spacingAndGlyphs" textLength="54" x="312" y="758.8511">char[200]</text><text fill="#000000" font-family="sans-serif" font-size="11" lengthAdjust="spacingAndGlyphs" textLength="51" x="231" y="771.6558">comp_tel</text><text fill="#000000" font-family="sans-serif" font-size="11" font-style="italic" lengthAdjust="spacingAndGlyphs" textLength="47" x="286" y="771.6558">char[20]</text><text fill="#000000" font-family="sans-serif" font-size="11" lengthAdjust="spacingAndGlyphs" textLength="69" x="231" y="784.4604">complainant</text><text fill="#000000" font-family="sans-serif" font-size="11" font-style="italic" lengthAdjust="spacingAndGlyphs" textLength="47" x="304" y="784.4604">char[20]</text><text fill="#000000" font-family="sans-serif" font-size="11" lengthAdjust="spacingAndGlyphs" textLength="55" x="231" y="797.2651">comptype</text><text fill="#000000" font-family="sans-serif" font-size="11" font-style="italic" lengthAdjust="spacingAndGlyphs" textLength="40" x="290" y="797.2651">char[3]</text><text fill="#000000" font-family="sans-serif" font-size="11" lengthAdjust="spacingAndGlyphs" textLength="45" x="231" y="810.0698">con_key</text><text fill="#000000" font-family="sans-serif" font-size="11" font-style="italic" lengthAdjust="spacingAndGlyphs" textLength="29" x="280" y="810.0698">int[4]</text><text fill="#000000" font-family="sans-serif" font-size="11" lengthAdjust="spacingAndGlyphs" textLength="60" x="231" y="822.8745">conlog_sid</text><text fill="#000000" font-family="sans-serif" font-size="11" font-style="italic" lengthAdjust="spacingAndGlyphs" textLength="29" x="295" y="822.8745">int[4]</text><text fill="#000000" font-family="sans-serif" font-size="11" lengthAdjust="spacingAndGlyphs" textLength="78" x="231" y="835.6792">firstcomplaint</text><text fill="#000000" font-family="sans-serif" font-size="11" font-style="italic" lengthAdjust="spacingAndGlyphs" textLength="14" x="313" y="835.6792">bit</text><text fill="#000000" font-family="sans-serif" font-size="11" lengthAdjust="spacingAndGlyphs" textLength="55" x="231" y="848.4839">ole_name</text><text fill="#000000" font-family="sans-serif" font-size="11" font-style="italic" lengthAdjust="spacingAndGlyphs" textLength="47" x="290" y="848.4839">char[50]</text><text fill="#000000" font-family="sans-serif" font-size="11" lengthAdjust="spacingAndGlyphs" textLength="59" x="231" y="861.2886">user_code</text><text fill="#000000" font-family="sans-serif" font-size="11" font-style="italic" lengthAdjust="spacingAndGlyphs" textLength="40" x="294" y="861.2886">char[3]</text><!--class contacts--><rect fill="#FEFECE" filter="url(#furmqoj5kkm3p)" height="340.4453" id="contacts" style="stroke: #A80036; stroke-width: 1.5;" width="147" x="385.5" y="8"/><ellipse cx="422.55" cy="26.9688" fill="#FFAAAA" rx="11" ry="11" style="stroke: #A80036; stroke-width: 1.0;"/><path d="M423.3938,33.7188 L420.9406,33.7188 L420.9406,23.4688 L417.8,23.4688 L417.8,21.3281 L426.5344,21.3281 L426.5344,23.4688 L423.3938,23.4688 L423.3938,33.7188 Z "/><text fill="#000000" font-family="sans-serif" font-size="12" lengthAdjust="spacingAndGlyphs" textLength="55" x="446.95" y="24.1387">contacts</text><text fill="#000000" font-family="sans-serif" font-size="12" lengthAdjust="spacingAndGlyphs" textLength="66" x="441.45" y="38.1074">(Contacts)</text><line style="stroke: #A80036; stroke-width: 1.5;" x1="386.5" x2="531.5" y1="45.9375" y2="45.9375"/><text fill="#000000" font-family="sans-serif" font-size="11" font-weight="bold" lengthAdjust="spacingAndGlyphs" textLength="51" x="391.5" y="60.1479">con_key</text><text fill="#000000" font-family="sans-serif" font-size="11" lengthAdjust="spacingAndGlyphs" textLength="0" x="446.5" y="60.1479"/><text fill="#000000" font-family="sans-serif" font-size="11" font-style="italic" lengthAdjust="spacingAndGlyphs" textLength="29" x="446.5" y="60.1479">int[4]</text><text fill="#000000" font-family="sans-serif" font-size="11" font-weight="bold" lengthAdjust="spacingAndGlyphs" textLength="44" x="391.5" y="72.9526">tstamp</text><text fill="#000000" font-family="sans-serif" font-size="11" lengthAdjust="spacingAndGlyphs" textLength="0" x="439.5" y="72.9526"/><text fill="#000000" font-family="sans-serif" font-size="11" font-style="italic" lengthAdjust="spacingAndGlyphs" textLength="60" x="439.5" y="72.9526">timestamp</text><text fill="#000000" font-family="sans-serif" font-size="11" lengthAdjust="spacingAndGlyphs" text-decoration="underline" textLength="43" x="391.5" y="85.7573">app_ref</text><text fill="#000000" font-family="sans-serif" font-size="11" lengthAdjust="spacingAndGlyphs" textLength="0" x="438.5" y="85.7573"/><text fill="#000000" font-family="sans-serif" font-size="11" font-style="italic" lengthAdjust="spacingAndGlyphs" textLength="47" x="438.5" y="85.7573">char[10]</text><text fill="#000000" font-family="sans-serif" font-size="11" lengthAdjust="spacingAndGlyphs" text-decoration="underline" textLength="48" x="391.5" y="98.562">prop_ref</text><text fill="#000000" font-family="sans-serif" font-size="11" lengthAdjust="spacingAndGlyphs" textLength="0" x="443.5" y="98.562"/><text fill="#000000" font-family="sans-serif" font-size="11" font-style="italic" lengthAdjust="spacingAndGlyphs" textLength="47" x="443.5" y="98.562">char[12]</text><text fill="#000000" font-family="sans-serif" font-size="11" lengthAdjust="spacingAndGlyphs" text-decoration="underline" textLength="40" x="391.5" y="111.3667">tag_ref</text><text fill="#000000" font-family="sans-serif" font-size="11" lengthAdjust="spacingAndGlyphs" textLength="0" x="435.5" y="111.3667"/><text fill="#000000" font-family="sans-serif" font-size="11" font-style="italic" lengthAdjust="spacingAndGlyphs" textLength="47" x="435.5" y="111.3667">char[11]</text><text fill="#000000" font-family="sans-serif" font-size="11" lengthAdjust="spacingAndGlyphs" textLength="63" x="391.5" y="124.1714">comp_avail</text><text fill="#000000" font-family="sans-serif" font-size="11" font-style="italic" lengthAdjust="spacingAndGlyphs" textLength="54" x="458.5" y="124.1714">char[200]</text><text fill="#000000" font-family="sans-serif" font-size="11" lengthAdjust="spacingAndGlyphs" textLength="77" x="391.5" y="136.9761">comp_display</text><text fill="#000000" font-family="sans-serif" font-size="11" font-style="italic" lengthAdjust="spacingAndGlyphs" textLength="54" x="472.5" y="136.9761">char[200]</text><text fill="#000000" font-family="sans-serif" font-size="11" lengthAdjust="spacingAndGlyphs" textLength="73" x="391.5" y="149.7808">con_address</text><text fill="#000000" font-family="sans-serif" font-size="11" font-style="italic" lengthAdjust="spacingAndGlyphs" textLength="54" x="468.5" y="149.7808">char[200]</text><text fill="#000000" font-family="sans-serif" font-size="11" lengthAdjust="spacingAndGlyphs" textLength="58" x="391.5" y="162.5854">con_name</text><text fill="#000000" font-family="sans-serif" font-size="11" font-style="italic" lengthAdjust="spacingAndGlyphs" textLength="66" x="453.5" y="162.5854">varchar[73]</text><text fill="#000000" font-family="sans-serif" font-size="11" lengthAdjust="spacingAndGlyphs" textLength="68" x="391.5" y="175.3901">con_phone1</text><text fill="#000000" font-family="sans-serif" font-size="11" font-style="italic" lengthAdjust="spacingAndGlyphs" textLength="47" x="463.5" y="175.3901">char[21]</text><text fill="#000000" font-family="sans-serif" font-size="11" lengthAdjust="spacingAndGlyphs" textLength="68" x="391.5" y="188.1948">con_phone2</text><text fill="#000000" font-family="sans-serif" font-size="11" font-style="italic" lengthAdjust="spacingAndGlyphs" textLength="47" x="463.5" y="188.1948">char[21]</text><text fill="#000000" font-family="sans-serif" font-size="11" lengthAdjust="spacingAndGlyphs" textLength="68" x="391.5" y="200.9995">con_phone3</text><text fill="#000000" font-family="sans-serif" font-size="11" font-style="italic" lengthAdjust="spacingAndGlyphs" textLength="47" x="463.5" y="200.9995">char[21]</text><text fill="#000000" font-family="sans-serif" font-size="11" lengthAdjust="spacingAndGlyphs" textLength="78" x="391.5" y="213.8042">con_postcode</text><text fill="#000000" font-family="sans-serif" font-size="11" font-style="italic" lengthAdjust="spacingAndGlyphs" textLength="47" x="473.5" y="213.8042">char[10]</text><text fill="#000000" font-family="sans-serif" font-size="11" lengthAdjust="spacingAndGlyphs" textLength="42" x="391.5" y="226.6089">con_ref</text><text fill="#000000" font-family="sans-serif" font-size="11" font-style="italic" lengthAdjust="spacingAndGlyphs" textLength="47" x="437.5" y="226.6089">char[12]</text><text fill="#000000" font-family="sans-serif" font-size="11" lengthAdjust="spacingAndGlyphs" textLength="50" x="391.5" y="239.4136">con_type</text><text fill="#000000" font-family="sans-serif" font-size="11" font-style="italic" lengthAdjust="spacingAndGlyphs" textLength="40" x="445.5" y="239.4136">char[1]</text><text fill="#000000" font-family="sans-serif" font-size="11" lengthAdjust="spacingAndGlyphs" textLength="71" x="391.5" y="252.2183">contacts_sid</text><text fill="#000000" font-family="sans-serif" font-size="11" font-style="italic" lengthAdjust="spacingAndGlyphs" textLength="29" x="466.5" y="252.2183">int[4]</text><text fill="#000000" font-family="sans-serif" font-size="11" lengthAdjust="spacingAndGlyphs" textLength="84" x="391.5" y="265.0229">email_address</text><text fill="#000000" font-family="sans-serif" font-size="11" font-style="italic" lengthAdjust="spacingAndGlyphs" textLength="47" x="479.5" y="265.0229">char[50]</text><text fill="#000000" font-family="sans-serif" font-size="11" lengthAdjust="spacingAndGlyphs" textLength="67" x="391.5" y="277.8276">intcomment</text><text fill="#000000" font-family="sans-serif" font-size="11" font-style="italic" lengthAdjust="spacingAndGlyphs" textLength="22" x="462.5" y="277.8276">text</text><text fill="#000000" font-family="sans-serif" font-size="11" lengthAdjust="spacingAndGlyphs" textLength="54" x="391.5" y="290.6323">intreason</text><text fill="#000000" font-family="sans-serif" font-size="11" font-style="italic" lengthAdjust="spacingAndGlyphs" textLength="40" x="449.5" y="290.6323">char[3]</text><text fill="#000000" font-family="sans-serif" font-size="11" lengthAdjust="spacingAndGlyphs" textLength="69" x="391.5" y="303.437">loccomment</text><text fill="#000000" font-family="sans-serif" font-size="11" font-style="italic" lengthAdjust="spacingAndGlyphs" textLength="22" x="464.5" y="303.437">text</text><text fill="#000000" font-family="sans-serif" font-size="11" lengthAdjust="spacingAndGlyphs" textLength="56" x="391.5" y="316.2417">locreason</text><text fill="#000000" font-family="sans-serif" font-size="11" font-style="italic" lengthAdjust="spacingAndGlyphs" textLength="40" x="451.5" y="316.2417">char[3]</text><text fill="#000000" font-family="sans-serif" font-size="11" lengthAdjust="spacingAndGlyphs" textLength="73" x="391.5" y="329.0464">vuncomment</text><text fill="#000000" font-family="sans-serif" font-size="11" font-style="italic" lengthAdjust="spacingAndGlyphs" textLength="22" x="468.5" y="329.0464">text</text><text fill="#000000" font-family="sans-serif" font-size="11" lengthAdjust="spacingAndGlyphs" textLength="60" x="391.5" y="341.8511">vunreason</text><text fill="#000000" font-family="sans-serif" font-size="11" font-style="italic" lengthAdjust="spacingAndGlyphs" textLength="40" x="455.5" y="341.8511">char[3]</text><!--class wlapp--><rect fill="#FEFECE" filter="url(#furmqoj5kkm3p)" height="40" id="wlapp" style="stroke: #A80036; stroke-width: 1.5;" width="68" x="6" y="945"/><ellipse cx="21" cy="961" fill="#ADD1B2" rx="11" ry="11" style="stroke: #A80036; stroke-width: 1.0;"/><path d="M23.9688,966.6406 Q23.3906,966.9375 22.75,967.0859 Q22.1094,967.2344 21.4063,967.2344 Q18.9063,967.2344 17.5859,965.5859 Q16.2656,963.9375 16.2656,960.8125 Q16.2656,957.6875 17.5859,956.0313 Q18.9063,954.375 21.4063,954.375 Q22.1094,954.375 22.7578,954.5313 Q23.4063,954.6875 23.9688,954.9844 L23.9688,957.7031 Q23.3438,957.125 22.75,956.8516 Q22.1563,956.5781 21.5313,956.5781 Q20.1875,956.5781 19.5,957.6484 Q18.8125,958.7188 18.8125,960.8125 Q18.8125,962.9063 19.5,963.9766 Q20.1875,965.0469 21.5313,965.0469 Q22.1563,965.0469 22.75,964.7734 Q23.3438,964.5 23.9688,963.9219 L23.9688,966.6406 Z "/><text fill="#000000" font-family="sans-serif" font-size="12" lengthAdjust="spacingAndGlyphs" textLength="36" x="35" y="965.1543">wlapp</text><line style="stroke: #A80036; stroke-width: 1.5;" x1="7" x2="73" y1="977" y2="977"/><!--class househ--><rect fill="#FEFECE" filter="url(#furmqoj5kkm3p)" height="40" id="househ" style="stroke: #A80036; stroke-width: 1.5;" width="79" x="126.5" y="945"/><ellipse cx="141.5" cy="961" fill="#ADD1B2" rx="11" ry="11" style="stroke: #A80036; stroke-width: 1.0;"/><path d="M144.4688,966.6406 Q143.8906,966.9375 143.25,967.0859 Q142.6094,967.2344 141.9063,967.2344 Q139.4063,967.2344 138.0859,965.5859 Q136.7656,963.9375 136.7656,960.8125 Q136.7656,957.6875 138.0859,956.0313 Q139.4063,954.375 141.9063,954.375 Q142.6094,954.375 143.2578,954.5313 Q143.9063,954.6875 144.4688,954.9844 L144.4688,957.7031 Q143.8438,957.125 143.25,956.8516 Q142.6563,956.5781 142.0313,956.5781 Q140.6875,956.5781 140,957.6484 Q139.3125,958.7188 139.3125,960.8125 Q139.3125,962.9063 140,963.9766 Q140.6875,965.0469 142.0313,965.0469 Q142.6563,965.0469 143.25,964.7734 Q143.8438,964.5 144.4688,963.9219 L144.4688,966.6406 Z "/><text fill="#000000" font-family="sans-serif" font-size="12" lengthAdjust="spacingAndGlyphs" textLength="47" x="155.5" y="965.1543">househ</text><line style="stroke: #A80036; stroke-width: 1.5;" x1="127.5" x2="204.5" y1="977" y2="977"/><!--class property--><rect fill="#FEFECE" filter="url(#furmqoj5kkm3p)" height="40" id="property" style="stroke: #A80036; stroke-width: 1.5;" width="85" x="423.5" y="945"/><ellipse cx="438.5" cy="961" fill="#ADD1B2" rx="11" ry="11" style="stroke: #A80036; stroke-width: 1.0;"/><path d="M441.4688,966.6406 Q440.8906,966.9375 440.25,967.0859 Q439.6094,967.2344 438.9063,967.2344 Q436.4063,967.2344 435.0859,965.5859 Q433.7656,963.9375 433.7656,960.8125 Q433.7656,957.6875 435.0859,956.0313 Q436.4063,954.375 438.9063,954.375 Q439.6094,954.375 440.2578,954.5313 Q440.9063,954.6875 441.4688,954.9844 L441.4688,957.7031 Q440.8438,957.125 440.25,956.8516 Q439.6563,956.5781 439.0313,956.5781 Q437.6875,956.5781 437,957.6484 Q436.3125,958.7188 436.3125,960.8125 Q436.3125,962.9063 437,963.9766 Q437.6875,965.0469 439.0313,965.0469 Q439.6563,965.0469 440.25,964.7734 Q440.8438,964.5 441.4688,963.9219 L441.4688,966.6406 Z "/><text fill="#000000" font-family="sans-serif" font-size="12" lengthAdjust="spacingAndGlyphs" textLength="53" x="452.5" y="965.1543">property</text><line style="stroke: #A80036; stroke-width: 1.5;" x1="424.5" x2="507.5" y1="977" y2="977"/><!--class supplier--><rect fill="#FEFECE" filter="url(#furmqoj5kkm3p)" height="40" id="supplier" style="stroke: #A80036; stroke-width: 1.5;" width="82" x="241" y="945"/><ellipse cx="256" cy="961" fill="#ADD1B2" rx="11" ry="11" style="stroke: #A80036; stroke-width: 1.0;"/><path d="M258.9688,966.6406 Q258.3906,966.9375 257.75,967.0859 Q257.1094,967.2344 256.4063,967.2344 Q253.9063,967.2344 252.5859,965.5859 Q251.2656,963.9375 251.2656,960.8125 Q251.2656,957.6875 252.5859,956.0313 Q253.9063,954.375 256.4063,954.375 Q257.1094,954.375 257.7578,954.5313 Q258.4063,954.6875 258.9688,954.9844 L258.9688,957.7031 Q258.3438,957.125 257.75,956.8516 Q257.1563,956.5781 256.5313,956.5781 Q255.1875,956.5781 254.5,957.6484 Q253.8125,958.7188 253.8125,960.8125 Q253.8125,962.9063 254.5,963.9766 Q255.1875,965.0469 256.5313,965.0469 Q257.1563,965.0469 257.75,964.7734 Q258.3438,964.5 258.9688,963.9219 L258.9688,966.6406 Z "/><text fill="#000000" font-family="sans-serif" font-size="12" lengthAdjust="spacingAndGlyphs" textLength="50" x="270" y="965.1543">supplier</text><line style="stroke: #A80036; stroke-width: 1.5;" x1="242" x2="322" y1="977" y2="977"/><!--class tenagree--><rect fill="#FEFECE" filter="url(#furmqoj5kkm3p)" height="40" id="tenagree" style="stroke: #A80036; stroke-width: 1.5;" width="90" x="577" y="945"/><ellipse cx="592" cy="961" fill="#ADD1B2" rx="11" ry="11" style="stroke: #A80036; stroke-width: 1.0;"/><path d="M594.9688,966.6406 Q594.3906,966.9375 593.75,967.0859 Q593.1094,967.2344 592.4063,967.2344 Q589.9063,967.2344 588.5859,965.5859 Q587.2656,963.9375 587.2656,960.8125 Q587.2656,957.6875 588.5859,956.0313 Q589.9063,954.375 592.4063,954.375 Q593.1094,954.375 593.7578,954.5313 Q594.4063,954.6875 594.9688,954.9844 L594.9688,957.7031 Q594.3438,957.125 593.75,956.8516 Q593.1563,956.5781 592.5313,956.5781 Q591.1875,956.5781 590.5,957.6484 Q589.8125,958.7188 589.8125,960.8125 Q589.8125,962.9063 590.5,963.9766 Q591.1875,965.0469 592.5313,965.0469 Q593.1563,965.0469 593.75,964.7734 Q594.3438,964.5 594.9688,963.9219 L594.9688,966.6406 Z "/><text fill="#000000" font-family="sans-serif" font-size="12" lengthAdjust="spacingAndGlyphs" textLength="58" x="606" y="965.1543">tenagree</text><line style="stroke: #A80036; stroke-width: 1.5;" x1="578" x2="666" y1="977" y2="977"/><!--link conlog to wlapp--><path d="M224.689,755.979 C165.519,822.623 94.7084,902.38 60.4995,940.9107 " fill="none" id="conlog-wlapp" style="stroke: #A80036; stroke-width: 1.0;"/><polygon fill="#A80036" points="56.9082,944.9557,65.8747,940.8811,60.2278,941.2167,59.8922,935.5698,56.9082,944.9557" style="stroke: #A80036; stroke-width: 1.0;"/><text fill="#000000" font-family="sans-serif" font-size="13" lengthAdjust="spacingAndGlyphs" textLength="48" x="95" y="911.0669">app_ref</text><!--link conlog to househ--><path d="M224.82,843.894 C205.911,882.503 188.581,917.8919 177.704,940.1015 " fill="none" id="conlog-househ" style="stroke: #A80036; stroke-width: 1.0;"/><polygon fill="#A80036" points="175.483,944.6372,183.034,938.3141,177.6823,940.1469,175.8495,934.7952,175.483,944.6372" style="stroke: #A80036; stroke-width: 1.0;"/><text fill="#000000" font-family="sans-serif" font-size="13" lengthAdjust="spacingAndGlyphs" textLength="63" x="197" y="911.0669">house_ref</text><!--link conlog to property--><path d="M337.382,868.257 C343.986,884.935 352.384,900.779 363,915 C376.489,933.0698 398.357,944.7592 418.481,952.1692 " fill="none" id="conlog-property" style="stroke: #A80036; stroke-width: 1.0;"/><polygon fill="#A80036" points="423.282,953.87,416.1329,947.0958,418.5687,952.2014,413.4631,954.6371,423.282,953.87" style="stroke: #A80036; stroke-width: 1.0;"/><text fill="#000000" font-family="sans-serif" font-size="13" lengthAdjust="spacingAndGlyphs" textLength="53" x="364" y="911.0669">prop_ref</text><!--link conlog to supplier--><path d="M277.284,868.133 C276.02,878.206 274.912,888.197 274,898 C272.709,911.8773 274.416,927.3471 276.58,939.8197 " fill="none" id="conlog-supplier" style="stroke: #A80036; stroke-width: 1.0;"/><polygon fill="#A80036" points="277.528,944.9682,279.8323,935.3927,276.6227,940.0508,271.9645,936.8412,277.528,944.9682" style="stroke: #A80036; stroke-width: 1.0;"/><text fill="#000000" font-family="sans-serif" font-size="13" lengthAdjust="spacingAndGlyphs" textLength="47" x="275" y="911.0669">sup_ref</text><!--link conlog to tenagree--><path d="M417.184,787.812 C439.015,815.688 463.143,843.794 488,868 C517.873,897.0909 557.15,924.1656 585.448,942.0954 " fill="none" id="conlog-tenagree" style="stroke: #A80036; stroke-width: 1.0;"/><polygon fill="#A80036" points="589.893,944.8934,584.4084,936.713,585.6619,942.2292,580.1457,943.4828,589.893,944.8934" style="stroke: #A80036; stroke-width: 1.0;"/><text fill="#000000" font-family="sans-serif" font-size="13" lengthAdjust="spacingAndGlyphs" textLength="45" x="544" y="911.0669">tag_ref</text><!--link contacts to wlapp--><path d="M385.348,219.118 C315.476,261.117 213.069,333.651 157,425 C49.7505,599.735 40.0584,859.223 39.758,939.4642 " fill="none" id="contacts-wlapp" style="stroke: #A80036; stroke-width: 1.0;"/><polygon fill="#A80036" points="39.7514,944.9281,43.7625,935.933,39.7575,939.9281,35.7625,935.9232,39.7514,944.9281" style="stroke: #A80036; stroke-width: 1.0;"/><text fill="#000000" font-family="sans-serif" font-size="13" lengthAdjust="spacingAndGlyphs" textLength="48" x="158" y="651.0669">app_ref</text><!--link contacts to conlog--><path d="M408.984,348.077 C402.078,371.422 394.897,395.697 387.748,419.864 " fill="none" id="contacts-conlog" style="stroke: #A80036; stroke-width: 1.0;"/><polygon fill="#A80036" points="386.318,424.695,392.7072,417.1998,387.7366,419.9005,385.0359,414.9299,386.318,424.695" style="stroke: #A80036; stroke-width: 1.0;"/><text fill="#000000" font-family="sans-serif" font-size="13" lengthAdjust="spacingAndGlyphs" textLength="52" x="400" y="391.0669">con_key</text><!--link contacts to property--><path d="M474.085,348.071 C486.278,493.666 502.453,709.483 509,898 C509.262,905.551 511.663,907.9291 509,915 C505.433,924.4732 499.11,933.308 492.392,940.7941 " fill="none" id="contacts-property" style="stroke: #A80036; stroke-width: 1.0;"/><polygon fill="#A80036" points="488.634,944.8098,497.7038,940.9707,492.0501,941.1587,491.8621,935.505,488.634,944.8098" style="stroke: #A80036; stroke-width: 1.0;"/><text fill="#000000" font-family="sans-serif" font-size="13" lengthAdjust="spacingAndGlyphs" textLength="53" x="509" y="651.0669">prop_ref</text><!--link contacts to tenagree--><path d="M532.6,319.438 C547.568,353.218 561.593,389.748 571,425 C622.596,618.339 623.647,862.869 622.538,939.7418 " fill="none" id="contacts-tenagree" style="stroke: #A80036; stroke-width: 1.0;"/><polygon fill="#A80036" points="622.455,944.9839,626.5969,936.0483,622.5341,939.9845,618.5979,935.9217,622.455,944.9839" style="stroke: #A80036; stroke-width: 1.0;"/><text fill="#000000" font-family="sans-serif" font-size="13" lengthAdjust="spacingAndGlyphs" textLength="45" x="623" y="651.0669">tag_ref</text><!--
@startuml
hide methods
hide stereotypes

class conlog as "conlog\n(Contact Log)" << (T,#FFAAAA) >> {
<b>clog_key</b> <i>int[4]</i>
<b>tstamp</b> <i>timestamp</i>
<u>app_ref</u> <i>char[10]</i>
<u>house_ref</u> <i>char[10]</i>
<u>prop_ref</u> <i>char[12]</i>
<u>sup_ref</u> <i>char[12]</i>
<u>tag_ref</u> <i>char[11]</i>
clog_actioncomment <i>text</i>
clog_actiondate <i>datetime</i>
clog_actioned <i>bit</i>
clog_actionstatus <i>char[3]</i>
clog_attn <i>char[3]</i>
clog_category <i>char[3]</i>
clog_date <i>datetime</i>
clog_details <i>text</i>
clog_extern_id <i>int[4]</i>
clog_extern_source <i>varchar[50]</i>
clog_general <i>image</i>
clog_telno <i>varchar[50]</i>
clog_type <i>char[3]</i>
comp_address <i>text</i>
comp_avail <i>char[200]</i>
comp_display <i>char[200]</i>
comp_tel <i>char[20]</i>
complainant <i>char[20]</i>
comptype <i>char[3]</i>
con_key <i>int[4]</i>
conlog_sid <i>int[4]</i>
firstcomplaint <i>bit</i>
ole_name <i>char[50]</i>
user_code <i>char[3]</i>
}


class contacts as "contacts\n(Contacts)" << (T,#FFAAAA) >> {
<b>con_key</b> <i>int[4]</i>
<b>tstamp</b> <i>timestamp</i>
<u>app_ref</u> <i>char[10]</i>
<u>prop_ref</u> <i>char[12]</i>
<u>tag_ref</u> <i>char[11]</i>
comp_avail <i>char[200]</i>
comp_display <i>char[200]</i>
con_address <i>char[200]</i>
con_name <i>varchar[73]</i>
con_phone1 <i>char[21]</i>
con_phone2 <i>char[21]</i>
con_phone3 <i>char[21]</i>
con_postcode <i>char[10]</i>
con_ref <i>char[12]</i>
con_type <i>char[1]</i>
contacts_sid <i>int[4]</i>
email_address <i>char[50]</i>
intcomment <i>text</i>
intreason <i>char[3]</i>
loccomment <i>text</i>
locreason <i>char[3]</i>
vuncomment <i>text</i>
vunreason <i>char[3]</i>
}


conlog - -> wlapp : "app_ref"
conlog - -> househ : "house_ref"
conlog - -> property : "prop_ref"
conlog - -> supplier : "sup_ref"
conlog - -> tenagree : "tag_ref"
contacts - -> wlapp : "app_ref"
contacts - -> conlog : "con_key"
contacts - -> property : "prop_ref"
contacts - -> tenagree : "tag_ref"
@enduml

PlantUML version 1.2019.08(Sat Jul 13 19:25:14 UTC 2019)
(GPL source distribution)
Java Runtime: OpenJDK Runtime Environment
JVM: OpenJDK 64-Bit Server VM
Java Version: 1.8.0_131-8u131-b11-1~bpo8+1-b11
Operating System: Linux
OS Version: 4.15.0-1043-aws
Default Encoding: UTF-8
Language: en
Country: null
--></g></svg>