<?xml version="1.0" encoding="UTF-8" standalone="no"?><svg xmlns="http://www.w3.org/2000/svg" xmlns:xlink="http://www.w3.org/1999/xlink" contentScriptType="application/ecmascript" contentStyleType="text/css" height="510px" preserveAspectRatio="none" style="width:678px;height:510px;" version="1.1" viewBox="0 0 678 510" width="678px" zoomAndPan="magnify"><defs><filter height="300%" id="ftrrfcz4sldtk" width="300%" x="-1" y="-1"><feGaussianBlur result="blurOut" stdDeviation="2.0"/><feColorMatrix in="blurOut" result="blurOut2" type="matrix" values="0 0 0 0 0 0 0 0 0 0 0 0 0 0 0 0 0 0 .4 0"/><feOffset dx="4.0" dy="4.0" in="blurOut2" result="blurOut3"/><feBlend in="SourceGraphic" in2="blurOut3" mode="normal"/></filter></defs><g><!--class conlog--><rect fill="#FEFECE" filter="url(#ftrrfcz4sldtk)" height="161.1797" id="conlog" style="stroke: #A80036; stroke-width: 1.5;" width="120" x="261" y="221"/><ellipse cx="277.35" cy="239.9688" fill="#FFAAAA" rx="11" ry="11" style="stroke: #A80036; stroke-width: 1.0;"/><path d="M278.1938,246.7188 L275.7406,246.7188 L275.7406,236.4688 L272.6,236.4688 L272.6,234.3281 L281.3344,234.3281 L281.3344,236.4688 L278.1938,236.4688 L278.1938,246.7188 Z "/><text fill="#000000" font-family="sans-serif" font-size="12" lengthAdjust="spacingAndGlyphs" textLength="42" x="313.15" y="237.1387">conlog</text><text fill="#000000" font-family="sans-serif" font-size="12" lengthAdjust="spacingAndGlyphs" textLength="85" x="291.65" y="251.1074">(Contact Log)</text><line style="stroke: #A80036; stroke-width: 1.5;" x1="262" x2="380" y1="258.9375" y2="258.9375"/><text fill="#000000" font-family="sans-serif" font-size="11" font-weight="bold" lengthAdjust="spacingAndGlyphs" textLength="55" x="267" y="273.1479">clog_key</text><text fill="#000000" font-family="sans-serif" font-size="11" lengthAdjust="spacingAndGlyphs" textLength="0" x="326" y="273.1479"/><text fill="#000000" font-family="sans-serif" font-size="11" font-style="italic" lengthAdjust="spacingAndGlyphs" textLength="29" x="326" y="273.1479">int[4]</text><text fill="#000000" font-family="sans-serif" font-size="11" font-weight="bold" lengthAdjust="spacingAndGlyphs" textLength="44" x="267" y="285.9526">tstamp</text><text fill="#000000" font-family="sans-serif" font-size="11" lengthAdjust="spacingAndGlyphs" textLength="0" x="315" y="285.9526"/><text fill="#000000" font-family="sans-serif" font-size="11" font-style="italic" lengthAdjust="spacingAndGlyphs" textLength="60" x="315" y="285.9526">timestamp</text><text fill="#000000" font-family="sans-serif" font-size="11" lengthAdjust="spacingAndGlyphs" text-decoration="underline" textLength="43" x="267" y="298.7573">app_ref</text><text fill="#000000" font-family="sans-serif" font-size="11" lengthAdjust="spacingAndGlyphs" textLength="0" x="314" y="298.7573"/><text fill="#000000" font-family="sans-serif" font-size="11" font-style="italic" lengthAdjust="spacingAndGlyphs" textLength="47" x="314" y="298.7573">char[10]</text><text fill="#000000" font-family="sans-serif" font-size="11" lengthAdjust="spacingAndGlyphs" text-decoration="underline" textLength="57" x="267" y="311.562">house_ref</text><text fill="#000000" font-family="sans-serif" font-size="11" lengthAdjust="spacingAndGlyphs" textLength="0" x="328" y="311.562"/><text fill="#000000" font-family="sans-serif" font-size="11" font-style="italic" lengthAdjust="spacingAndGlyphs" textLength="47" x="328" y="311.562">char[10]</text><text fill="#000000" font-family="sans-serif" font-size="11" lengthAdjust="spacingAndGlyphs" text-decoration="underline" textLength="48" x="267" y="324.3667">prop_ref</text><text fill="#000000" font-family="sans-serif" font-size="11" lengthAdjust="spacingAndGlyphs" textLength="0" x="319" y="324.3667"/><text fill="#000000" font-family="sans-serif" font-size="11" font-style="italic" lengthAdjust="spacingAndGlyphs" textLength="47" x="319" y="324.3667">char[12]</text><text fill="#000000" font-family="sans-serif" font-size="11" lengthAdjust="spacingAndGlyphs" text-decoration="underline" textLength="43" x="267" y="337.1714">sup_ref</text><text fill="#000000" font-family="sans-serif" font-size="11" lengthAdjust="spacingAndGlyphs" textLength="0" x="314" y="337.1714"/><text fill="#000000" font-family="sans-serif" font-size="11" font-style="italic" lengthAdjust="spacingAndGlyphs" textLength="47" x="314" y="337.1714">char[12]</text><text fill="#000000" font-family="sans-serif" font-size="11" lengthAdjust="spacingAndGlyphs" text-decoration="underline" textLength="40" x="267" y="349.9761">tag_ref</text><text fill="#000000" font-family="sans-serif" font-size="11" lengthAdjust="spacingAndGlyphs" textLength="0" x="311" y="349.9761"/><text fill="#000000" font-family="sans-serif" font-size="11" font-style="italic" lengthAdjust="spacingAndGlyphs" textLength="47" x="311" y="349.9761">char[11]</text><text fill="#000000" font-family="sans-serif" font-size="11" lengthAdjust="spacingAndGlyphs" textLength="0" x="271" y="362.7808"/><text fill="#000000" font-family="sans-serif" font-size="11" font-style="italic" lengthAdjust="spacingAndGlyphs" textLength="78" x="267" y="375.5854">+ 24 columns</text><!--class contacts--><rect fill="#FEFECE" filter="url(#ftrrfcz4sldtk)" height="135.5703" id="contacts" style="stroke: #A80036; stroke-width: 1.5;" width="120" x="399" y="8"/><ellipse cx="423.9" cy="26.9688" fill="#FFAAAA" rx="11" ry="11" style="stroke: #A80036; stroke-width: 1.0;"/><path d="M424.7438,33.7188 L422.2906,33.7188 L422.2906,23.4688 L419.15,23.4688 L419.15,21.3281 L427.8844,21.3281 L427.8844,23.4688 L424.7438,23.4688 L424.7438,33.7188 Z "/><text fill="#000000" font-family="sans-serif" font-size="12" lengthAdjust="spacingAndGlyphs" textLength="55" x="445.6" y="24.1387">contacts</text><text fill="#000000" font-family="sans-serif" font-size="12" lengthAdjust="spacingAndGlyphs" textLength="66" x="440.1" y="38.1074">(Contacts)</text><line style="stroke: #A80036; stroke-width: 1.5;" x1="400" x2="518" y1="45.9375" y2="45.9375"/><text fill="#000000" font-family="sans-serif" font-size="11" font-weight="bold" lengthAdjust="spacingAndGlyphs" textLength="51" x="405" y="60.1479">con_key</text><text fill="#000000" font-family="sans-serif" font-size="11" lengthAdjust="spacingAndGlyphs" textLength="0" x="460" y="60.1479"/><text fill="#000000" font-family="sans-serif" font-size="11" font-style="italic" lengthAdjust="spacingAndGlyphs" textLength="29" x="460" y="60.1479">int[4]</text><text fill="#000000" font-family="sans-serif" font-size="11" font-weight="bold" lengthAdjust="spacingAndGlyphs" textLength="44" x="405" y="72.9526">tstamp</text><text fill="#000000" font-family="sans-serif" font-size="11" lengthAdjust="spacingAndGlyphs" textLength="0" x="453" y="72.9526"/><text fill="#000000" font-family="sans-serif" font-size="11" font-style="italic" lengthAdjust="spacingAndGlyphs" textLength="60" x="453" y="72.9526">timestamp</text><text fill="#000000" font-family="sans-serif" font-size="11" lengthAdjust="spacingAndGlyphs" text-decoration="underline" textLength="43" x="405" y="85.7573">app_ref</text><text fill="#000000" font-family="sans-serif" font-size="11" lengthAdjust="spacingAndGlyphs" textLength="0" x="452" y="85.7573"/><text fill="#000000" font-family="sans-serif" font-size="11" font-style="italic" lengthAdjust="spacingAndGlyphs" textLength="47" x="452" y="85.7573">char[10]</text><text fill="#000000" font-family="sans-serif" font-size="11" lengthAdjust="spacingAndGlyphs" text-decoration="underline" textLength="48" x="405" y="98.562">prop_ref</text><text fill="#000000" font-family="sans-serif" font-size="11" lengthAdjust="spacingAndGlyphs" textLength="0" x="457" y="98.562"/><text fill="#000000" font-family="sans-serif" font-size="11" font-style="italic" lengthAdjust="spacingAndGlyphs" textLength="47" x="457" y="98.562">char[12]</text><text fill="#000000" font-family="sans-serif" font-size="11" lengthAdjust="spacingAndGlyphs" text-decoration="underline" textLength="40" x="405" y="111.3667">tag_ref</text><text fill="#000000" font-family="sans-serif" font-size="11" lengthAdjust="spacingAndGlyphs" textLength="0" x="449" y="111.3667"/><text fill="#000000" font-family="sans-serif" font-size="11" font-style="italic" lengthAdjust="spacingAndGlyphs" textLength="47" x="449" y="111.3667">char[11]</text><text fill="#000000" font-family="sans-serif" font-size="11" lengthAdjust="spacingAndGlyphs" textLength="0" x="409" y="124.1714"/><text fill="#000000" font-family="sans-serif" font-size="11" font-style="italic" lengthAdjust="spacingAndGlyphs" textLength="78" x="405" y="136.9761">+ 18 columns</text><!--class wlapp--><rect fill="#FEFECE" filter="url(#ftrrfcz4sldtk)" height="40" id="wlapp" style="stroke: #A80036; stroke-width: 1.5;" width="68" x="6" y="459"/><ellipse cx="21" cy="475" fill="#ADD1B2" rx="11" ry="11" style="stroke: #A80036; stroke-width: 1.0;"/><path d="M23.9688,480.6406 Q23.3906,480.9375 22.75,481.0859 Q22.1094,481.2344 21.4063,481.2344 Q18.9063,481.2344 17.5859,479.5859 Q16.2656,477.9375 16.2656,474.8125 Q16.2656,471.6875 17.5859,470.0313 Q18.9063,468.375 21.4063,468.375 Q22.1094,468.375 22.7578,468.5313 Q23.4063,468.6875 23.9688,468.9844 L23.9688,471.7031 Q23.3438,471.125 22.75,470.8516 Q22.1563,470.5781 21.5313,470.5781 Q20.1875,470.5781 19.5,471.6484 Q18.8125,472.7188 18.8125,474.8125 Q18.8125,476.9063 19.5,477.9766 Q20.1875,479.0469 21.5313,479.0469 Q22.1563,479.0469 22.75,478.7734 Q23.3438,478.5 23.9688,477.9219 L23.9688,480.6406 Z "/><text fill="#000000" font-family="sans-serif" font-size="12" lengthAdjust="spacingAndGlyphs" textLength="36" x="35" y="479.1543">wlapp</text><line style="stroke: #A80036; stroke-width: 1.5;" x1="7" x2="73" y1="491" y2="491"/><!--class househ--><rect fill="#FEFECE" filter="url(#ftrrfcz4sldtk)" height="40" id="househ" style="stroke: #A80036; stroke-width: 1.5;" width="79" x="126.5" y="459"/><ellipse cx="141.5" cy="475" fill="#ADD1B2" rx="11" ry="11" style="stroke: #A80036; stroke-width: 1.0;"/><path d="M144.4688,480.6406 Q143.8906,480.9375 143.25,481.0859 Q142.6094,481.2344 141.9063,481.2344 Q139.4063,481.2344 138.0859,479.5859 Q136.7656,477.9375 136.7656,474.8125 Q136.7656,471.6875 138.0859,470.0313 Q139.4063,468.375 141.9063,468.375 Q142.6094,468.375 143.2578,468.5313 Q143.9063,468.6875 144.4688,468.9844 L144.4688,471.7031 Q143.8438,471.125 143.25,470.8516 Q142.6563,470.5781 142.0313,470.5781 Q140.6875,470.5781 140,471.6484 Q139.3125,472.7188 139.3125,474.8125 Q139.3125,476.9063 140,477.9766 Q140.6875,479.0469 142.0313,479.0469 Q142.6563,479.0469 143.25,478.7734 Q143.8438,478.5 144.4688,477.9219 L144.4688,480.6406 Z "/><text fill="#000000" font-family="sans-serif" font-size="12" lengthAdjust="spacingAndGlyphs" textLength="47" x="155.5" y="479.1543">househ</text><line style="stroke: #A80036; stroke-width: 1.5;" x1="127.5" x2="204.5" y1="491" y2="491"/><!--class property--><rect fill="#FEFECE" filter="url(#ftrrfcz4sldtk)" height="40" id="property" style="stroke: #A80036; stroke-width: 1.5;" width="85" x="423.5" y="459"/><ellipse cx="438.5" cy="475" fill="#ADD1B2" rx="11" ry="11" style="stroke: #A80036; stroke-width: 1.0;"/><path d="M441.4688,480.6406 Q440.8906,480.9375 440.25,481.0859 Q439.6094,481.2344 438.9063,481.2344 Q436.4063,481.2344 435.0859,479.5859 Q433.7656,477.9375 433.7656,474.8125 Q433.7656,471.6875 435.0859,470.0313 Q436.4063,468.375 438.9063,468.375 Q439.6094,468.375 440.2578,468.5313 Q440.9063,468.6875 441.4688,468.9844 L441.4688,471.7031 Q440.8438,471.125 440.25,470.8516 Q439.6563,470.5781 439.0313,470.5781 Q437.6875,470.5781 437,471.6484 Q436.3125,472.7188 436.3125,474.8125 Q436.3125,476.9063 437,477.9766 Q437.6875,479.0469 439.0313,479.0469 Q439.6563,479.0469 440.25,478.7734 Q440.8438,478.5 441.4688,477.9219 L441.4688,480.6406 Z "/><text fill="#000000" font-family="sans-serif" font-size="12" lengthAdjust="spacingAndGlyphs" textLength="53" x="452.5" y="479.1543">property</text><line style="stroke: #A80036; stroke-width: 1.5;" x1="424.5" x2="507.5" y1="491" y2="491"/><!--class supplier--><rect fill="#FEFECE" filter="url(#ftrrfcz4sldtk)" height="40" id="supplier" style="stroke: #A80036; stroke-width: 1.5;" width="82" x="241" y="459"/><ellipse cx="256" cy="475" fill="#ADD1B2" rx="11" ry="11" style="stroke: #A80036; stroke-width: 1.0;"/><path d="M258.9688,480.6406 Q258.3906,480.9375 257.75,481.0859 Q257.1094,481.2344 256.4063,481.2344 Q253.9063,481.2344 252.5859,479.5859 Q251.2656,477.9375 251.2656,474.8125 Q251.2656,471.6875 252.5859,470.0313 Q253.9063,468.375 256.4063,468.375 Q257.1094,468.375 257.7578,468.5313 Q258.4063,468.6875 258.9688,468.9844 L258.9688,471.7031 Q258.3438,471.125 257.75,470.8516 Q257.1563,470.5781 256.5313,470.5781 Q255.1875,470.5781 254.5,471.6484 Q253.8125,472.7188 253.8125,474.8125 Q253.8125,476.9063 254.5,477.9766 Q255.1875,479.0469 256.5313,479.0469 Q257.1563,479.0469 257.75,478.7734 Q258.3438,478.5 258.9688,477.9219 L258.9688,480.6406 Z "/><text fill="#000000" font-family="sans-serif" font-size="12" lengthAdjust="spacingAndGlyphs" textLength="50" x="270" y="479.1543">supplier</text><line style="stroke: #A80036; stroke-width: 1.5;" x1="242" x2="322" y1="491" y2="491"/><!--class tenagree--><rect fill="#FEFECE" filter="url(#ftrrfcz4sldtk)" height="40" id="tenagree" style="stroke: #A80036; stroke-width: 1.5;" width="90" x="577" y="459"/><ellipse cx="592" cy="475" fill="#ADD1B2" rx="11" ry="11" style="stroke: #A80036; stroke-width: 1.0;"/><path d="M594.9688,480.6406 Q594.3906,480.9375 593.75,481.0859 Q593.1094,481.2344 592.4063,481.2344 Q589.9063,481.2344 588.5859,479.5859 Q587.2656,477.9375 587.2656,474.8125 Q587.2656,471.6875 588.5859,470.0313 Q589.9063,468.375 592.4063,468.375 Q593.1094,468.375 593.7578,468.5313 Q594.4063,468.6875 594.9688,468.9844 L594.9688,471.7031 Q594.3438,471.125 593.75,470.8516 Q593.1563,470.5781 592.5313,470.5781 Q591.1875,470.5781 590.5,471.6484 Q589.8125,472.7188 589.8125,474.8125 Q589.8125,476.9063 590.5,477.9766 Q591.1875,479.0469 592.5313,479.0469 Q593.1563,479.0469 593.75,478.7734 Q594.3438,478.5 594.9688,477.9219 L594.9688,480.6406 Z "/><text fill="#000000" font-family="sans-serif" font-size="12" lengthAdjust="spacingAndGlyphs" textLength="58" x="606" y="479.1543">tenagree</text><line style="stroke: #A80036; stroke-width: 1.5;" x1="578" x2="666" y1="491" y2="491"/><!--link conlog to wlapp--><path d="M260.989,334.968 C223.113,355.976 173.489,384.456 131,412 C109.864,425.7016 86.9105,442.3629 69.3438,455.5172 " fill="none" id="conlog-wlapp" style="stroke: #A80036; stroke-width: 1.0;"/><polygon fill="#A80036" points="64.9981,458.782,74.5963,456.5742,68.9956,455.7787,69.7911,450.1781,64.9981,458.782" style="stroke: #A80036; stroke-width: 1.0;"/><text fill="#000000" font-family="sans-serif" font-size="13" lengthAdjust="spacingAndGlyphs" textLength="48" x="132" y="425.0669">app_ref</text><!--link conlog to househ--><path d="M260.823,349.368 C239.955,367.486 217.442,389.315 200,412 C190.134,424.8318 181.766,440.9561 175.8,454.055 " fill="none" id="conlog-househ" style="stroke: #A80036; stroke-width: 1.0;"/><polygon fill="#A80036" points="173.713,458.7323,181.0332,452.1433,175.7504,454.1662,173.7274,448.8835,173.713,458.7323" style="stroke: #A80036; stroke-width: 1.0;"/><text fill="#000000" font-family="sans-serif" font-size="13" lengthAdjust="spacingAndGlyphs" textLength="63" x="201" y="425.0669">house_ref</text><!--link conlog to property--><path d="M336.702,382.296 C342.812,399.1001 351.279,415.7339 363,429 C377.565,445.4847 398.884,456.8895 418.353,464.519 " fill="none" id="conlog-property" style="stroke: #A80036; stroke-width: 1.0;"/><polygon fill="#A80036" points="423.258,466.3781,416.2609,459.447,418.5828,464.6053,413.4245,466.9273,423.258,466.3781" style="stroke: #A80036; stroke-width: 1.0;"/><text fill="#000000" font-family="sans-serif" font-size="13" lengthAdjust="spacingAndGlyphs" textLength="53" x="364" y="425.0669">prop_ref</text><!--link conlog to supplier--><path d="M282.51,382.025 C279.022,391.931 276.041,402.0707 274,412 C271.194,425.6518 272.815,441.1088 275.311,453.6309 " fill="none" id="conlog-supplier" style="stroke: #A80036; stroke-width: 1.0;"/><polygon fill="#A80036" points="276.424,458.8039,278.4416,449.1639,275.3724,453.9157,270.6205,450.8465,276.424,458.8039" style="stroke: #A80036; stroke-width: 1.0;"/><text fill="#000000" font-family="sans-serif" font-size="13" lengthAdjust="spacingAndGlyphs" textLength="47" x="275" y="425.0669">sup_ref</text><!--link conlog to tenagree--><path d="M381.188,337.593 C441.974,373.035 533.949,426.6615 584.839,456.3331 " fill="none" id="conlog-tenagree" style="stroke: #A80036; stroke-width: 1.0;"/><polygon fill="#A80036" points="589.333,458.953,583.573,450.9641,585.0136,456.4345,579.5433,457.8751,589.333,458.953" style="stroke: #A80036; stroke-width: 1.0;"/><text fill="#000000" font-family="sans-serif" font-size="13" lengthAdjust="spacingAndGlyphs" textLength="45" x="534" y="425.0669">tag_ref</text><!--link contacts to wlapp--><path d="M398.766,98.669 C340.703,121.893 253.043,163.358 193,221 C119.484,291.577 68.7647,404.9878 49.0966,454.0758 " fill="none" id="contacts-wlapp" style="stroke: #A80036; stroke-width: 1.0;"/><polygon fill="#A80036" points="47.1804,458.9014,54.2195,452.0129,49.0256,454.2544,46.7842,449.0605,47.1804,458.9014" style="stroke: #A80036; stroke-width: 1.0;"/><text fill="#000000" font-family="sans-serif" font-size="13" lengthAdjust="spacingAndGlyphs" textLength="48" x="194" y="306.0669">app_ref</text><!--link contacts to conlog--><path d="M417.595,144.057 C403.544,166.814 387.665,192.531 372.901,216.443 " fill="none" id="contacts-conlog" style="stroke: #A80036; stroke-width: 1.0;"/><polygon fill="#A80036" points="370.158,220.886,378.2902,215.3301,372.7851,216.6318,371.4834,211.1267,370.158,220.886" style="stroke: #A80036; stroke-width: 1.0;"/><text fill="#000000" font-family="sans-serif" font-size="13" lengthAdjust="spacingAndGlyphs" textLength="52" x="400" y="187.0669">con_key</text><!--link contacts to property--><path d="M471.999,144.045 C484.357,211.441 502.058,318.465 509,412 C509.559,419.5348 511.663,421.9291 509,429 C505.433,438.4732 499.11,447.308 492.392,454.7941 " fill="none" id="contacts-property" style="stroke: #A80036; stroke-width: 1.0;"/><polygon fill="#A80036" points="488.634,458.8098,497.7038,454.9707,492.0501,455.1587,491.8621,449.505,488.634,458.8098" style="stroke: #A80036; stroke-width: 1.0;"/><text fill="#000000" font-family="sans-serif" font-size="13" lengthAdjust="spacingAndGlyphs" textLength="53" x="508" y="306.0669">prop_ref</text><!--link contacts to tenagree--><path d="M519.266,142.05 C538.076,165.443 557.222,193.002 570,221 C606.49,300.951 617.517,406.4763 620.733,453.5324 " fill="none" id="contacts-tenagree" style="stroke: #A80036; stroke-width: 1.0;"/><polygon fill="#A80036" points="621.071,458.7076,624.4753,449.4658,620.7448,453.7183,616.4924,449.9877,621.071,458.7076" style="stroke: #A80036; stroke-width: 1.0;"/><text fill="#000000" font-family="sans-serif" font-size="13" lengthAdjust="spacingAndGlyphs" textLength="45" x="613" y="306.0669">tag_ref</text><!--
@startuml
hide methods
hide stereotypes

class conlog as "conlog\n(Contact Log)" << (T,#FFAAAA) >> {
<b>clog_key</b> <i>int[4]</i>
<b>tstamp</b> <i>timestamp</i>
<u>app_ref</u> <i>char[10]</i>
<u>house_ref</u> <i>char[10]</i>
<u>prop_ref</u> <i>char[12]</i>
<u>sup_ref</u> <i>char[12]</i>
<u>tag_ref</u> <i>char[11]</i>

<i>+ 24 columns</i>
}


class contacts as "contacts\n(Contacts)" << (T,#FFAAAA) >> {
<b>con_key</b> <i>int[4]</i>
<b>tstamp</b> <i>timestamp</i>
<u>app_ref</u> <i>char[10]</i>
<u>prop_ref</u> <i>char[12]</i>
<u>tag_ref</u> <i>char[11]</i>

<i>+ 18 columns</i>
}


conlog - -> wlapp : "app_ref"
conlog - -> househ : "house_ref"
conlog - -> property : "prop_ref"
conlog - -> supplier : "sup_ref"
conlog - -> tenagree : "tag_ref"
contacts - -> wlapp : "app_ref"
contacts - -> conlog : "con_key"
contacts - -> property : "prop_ref"
contacts - -> tenagree : "tag_ref"
@enduml

PlantUML version 1.2019.08(Sat Jul 13 19:25:14 UTC 2019)
(GPL source distribution)
Java Runtime: OpenJDK Runtime Environment
JVM: OpenJDK 64-Bit Server VM
Java Version: 1.8.0_131-8u131-b11-1~bpo8+1-b11
Operating System: Linux
OS Version: 4.15.0-1043-aws
Default Encoding: UTF-8
Language: en
Country: null
--></g></svg>