<?xml version="1.0" encoding="UTF-8" standalone="no"?><svg xmlns="http://www.w3.org/2000/svg" xmlns:xlink="http://www.w3.org/1999/xlink" contentScriptType="application/ecmascript" contentStyleType="text/css" height="421px" preserveAspectRatio="none" style="width:603px;height:421px;" version="1.1" viewBox="0 0 603 421" width="603px" zoomAndPan="magnify"><defs><filter height="300%" id="f1cxlczmarqoxo" width="300%" x="-1" y="-1"><feGaussianBlur result="blurOut" stdDeviation="2.0"/><feColorMatrix in="blurOut" result="blurOut2" type="matrix" values="0 0 0 0 0 0 0 0 0 0 0 0 0 0 0 0 0 0 .4 0"/><feOffset dx="4.0" dy="4.0" in="blurOut2" result="blurOut3"/><feBlend in="SourceGraphic" in2="blurOut3" mode="normal"/></filter></defs><g><!--class hladdress--><rect fill="#FEFECE" filter="url(#f1cxlczmarqoxo)" height="91.2188" id="hladdress" style="stroke: #A80036; stroke-width: 1.5;" width="120" x="472" y="14.5"/><ellipse cx="498.7" cy="30.5" fill="#FFAAAA" rx="11" ry="11" style="stroke: #A80036; stroke-width: 1.0;"/><path d="M499.5438,37.25 L497.0906,37.25 L497.0906,27 L493.95,27 L493.95,24.8594 L502.6844,24.8594 L502.6844,27 L499.5438,27 L499.5438,37.25 Z "/><text fill="#000000" font-family="sans-serif" font-size="12" lengthAdjust="spacingAndGlyphs" textLength="62" x="515.3" y="34.6543">hladdress</text><line style="stroke: #A80036; stroke-width: 1.5;" x1="473" x2="591" y1="46.5" y2="46.5"/><text fill="#000000" font-family="sans-serif" font-size="11" font-weight="bold" lengthAdjust="spacingAndGlyphs" textLength="44" x="478" y="60.7104">tstamp</text><text fill="#000000" font-family="sans-serif" font-size="11" lengthAdjust="spacingAndGlyphs" textLength="0" x="526" y="60.7104"/><text fill="#000000" font-family="sans-serif" font-size="11" font-style="italic" lengthAdjust="spacingAndGlyphs" textLength="60" x="526" y="60.7104">timestamp</text><text fill="#000000" font-family="sans-serif" font-size="11" lengthAdjust="spacingAndGlyphs" text-decoration="underline" textLength="53" x="478" y="73.5151">hlapp_ref</text><text fill="#000000" font-family="sans-serif" font-size="11" lengthAdjust="spacingAndGlyphs" textLength="0" x="535" y="73.5151"/><text fill="#000000" font-family="sans-serif" font-size="11" font-style="italic" lengthAdjust="spacingAndGlyphs" textLength="29" x="535" y="73.5151">int[4]</text><text fill="#000000" font-family="sans-serif" font-size="11" lengthAdjust="spacingAndGlyphs" textLength="0" x="482" y="86.3198"/><text fill="#000000" font-family="sans-serif" font-size="11" font-style="italic" lengthAdjust="spacingAndGlyphs" textLength="78" x="478" y="99.1245">+ 32 columns</text><!--class hlahist--><rect fill="#FEFECE" filter="url(#f1cxlczmarqoxo)" height="91.2188" id="hlahist" style="stroke: #A80036; stroke-width: 1.5;" width="120" x="162" y="14.5"/><ellipse cx="197.7" cy="30.5" fill="#FFAAAA" rx="11" ry="11" style="stroke: #A80036; stroke-width: 1.0;"/><path d="M198.5438,37.25 L196.0906,37.25 L196.0906,27 L192.95,27 L192.95,24.8594 L201.6844,24.8594 L201.6844,27 L198.5438,27 L198.5438,37.25 Z "/><text fill="#000000" font-family="sans-serif" font-size="12" lengthAdjust="spacingAndGlyphs" textLength="42" x="216.3" y="34.6543">hlahist</text><line style="stroke: #A80036; stroke-width: 1.5;" x1="163" x2="281" y1="46.5" y2="46.5"/><text fill="#000000" font-family="sans-serif" font-size="11" font-weight="bold" lengthAdjust="spacingAndGlyphs" textLength="44" x="168" y="60.7104">tstamp</text><text fill="#000000" font-family="sans-serif" font-size="11" lengthAdjust="spacingAndGlyphs" textLength="0" x="216" y="60.7104"/><text fill="#000000" font-family="sans-serif" font-size="11" font-style="italic" lengthAdjust="spacingAndGlyphs" textLength="60" x="216" y="60.7104">timestamp</text><text fill="#000000" font-family="sans-serif" font-size="11" lengthAdjust="spacingAndGlyphs" text-decoration="underline" textLength="53" x="168" y="73.5151">hlapp_ref</text><text fill="#000000" font-family="sans-serif" font-size="11" lengthAdjust="spacingAndGlyphs" textLength="0" x="225" y="73.5151"/><text fill="#000000" font-family="sans-serif" font-size="11" font-style="italic" lengthAdjust="spacingAndGlyphs" textLength="29" x="225" y="73.5151">int[4]</text><text fill="#000000" font-family="sans-serif" font-size="11" lengthAdjust="spacingAndGlyphs" textLength="0" x="172" y="86.3198"/><text fill="#000000" font-family="sans-serif" font-size="11" font-style="italic" lengthAdjust="spacingAndGlyphs" textLength="78" x="168" y="99.1245">+ 13 columns</text><!--class hlapp--><rect fill="#FEFECE" filter="url(#f1cxlczmarqoxo)" height="104.0234" id="hlapp" style="stroke: #A80036; stroke-width: 1.5;" width="120" x="163" y="189"/><ellipse cx="201.85" cy="205" fill="#FFAAAA" rx="11" ry="11" style="stroke: #A80036; stroke-width: 1.0;"/><path d="M202.6938,211.75 L200.2406,211.75 L200.2406,201.5 L197.1,201.5 L197.1,199.3594 L205.8344,199.3594 L205.8344,201.5 L202.6938,201.5 L202.6938,211.75 Z "/><text fill="#000000" font-family="sans-serif" font-size="12" lengthAdjust="spacingAndGlyphs" textLength="35" x="221.15" y="209.1543">hlapp</text><line style="stroke: #A80036; stroke-width: 1.5;" x1="164" x2="282" y1="221" y2="221"/><text fill="#000000" font-family="sans-serif" font-size="11" font-weight="bold" lengthAdjust="spacingAndGlyphs" textLength="44" x="169" y="235.2104">tstamp</text><text fill="#000000" font-family="sans-serif" font-size="11" lengthAdjust="spacingAndGlyphs" textLength="0" x="217" y="235.2104"/><text fill="#000000" font-family="sans-serif" font-size="11" font-style="italic" lengthAdjust="spacingAndGlyphs" textLength="60" x="217" y="235.2104">timestamp</text><text fill="#000000" font-family="sans-serif" font-size="11" lengthAdjust="spacingAndGlyphs" text-decoration="underline" textLength="43" x="169" y="248.0151">app_ref</text><text fill="#000000" font-family="sans-serif" font-size="11" lengthAdjust="spacingAndGlyphs" textLength="0" x="216" y="248.0151"/><text fill="#000000" font-family="sans-serif" font-size="11" font-style="italic" lengthAdjust="spacingAndGlyphs" textLength="47" x="216" y="248.0151">char[10]</text><text fill="#000000" font-family="sans-serif" font-size="11" lengthAdjust="spacingAndGlyphs" text-decoration="underline" textLength="57" x="169" y="260.8198">house_ref</text><text fill="#000000" font-family="sans-serif" font-size="11" lengthAdjust="spacingAndGlyphs" textLength="0" x="230" y="260.8198"/><text fill="#000000" font-family="sans-serif" font-size="11" font-style="italic" lengthAdjust="spacingAndGlyphs" textLength="47" x="230" y="260.8198">char[10]</text><text fill="#000000" font-family="sans-serif" font-size="11" lengthAdjust="spacingAndGlyphs" textLength="0" x="173" y="273.6245"/><text fill="#000000" font-family="sans-serif" font-size="11" font-style="italic" lengthAdjust="spacingAndGlyphs" textLength="78" x="169" y="286.4292">+ 31 columns</text><!--class hlepisode--><rect fill="#FEFECE" filter="url(#f1cxlczmarqoxo)" height="104.0234" id="hlepisode" style="stroke: #A80036; stroke-width: 1.5;" width="120" x="6" y="8"/><ellipse cx="33.15" cy="24" fill="#FFAAAA" rx="11" ry="11" style="stroke: #A80036; stroke-width: 1.0;"/><path d="M33.9938,30.75 L31.5406,30.75 L31.5406,20.5 L28.4,20.5 L28.4,18.3594 L37.1344,18.3594 L37.1344,20.5 L33.9938,20.5 L33.9938,30.75 Z "/><text fill="#000000" font-family="sans-serif" font-size="12" lengthAdjust="spacingAndGlyphs" textLength="61" x="49.85" y="28.1543">hlepisode</text><line style="stroke: #A80036; stroke-width: 1.5;" x1="7" x2="125" y1="40" y2="40"/><text fill="#000000" font-family="sans-serif" font-size="11" font-weight="bold" lengthAdjust="spacingAndGlyphs" textLength="44" x="12" y="54.2104">tstamp</text><text fill="#000000" font-family="sans-serif" font-size="11" lengthAdjust="spacingAndGlyphs" textLength="0" x="60" y="54.2104"/><text fill="#000000" font-family="sans-serif" font-size="11" font-style="italic" lengthAdjust="spacingAndGlyphs" textLength="60" x="60" y="54.2104">timestamp</text><text fill="#000000" font-family="sans-serif" font-size="11" lengthAdjust="spacingAndGlyphs" text-decoration="underline" textLength="43" x="12" y="67.0151">app_ref</text><text fill="#000000" font-family="sans-serif" font-size="11" lengthAdjust="spacingAndGlyphs" textLength="0" x="59" y="67.0151"/><text fill="#000000" font-family="sans-serif" font-size="11" font-style="italic" lengthAdjust="spacingAndGlyphs" textLength="47" x="59" y="67.0151">char[10]</text><text fill="#000000" font-family="sans-serif" font-size="11" lengthAdjust="spacingAndGlyphs" text-decoration="underline" textLength="53" x="12" y="79.8198">hlapp_ref</text><text fill="#000000" font-family="sans-serif" font-size="11" lengthAdjust="spacingAndGlyphs" textLength="0" x="69" y="79.8198"/><text fill="#000000" font-family="sans-serif" font-size="11" font-style="italic" lengthAdjust="spacingAndGlyphs" textLength="29" x="69" y="79.8198">int[4]</text><text fill="#000000" font-family="sans-serif" font-size="11" lengthAdjust="spacingAndGlyphs" textLength="0" x="16" y="92.6245"/><text fill="#000000" font-family="sans-serif" font-size="11" font-style="italic" lengthAdjust="spacingAndGlyphs" textLength="85" x="12" y="105.4292">+ 105 columns</text><!--class hlmember--><rect fill="#FEFECE" filter="url(#f1cxlczmarqoxo)" height="91.2188" id="hlmember" style="stroke: #A80036; stroke-width: 1.5;" width="120" x="317" y="14.5"/><ellipse cx="343.7" cy="30.5" fill="#FFAAAA" rx="11" ry="11" style="stroke: #A80036; stroke-width: 1.0;"/><path d="M344.5438,37.25 L342.0906,37.25 L342.0906,27 L338.95,27 L338.95,24.8594 L347.6844,24.8594 L347.6844,27 L344.5438,27 L344.5438,37.25 Z "/><text fill="#000000" font-family="sans-serif" font-size="12" lengthAdjust="spacingAndGlyphs" textLength="62" x="360.3" y="34.6543">hlmember</text><line style="stroke: #A80036; stroke-width: 1.5;" x1="318" x2="436" y1="46.5" y2="46.5"/><text fill="#000000" font-family="sans-serif" font-size="11" font-weight="bold" lengthAdjust="spacingAndGlyphs" textLength="44" x="323" y="60.7104">tstamp</text><text fill="#000000" font-family="sans-serif" font-size="11" lengthAdjust="spacingAndGlyphs" textLength="0" x="371" y="60.7104"/><text fill="#000000" font-family="sans-serif" font-size="11" font-style="italic" lengthAdjust="spacingAndGlyphs" textLength="60" x="371" y="60.7104">timestamp</text><text fill="#000000" font-family="sans-serif" font-size="11" lengthAdjust="spacingAndGlyphs" text-decoration="underline" textLength="53" x="323" y="73.5151">hlapp_ref</text><text fill="#000000" font-family="sans-serif" font-size="11" lengthAdjust="spacingAndGlyphs" textLength="0" x="380" y="73.5151"/><text fill="#000000" font-family="sans-serif" font-size="11" font-style="italic" lengthAdjust="spacingAndGlyphs" textLength="29" x="380" y="73.5151">int[4]</text><text fill="#000000" font-family="sans-serif" font-size="11" lengthAdjust="spacingAndGlyphs" textLength="0" x="327" y="86.3198"/><text fill="#000000" font-family="sans-serif" font-size="11" font-style="italic" lengthAdjust="spacingAndGlyphs" textLength="78" x="323" y="99.1245">+ 28 columns</text><!--class wlapp--><rect fill="#FEFECE" filter="url(#f1cxlczmarqoxo)" height="40" id="wlapp" style="stroke: #A80036; stroke-width: 1.5;" width="68" x="55" y="370"/><ellipse cx="70" cy="386" fill="#ADD1B2" rx="11" ry="11" style="stroke: #A80036; stroke-width: 1.0;"/><path d="M72.9688,391.6406 Q72.3906,391.9375 71.75,392.0859 Q71.1094,392.2344 70.4063,392.2344 Q67.9063,392.2344 66.5859,390.5859 Q65.2656,388.9375 65.2656,385.8125 Q65.2656,382.6875 66.5859,381.0313 Q67.9063,379.375 70.4063,379.375 Q71.1094,379.375 71.7578,379.5313 Q72.4063,379.6875 72.9688,379.9844 L72.9688,382.7031 Q72.3438,382.125 71.75,381.8516 Q71.1563,381.5781 70.5313,381.5781 Q69.1875,381.5781 68.5,382.6484 Q67.8125,383.7188 67.8125,385.8125 Q67.8125,387.9063 68.5,388.9766 Q69.1875,390.0469 70.5313,390.0469 Q71.1563,390.0469 71.75,389.7734 Q72.3438,389.5 72.9688,388.9219 L72.9688,391.6406 Z "/><text fill="#000000" font-family="sans-serif" font-size="12" lengthAdjust="spacingAndGlyphs" textLength="36" x="84" y="390.1543">wlapp</text><line style="stroke: #A80036; stroke-width: 1.5;" x1="56" x2="122" y1="402" y2="402"/><!--class househ--><rect fill="#FEFECE" filter="url(#f1cxlczmarqoxo)" height="40" id="househ" style="stroke: #A80036; stroke-width: 1.5;" width="79" x="183.5" y="370"/><ellipse cx="198.5" cy="386" fill="#ADD1B2" rx="11" ry="11" style="stroke: #A80036; stroke-width: 1.0;"/><path d="M201.4688,391.6406 Q200.8906,391.9375 200.25,392.0859 Q199.6094,392.2344 198.9063,392.2344 Q196.4063,392.2344 195.0859,390.5859 Q193.7656,388.9375 193.7656,385.8125 Q193.7656,382.6875 195.0859,381.0313 Q196.4063,379.375 198.9063,379.375 Q199.6094,379.375 200.2578,379.5313 Q200.9063,379.6875 201.4688,379.9844 L201.4688,382.7031 Q200.8438,382.125 200.25,381.8516 Q199.6563,381.5781 199.0313,381.5781 Q197.6875,381.5781 197,382.6484 Q196.3125,383.7188 196.3125,385.8125 Q196.3125,387.9063 197,388.9766 Q197.6875,390.0469 199.0313,390.0469 Q199.6563,390.0469 200.25,389.7734 Q200.8438,389.5 201.4688,388.9219 L201.4688,391.6406 Z "/><text fill="#000000" font-family="sans-serif" font-size="12" lengthAdjust="spacingAndGlyphs" textLength="47" x="212.5" y="390.1543">househ</text><line style="stroke: #A80036; stroke-width: 1.5;" x1="184.5" x2="261.5" y1="402" y2="402"/><!--link hladdress to hlapp--><path d="M471.716,100.824 C465.754,104.639 459.775,108.419 454,112 C399.078,146.061 334.607,181.419 287.751,206.319 " fill="none" id="hladdress-hlapp" style="stroke: #A80036; stroke-width: 1.0;"/><polygon fill="#A80036" points="283.273,208.696,293.0979,208.0101,287.6895,206.352,289.3476,200.9436,283.273,208.696" style="stroke: #A80036; stroke-width: 1.0;"/><text fill="#000000" font-family="sans-serif" font-size="13" lengthAdjust="spacingAndGlyphs" textLength="59" x="400" y="155.0669">hlapp_ref</text><!--link hlahist to hlapp--><path d="M222.25,105.708 C222.382,129.296 222.545,158.478 222.685,183.607 " fill="none" id="hlahist-hlapp" style="stroke: #A80036; stroke-width: 1.0;"/><polygon fill="#A80036" points="222.715,188.904,226.6635,179.8813,222.6864,183.9041,218.6636,179.927,222.715,188.904" style="stroke: #A80036; stroke-width: 1.0;"/><text fill="#000000" font-family="sans-serif" font-size="13" lengthAdjust="spacingAndGlyphs" textLength="59" x="224" y="155.0669">hlapp_ref</text><!--link hlapp to wlapp--><path d="M176.509,293.001 C153.832,317.8781 127.686,346.561 109.921,366.0489 " fill="none" id="hlapp-wlapp" style="stroke: #A80036; stroke-width: 1.0;"/><polygon fill="#A80036" points="106.484,369.82,115.5037,365.8646,109.8528,366.1253,109.5921,360.4744,106.484,369.82" style="stroke: #A80036; stroke-width: 1.0;"/><text fill="#000000" font-family="sans-serif" font-size="13" lengthAdjust="spacingAndGlyphs" textLength="48" x="149" y="336.0669">app_ref</text><!--link hlapp to househ--><path d="M223,293.001 C223,317.2562 223,345.1293 223,364.5703 " fill="none" id="hlapp-househ" style="stroke: #A80036; stroke-width: 1.0;"/><polygon fill="#A80036" points="223,369.82,227,360.82,223,364.82,219,360.82,223,369.82" style="stroke: #A80036; stroke-width: 1.0;"/><text fill="#000000" font-family="sans-serif" font-size="13" lengthAdjust="spacingAndGlyphs" textLength="63" x="224" y="336.0669">house_ref</text><!--link hlepisode to wlapp--><path d="M69.5938,112.25 C74.6262,184.018 83.5739,311.6184 87.299,364.743 " fill="none" id="hlepisode-wlapp" style="stroke: #A80036; stroke-width: 1.0;"/><polygon fill="#A80036" points="87.664,369.9476,91.0244,360.6898,87.3141,364.9599,83.0441,361.2495,87.664,369.9476" style="stroke: #A80036; stroke-width: 1.0;"/><text fill="#000000" font-family="sans-serif" font-size="13" lengthAdjust="spacingAndGlyphs" textLength="48" x="83" y="245.5669">app_ref</text><!--link hlepisode to hlapp--><path d="M110.99,112.294 C130.862,134.951 154.262,161.629 174.52,184.727 " fill="none" id="hlepisode-hlapp" style="stroke: #A80036; stroke-width: 1.0;"/><polygon fill="#A80036" points="178.004,188.698,175.0759,179.2945,174.7067,184.9393,169.0619,184.5701,178.004,188.698" style="stroke: #A80036; stroke-width: 1.0;"/><text fill="#000000" font-family="sans-serif" font-size="13" lengthAdjust="spacingAndGlyphs" textLength="59" x="151" y="155.0669">hlapp_ref</text><!--link hlmember to hlapp--><path d="M338.537,105.708 C317.903,129.691 292.294,159.457 270.434,184.865 " fill="none" id="hlmember-hlapp" style="stroke: #A80036; stroke-width: 1.0;"/><polygon fill="#A80036" points="266.96,188.904,275.8615,184.6893,270.2205,185.1134,269.7965,179.4724,266.96,188.904" style="stroke: #A80036; stroke-width: 1.0;"/><text fill="#000000" font-family="sans-serif" font-size="13" lengthAdjust="spacingAndGlyphs" textLength="59" x="306" y="155.0669">hlapp_ref</text><!--
@startuml
hide methods
hide stereotypes

class hladdress as "hladdress" << (T,#FFAAAA) >> {
<b>tstamp</b> <i>timestamp</i>
<u>hlapp_ref</u> <i>int[4]</i>

<i>+ 32 columns</i>
}


class hlahist as "hlahist" << (T,#FFAAAA) >> {
<b>tstamp</b> <i>timestamp</i>
<u>hlapp_ref</u> <i>int[4]</i>

<i>+ 13 columns</i>
}


class hlapp as "hlapp" << (T,#FFAAAA) >> {
<b>tstamp</b> <i>timestamp</i>
<u>app_ref</u> <i>char[10]</i>
<u>house_ref</u> <i>char[10]</i>

<i>+ 31 columns</i>
}


class hlepisode as "hlepisode" << (T,#FFAAAA) >> {
<b>tstamp</b> <i>timestamp</i>
<u>app_ref</u> <i>char[10]</i>
<u>hlapp_ref</u> <i>int[4]</i>

<i>+ 105 columns</i>
}


class hlmember as "hlmember" << (T,#FFAAAA) >> {
<b>tstamp</b> <i>timestamp</i>
<u>hlapp_ref</u> <i>int[4]</i>

<i>+ 28 columns</i>
}


hladdress - -> hlapp : "hlapp_ref"
hlahist - -> hlapp : "hlapp_ref"
hlapp - -> wlapp : "app_ref"
hlapp - -> househ : "house_ref"
hlepisode - -> wlapp : "app_ref"
hlepisode - -> hlapp : "hlapp_ref"
hlmember - -> hlapp : "hlapp_ref"
@enduml

PlantUML version 1.2019.08(Sat Jul 13 19:25:14 UTC 2019)
(GPL source distribution)
Java Runtime: OpenJDK Runtime Environment
JVM: OpenJDK 64-Bit Server VM
Java Version: 1.8.0_131-8u131-b11-1~bpo8+1-b11
Operating System: Linux
OS Version: 4.15.0-1043-aws
Default Encoding: UTF-8
Language: en
Country: null
--></g></svg>